<svg id="svg" version="1.1" xmlns="http://www.w3.org/2000/svg" xmlns:xlink="http://www.w3.org/1999/xlink" width="400" height="400.59259259259255" viewBox="0, 0, 400,400.59259259259255"><g id="svgg"><path id="path0" d="M229.782 164.672 C 229.332 164.761,217.722 176.077,203.983 189.817 C 190.244 203.558,178.853 214.800,178.670 214.800 C 178.488 214.800,174.173 210.658,169.083 205.595 C 162.638 199.185,159.443 196.284,158.563 196.041 C 154.209 194.839,150.372 199.117,151.989 203.371 C 152.539 204.819,177.043 229.145,178.259 229.450 C 181.684 230.310,180.152 231.646,210.072 201.729 C 229.719 182.083,237.729 173.820,238.041 172.874 C 239.491 168.485,234.672 163.700,229.782 164.672 M145.585 169.968 C 141.475 170.777,137.308 174.395,136.204 178.111 C 135.383 180.876,135.302 242.014,136.116 244.600 C 137.212 248.086,139.063 250.255,142.511 252.098 L 144.200 253.000 176.000 253.112 C 209.940 253.231,210.275 253.214,213.480 251.226 C 218.644 248.024,219.189 245.683,219.195 226.700 L 219.200 211.600 215.413 211.600 L 211.627 211.600 211.513 227.100 C 211.386 244.544,211.466 244.086,208.292 245.384 C 206.068 246.293,148.453 246.316,146.282 245.409 C 142.982 244.029,143.200 246.437,143.200 211.432 L 143.200 180.388 144.569 178.894 L 145.938 177.400 176.384 177.290 L 206.830 177.181 206.715 173.490 L 206.600 169.800 176.800 169.745 C 160.410 169.714,146.363 169.815,145.585 169.968 " stroke="none" fill="#f9fbfa" fill-rule="evenodd"></path><path id="path1" d="M230.000 164.406 C 229.578 164.682,229.815 164.723,230.800 164.542 C 232.525 164.225,232.851 163.998,231.567 164.006 C 231.035 164.009,230.330 164.189,230.000 164.406 M203.593 189.801 C 189.840 203.550,178.680 214.800,178.795 214.800 C 178.909 214.800,190.251 203.550,204.000 189.800 C 217.749 176.050,228.908 164.800,228.799 164.801 C 228.689 164.801,217.347 176.051,203.593 189.801 M236.000 166.600 C 236.746 167.370,237.447 168.000,237.557 168.000 C 237.667 168.000,237.146 167.370,236.400 166.600 C 235.654 165.830,234.953 165.200,234.843 165.200 C 234.733 165.200,235.254 165.830,236.000 166.600 M139.277 173.059 L 137.400 174.918 139.400 173.191 C 140.500 172.241,141.475 171.404,141.567 171.332 C 141.658 171.259,141.603 171.200,141.443 171.200 C 141.284 171.200,140.309 172.037,139.277 173.059 M209.999 201.900 L 182.600 229.400 210.100 202.001 C 235.664 176.531,237.779 174.400,237.499 174.400 C 237.443 174.400,225.068 186.775,209.999 201.900 M162.130 177.500 C 170.451 177.560,183.951 177.560,192.130 177.500 C 200.308 177.439,193.500 177.390,177.000 177.390 C 160.500 177.390,153.808 177.439,162.130 177.500 M135.390 211.600 C 135.390 228.870,135.440 235.935,135.500 227.300 C 135.560 218.665,135.560 204.535,135.500 195.900 C 135.440 187.265,135.390 194.330,135.390 211.600 M159.241 196.100 C 159.337 196.155,160.312 197.010,161.407 198.000 L 163.400 199.800 161.617 197.900 C 160.636 196.855,159.661 196.000,159.450 196.000 C 159.239 196.000,159.145 196.045,159.241 196.100 M211.382 226.800 C 211.382 235.270,211.435 238.735,211.499 234.500 C 211.564 230.265,211.564 223.335,211.499 219.100 C 211.435 214.865,211.382 218.330,211.382 226.800 M179.105 229.883 C 179.602 229.979,180.322 229.975,180.705 229.875 C 181.087 229.775,180.680 229.696,179.800 229.701 C 178.920 229.705,178.607 229.787,179.105 229.883 M218.650 243.650 C 218.509 244.353,218.469 245.002,218.559 245.092 C 218.650 245.183,218.848 244.691,219.000 244.000 C 219.152 243.309,219.193 242.659,219.091 242.558 C 218.989 242.456,218.791 242.947,218.650 243.650 M146.938 245.694 C 147.192 245.856,160.900 245.949,177.400 245.902 C 193.900 245.855,203.620 245.769,199.000 245.710 C 177.734 245.438,146.521 245.429,146.938 245.694 M216.399 248.500 C 215.810 249.304,215.713 249.584,216.145 249.233 C 216.801 248.700,217.793 247.200,217.489 247.200 C 217.413 247.200,216.922 247.785,216.399 248.500 M138.415 249.367 C 139.154 250.336,141.977 252.400,142.560 252.399 C 142.802 252.398,142.370 252.019,141.600 251.558 C 140.830 251.096,139.667 250.242,139.015 249.659 C 138.364 249.077,138.094 248.945,138.415 249.367 M144.876 253.260 C 145.384 253.403,159.930 253.520,177.200 253.520 C 194.470 253.520,209.016 253.403,209.524 253.260 C 210.032 253.117,195.486 253.000,177.200 253.000 C 158.914 253.000,144.368 253.117,144.876 253.260 " stroke="none" fill="#a7d6d5" fill-rule="evenodd"></path><path id="path2" d="M191.631 108.600 C 191.611 108.851,189.068 108.988,184.799 108.967 C 178.862 108.938,177.996 109.014,177.968 109.567 C 177.948 109.980,177.867 110.026,177.735 109.700 C 177.478 109.062,175.600 109.042,175.600 109.676 C 175.600 109.939,175.336 109.804,175.013 109.376 C 174.437 108.616,174.425 108.615,174.413 109.367 C 174.406 109.788,174.282 110.015,174.137 109.870 C 173.992 109.725,173.613 109.824,173.294 110.088 C 172.835 110.469,172.618 110.444,172.257 109.965 C 171.755 109.300,169.489 109.718,168.327 110.691 C 168.004 110.960,167.349 111.106,166.870 111.014 C 166.392 110.921,166.000 110.997,166.000 111.181 C 166.000 111.366,164.990 111.444,163.756 111.356 C 161.902 111.223,161.552 111.297,161.739 111.785 C 161.863 112.109,161.765 112.498,161.521 112.649 C 161.262 112.809,161.188 112.742,161.345 112.489 C 161.492 112.251,161.430 111.942,161.207 111.804 C 160.983 111.666,160.800 111.738,160.800 111.964 C 160.800 112.190,160.500 112.260,160.134 112.119 C 159.750 111.972,159.570 112.028,159.709 112.252 C 159.847 112.475,159.334 112.640,158.501 112.640 C 157.705 112.640,156.985 112.846,156.901 113.098 C 156.817 113.349,156.459 113.444,156.105 113.308 C 155.625 113.124,155.526 113.231,155.718 113.731 C 155.859 114.099,155.801 114.400,155.587 114.400 C 155.374 114.400,155.200 114.220,155.200 114.000 C 155.200 113.148,153.999 113.637,153.972 114.500 C 153.945 115.359,153.928 115.363,153.600 114.600 C 153.332 113.975,153.250 113.944,153.228 114.457 C 153.195 115.232,152.119 115.758,151.902 115.106 C 151.806 114.818,151.473 114.777,150.976 114.993 C 150.549 115.179,150.082 115.346,149.939 115.365 C 149.795 115.384,149.245 115.850,148.717 116.400 C 148.189 116.950,147.497 117.448,147.179 117.506 C 146.808 117.573,146.880 117.393,147.376 117.006 C 147.804 116.673,147.949 116.400,147.699 116.400 C 147.450 116.400,146.984 116.773,146.664 117.229 C 146.294 117.758,145.986 117.901,145.814 117.623 C 145.446 117.028,144.695 117.548,144.952 118.220 C 145.085 118.567,144.953 118.680,144.580 118.537 C 144.261 118.414,144.000 118.524,144.000 118.781 C 144.000 119.037,143.838 119.147,143.641 119.025 C 142.977 118.615,140.745 119.280,140.954 119.825 C 141.063 120.109,140.889 120.560,140.567 120.827 C 140.094 121.220,140.025 121.200,140.208 120.723 C 140.347 120.360,140.197 120.133,139.817 120.133 C 139.478 120.133,139.200 120.259,139.200 120.413 C 139.200 121.253,137.486 122.803,137.002 122.401 C 136.627 122.091,136.334 122.123,135.939 122.518 C 135.639 122.819,135.186 122.995,134.933 122.911 C 134.680 122.827,134.339 122.975,134.175 123.241 C 133.985 123.547,134.045 123.619,134.338 123.438 C 134.592 123.281,134.800 123.343,134.800 123.576 C 134.800 123.966,134.518 124.048,132.800 124.161 C 132.470 124.183,132.290 124.295,132.400 124.410 C 132.790 124.819,131.409 125.927,130.963 125.563 C 130.368 125.077,129.909 125.609,130.407 126.209 C 130.704 126.566,130.548 126.662,129.804 126.581 C 128.888 126.480,128.621 126.835,128.724 128.014 C 128.734 128.132,128.384 128.229,127.945 128.229 C 127.196 128.229,127.190 128.196,127.850 127.714 C 128.236 127.431,128.357 127.200,128.116 127.200 C 127.876 127.200,127.005 127.875,126.180 128.700 C 125.355 129.525,124.559 130.200,124.411 130.200 C 124.118 130.200,123.336 130.969,122.400 132.178 C 121.927 132.790,121.919 132.882,122.362 132.615 C 122.743 132.385,122.832 132.425,122.638 132.738 C 122.481 132.992,121.943 133.200,121.443 133.200 C 120.261 133.200,119.896 133.592,120.452 134.263 C 120.794 134.675,120.747 134.800,120.249 134.800 C 119.892 134.800,119.597 134.575,119.594 134.300 C 119.590 133.967,119.459 134.001,119.203 134.400 C 118.991 134.730,118.902 135.360,119.005 135.800 C 119.108 136.240,119.091 136.380,118.967 136.112 C 118.789 135.727,118.629 135.727,118.213 136.112 C 117.922 136.380,117.732 136.690,117.790 136.800 C 117.849 136.910,117.437 137.450,116.875 138.000 C 116.313 138.550,116.077 138.699,116.350 138.331 C 116.777 137.755,116.734 137.692,116.037 137.874 C 115.592 137.991,115.267 138.223,115.314 138.390 C 115.361 138.557,114.950 139.092,114.400 139.578 C 113.850 140.063,113.670 140.344,114.000 140.200 C 114.330 140.056,114.203 140.290,113.717 140.720 C 113.231 141.149,112.961 141.642,113.117 141.814 C 113.273 141.986,113.076 142.011,112.679 141.868 C 112.249 141.714,112.057 141.769,112.203 142.005 C 112.337 142.222,112.177 142.400,111.847 142.400 C 111.517 142.400,111.137 142.578,111.003 142.795 C 110.863 143.022,111.023 143.089,111.379 142.953 C 112.272 142.610,112.146 143.494,111.232 143.983 C 110.675 144.281,110.404 144.258,110.244 143.897 C 110.098 143.567,110.035 143.602,110.059 144.000 C 110.149 145.504,110.014 145.838,109.576 145.200 C 109.234 144.701,109.175 144.735,109.228 145.400 C 109.358 147.021,109.224 147.262,108.350 146.984 C 107.753 146.795,107.586 146.854,107.790 147.184 C 107.966 147.469,107.768 147.736,107.287 147.861 C 106.760 147.999,106.556 148.311,106.681 148.789 C 106.785 149.186,106.682 149.626,106.452 149.768 C 106.223 149.910,106.139 150.297,106.267 150.629 C 106.394 150.961,106.341 151.204,106.149 151.169 C 105.249 151.005,104.733 151.250,104.926 151.750 C 105.056 152.091,104.882 152.281,104.468 152.250 C 104.101 152.223,103.839 152.406,103.886 152.657 C 103.933 152.908,103.513 153.609,102.953 154.213 C 102.343 154.871,102.099 155.414,102.346 155.567 C 102.608 155.728,102.622 156.036,102.385 156.411 C 102.133 156.809,102.010 156.838,102.006 156.500 C 102.003 156.225,101.820 156.000,101.600 156.000 C 101.380 156.000,101.200 156.281,101.200 156.624 C 101.200 156.967,101.020 157.136,100.800 157.000 C 100.407 156.757,100.238 157.518,100.379 158.900 C 100.418 159.285,100.259 159.600,100.025 159.600 C 99.791 159.600,99.600 159.390,99.600 159.133 C 99.600 158.877,99.484 158.782,99.343 158.924 C 99.202 159.065,99.314 159.455,99.592 159.790 C 100.007 160.290,99.990 160.400,99.498 160.400 C 98.437 160.400,97.883 161.433,98.412 162.423 C 98.699 162.959,98.718 163.196,98.460 163.037 C 97.960 162.728,97.057 164.245,97.405 164.808 C 97.538 165.024,97.347 165.200,96.981 165.200 C 96.563 165.200,96.397 165.416,96.537 165.780 C 96.693 166.188,96.567 166.286,96.110 166.110 C 95.628 165.925,95.526 166.030,95.714 166.519 C 95.852 166.881,95.732 167.411,95.446 167.697 C 94.542 168.601,94.093 169.764,94.219 170.876 C 94.285 171.468,94.098 172.153,93.802 172.399 C 93.371 172.756,93.299 172.660,93.443 171.923 C 93.612 171.052,93.598 171.056,93.190 171.993 C 92.878 172.708,92.879 173.026,93.195 173.132 C 93.440 173.213,93.257 173.603,92.780 174.018 C 92.310 174.425,92.036 174.935,92.170 175.151 C 92.304 175.368,92.230 175.658,92.007 175.796 C 91.783 175.934,91.600 176.227,91.600 176.447 C 91.600 176.667,91.750 176.755,91.933 176.641 C 92.117 176.528,92.267 176.697,92.267 177.018 C 92.267 177.338,92.037 177.600,91.757 177.600 C 91.477 177.600,91.117 177.811,90.958 178.068 C 90.770 178.372,90.878 178.456,91.268 178.306 C 91.619 178.171,91.867 178.302,91.867 178.621 C 91.867 178.920,91.697 179.060,91.490 178.932 C 91.271 178.797,91.227 179.055,91.385 179.552 C 91.569 180.132,91.461 180.479,91.045 180.638 C 90.600 180.809,90.501 181.204,90.680 182.098 C 90.854 182.971,90.792 183.242,90.462 183.039 C 90.185 182.867,90.000 183.012,90.000 183.400 C 90.000 183.756,89.820 183.936,89.600 183.800 C 89.380 183.664,89.200 183.743,89.200 183.976 C 89.200 184.209,89.504 184.400,89.875 184.400 C 90.443 184.400,90.410 184.531,89.672 185.219 C 88.946 185.895,88.870 186.184,89.236 186.867 C 89.581 187.512,89.569 187.628,89.182 187.389 C 88.818 187.164,88.738 187.362,88.884 188.128 C 88.994 188.704,88.943 189.088,88.770 188.981 C 88.597 188.874,88.342 188.970,88.204 189.193 C 88.066 189.417,88.203 189.600,88.510 189.600 C 89.226 189.600,89.237 190.700,88.524 190.974 C 88.153 191.116,88.065 191.521,88.249 192.251 C 88.409 192.892,88.364 193.225,88.136 193.084 C 87.914 192.947,87.770 193.617,87.790 194.690 C 87.810 195.703,87.616 196.727,87.361 196.966 C 87.069 197.238,87.017 197.720,87.222 198.259 C 87.402 198.731,87.441 199.226,87.309 199.358 C 87.177 199.490,87.097 200.318,87.132 201.199 C 87.166 202.092,87.008 202.800,86.774 202.800 C 86.542 202.800,86.461 202.976,86.594 203.190 C 86.726 203.405,86.838 205.065,86.842 206.879 C 86.846 208.693,87.044 210.412,87.281 210.698 C 87.607 211.091,87.571 211.164,87.134 210.996 C 86.648 210.810,86.601 211.208,86.838 213.487 C 86.993 214.979,87.046 216.321,86.955 216.470 C 86.864 216.618,87.107 216.822,87.495 216.923 C 88.161 217.097,88.160 217.110,87.486 217.154 C 86.885 217.193,86.844 217.334,87.226 218.048 C 87.538 218.632,87.544 218.813,87.244 218.627 C 86.973 218.460,86.899 218.592,87.047 218.979 C 87.178 219.321,87.434 219.600,87.615 219.600 C 87.796 219.600,87.884 220.500,87.810 221.600 C 87.736 222.700,87.812 223.600,87.979 223.600 C 88.145 223.600,88.242 224.408,88.194 225.395 C 88.141 226.483,88.313 227.362,88.630 227.625 C 88.917 227.863,89.054 228.315,88.933 228.629 C 88.810 228.950,88.952 229.203,89.257 229.206 C 89.714 229.211,89.714 229.267,89.257 229.556 C 88.841 229.820,88.828 229.970,89.200 230.200 C 89.577 230.433,89.572 230.570,89.178 230.814 C 88.779 231.060,88.802 231.260,89.288 231.745 C 89.627 232.084,89.986 232.280,90.086 232.181 C 90.185 232.081,90.267 232.253,90.267 232.562 C 90.267 232.871,90.027 233.032,89.733 232.919 C 89.440 232.807,89.200 232.914,89.200 233.157 C 89.200 233.401,89.459 233.600,89.776 233.600 C 90.620 233.600,90.942 234.347,90.385 235.018 C 90.006 235.475,90.010 235.600,90.401 235.600 C 90.734 235.600,90.826 235.972,90.676 236.719 C 90.388 238.159,91.008 239.293,91.594 238.400 C 91.902 237.931,91.989 238.042,91.994 238.914 C 91.997 239.527,92.260 240.427,92.577 240.914 C 92.902 241.413,93.100 242.469,93.030 243.332 C 92.936 244.498,93.144 245.147,93.897 246.043 C 94.499 246.758,94.808 247.524,94.685 247.995 C 94.574 248.422,94.742 248.986,95.059 249.249 C 95.377 249.513,95.555 249.939,95.456 250.197 C 95.357 250.456,95.512 250.667,95.800 250.667 C 96.095 250.667,96.237 250.390,96.124 250.033 C 95.966 249.530,96.005 249.512,96.313 249.944 C 96.527 250.244,96.607 250.874,96.492 251.344 C 96.376 251.815,96.426 252.068,96.602 251.906 C 97.215 251.342,98.069 253.633,97.504 254.331 C 97.107 254.822,97.106 254.890,97.500 254.653 C 97.808 254.468,98.000 254.575,98.000 254.934 C 98.000 255.253,98.296 255.628,98.657 255.767 C 99.019 255.905,99.202 256.132,99.063 256.270 C 98.925 256.408,99.125 256.764,99.506 257.061 C 100.163 257.573,100.163 257.589,99.500 257.358 C 98.741 257.094,98.609 257.479,99.161 258.351 C 99.365 258.672,99.722 258.772,100.017 258.589 C 100.347 258.386,100.424 258.438,100.238 258.738 C 99.991 259.137,100.417 259.362,101.241 259.267 C 101.373 259.252,101.397 259.681,101.294 260.220 C 101.181 260.810,101.294 261.200,101.577 261.200 C 101.836 261.200,101.936 261.380,101.800 261.600 C 101.664 261.820,101.878 262.003,102.276 262.006 C 102.891 262.011,102.910 262.071,102.400 262.406 C 101.899 262.735,101.949 262.841,102.700 263.047 C 103.195 263.182,103.600 263.463,103.600 263.670 C 103.600 263.878,103.422 263.937,103.205 263.803 C 102.981 263.665,102.909 263.818,103.038 264.154 C 103.176 264.514,103.530 264.651,103.933 264.500 C 104.500 264.288,104.522 264.346,104.081 264.889 C 103.644 265.427,103.691 265.618,104.378 266.100 C 104.827 266.414,105.085 266.782,104.950 266.916 C 104.816 267.051,105.165 267.276,105.726 267.417 C 106.408 267.588,106.672 267.868,106.521 268.261 C 106.382 268.624,106.590 268.925,107.068 269.050 C 107.492 269.161,108.053 269.593,108.314 270.011 C 108.706 270.639,108.686 270.731,108.194 270.542 C 107.867 270.417,107.600 270.514,107.600 270.757 C 107.600 271.144,108.412 271.382,109.286 271.252 C 109.443 271.229,109.457 271.507,109.318 271.870 C 109.178 272.234,109.230 272.430,109.432 272.307 C 109.634 272.183,110.121 272.510,110.513 273.034 C 111.197 273.946,111.197 273.974,110.513 273.728 C 109.959 273.529,110.017 273.709,110.770 274.536 C 111.303 275.121,111.933 275.586,112.170 275.568 C 112.406 275.551,112.375 275.446,112.100 275.335 C 111.530 275.105,111.420 274.400,111.954 274.400 C 112.713 274.400,113.723 276.476,113.142 276.844 C 112.602 277.186,113.179 277.408,114.149 277.231 C 114.341 277.196,114.390 277.450,114.257 277.795 C 114.080 278.256,114.338 278.488,115.222 278.664 C 115.885 278.797,116.346 278.987,116.247 279.087 C 115.956 279.377,117.309 280.780,117.667 280.559 C 117.845 280.449,117.883 280.640,117.751 280.984 C 117.567 281.462,117.686 281.543,118.255 281.330 C 118.936 281.074,118.948 281.115,118.400 281.800 C 117.857 282.479,117.865 282.525,118.487 282.292 C 118.865 282.151,119.298 282.235,119.449 282.479 C 119.615 282.748,119.541 282.811,119.262 282.638 C 119.008 282.481,118.800 282.543,118.800 282.776 C 118.800 283.360,119.896 283.312,120.093 282.720 C 120.192 282.425,120.357 282.510,120.522 282.941 C 120.700 283.404,120.639 283.548,120.344 283.365 C 120.089 283.208,119.966 283.298,120.058 283.574 C 120.147 283.841,120.395 284.057,120.610 284.054 C 120.825 284.050,121.144 284.438,121.321 284.914 C 121.587 285.634,121.705 285.681,122.021 285.190 C 122.332 284.706,122.445 284.764,122.650 285.511 C 122.833 286.179,123.099 286.359,123.650 286.184 C 124.245 285.995,124.400 286.150,124.400 286.930 C 124.400 287.472,124.661 288.014,124.980 288.137 C 125.310 288.264,125.510 288.153,125.445 287.880 C 125.382 287.616,125.407 287.536,125.500 287.702 C 125.592 287.869,125.831 287.905,126.030 287.782 C 126.228 287.659,126.284 287.838,126.153 288.179 C 126.022 288.521,126.114 288.800,126.357 288.800 C 126.601 288.800,126.800 288.609,126.800 288.376 C 126.800 288.143,126.989 288.069,127.219 288.212 C 127.510 288.391,127.504 288.634,127.200 289.000 C 126.648 289.666,127.266 290.103,128.233 289.732 C 128.768 289.527,128.880 289.616,128.695 290.097 C 128.549 290.477,128.700 290.830,129.070 290.971 C 129.498 291.136,129.620 291.029,129.465 290.625 C 129.323 290.254,129.432 290.114,129.763 290.241 C 130.050 290.351,130.236 290.892,130.176 291.443 C 130.085 292.266,130.166 292.360,130.633 291.973 C 131.083 291.599,131.200 291.636,131.200 292.151 C 131.200 292.508,131.374 292.800,131.587 292.800 C 131.801 292.800,131.877 292.485,131.757 292.100 C 131.554 291.446,131.569 291.446,131.994 292.108 C 132.249 292.505,132.659 292.691,132.925 292.532 C 133.186 292.375,133.130 292.580,132.800 292.988 C 132.238 293.681,132.273 293.715,133.332 293.514 C 134.146 293.359,134.533 293.481,134.711 293.949 C 135.099 294.966,136.123 295.911,137.000 296.062 C 137.440 296.138,138.036 296.470,138.325 296.800 C 138.722 297.253,138.901 297.278,139.057 296.903 C 139.349 296.203,140.743 296.999,141.197 298.126 C 141.474 298.813,141.555 298.850,141.575 298.300 C 141.602 297.556,142.202 297.356,142.579 297.966 C 142.703 298.167,142.588 298.404,142.323 298.492 C 142.018 298.594,142.091 298.749,142.520 298.914 C 142.894 299.058,143.200 299.001,143.200 298.787 C 143.200 298.574,143.380 298.400,143.600 298.400 C 143.820 298.400,144.000 298.670,144.000 299.000 C 144.000 299.333,144.356 299.600,144.800 299.600 C 145.240 299.600,145.600 299.788,145.600 300.018 C 145.600 300.247,145.915 300.382,146.300 300.318 C 146.732 300.245,146.953 300.417,146.877 300.768 C 146.776 301.235,146.864 301.245,147.373 300.823 C 147.884 300.399,148.033 300.421,148.237 300.953 C 148.373 301.306,148.609 301.518,148.761 301.424 C 148.913 301.330,149.300 301.418,149.619 301.620 C 150.123 301.939,150.120 301.993,149.600 302.028 C 149.270 302.051,149.529 302.227,150.176 302.420 C 150.913 302.640,151.535 302.620,151.841 302.366 C 152.167 302.095,152.411 302.094,152.577 302.363 C 152.714 302.584,153.111 302.656,153.459 302.522 C 154.011 302.310,154.027 302.402,153.581 303.239 C 153.099 304.144,153.111 304.165,153.800 303.600 C 154.359 303.141,154.570 303.118,154.699 303.502 C 154.792 303.779,155.064 303.884,155.302 303.737 C 155.578 303.566,155.643 303.711,155.481 304.134 C 155.340 304.500,155.399 304.800,155.613 304.800 C 155.826 304.800,156.000 304.530,156.000 304.200 C 156.000 303.383,156.978 303.442,157.651 304.300 C 158.149 304.934,158.134 304.949,157.500 304.451 C 157.042 304.092,156.800 304.057,156.800 304.351 C 156.800 304.598,156.935 304.823,157.100 304.851 C 160.554 305.439,161.368 305.467,161.694 305.011 C 161.883 304.746,161.990 304.773,161.994 305.087 C 161.997 305.357,162.270 305.471,162.605 305.343 C 163.060 305.168,163.140 305.294,162.930 305.855 C 162.674 306.536,162.715 306.548,163.402 306.000 C 163.815 305.670,164.024 305.616,163.866 305.880 C 163.694 306.166,163.931 306.549,164.449 306.826 C 165.195 307.225,165.285 307.199,165.073 306.647 C 164.737 305.771,165.429 305.826,166.077 306.725 C 166.371 307.132,167.126 307.463,167.800 307.479 C 168.460 307.494,169.675 307.617,170.500 307.751 C 171.557 307.923,172.004 307.848,172.012 307.498 C 172.019 307.224,172.220 307.337,172.459 307.748 C 172.795 308.327,172.967 308.378,173.216 307.974 C 173.444 307.605,173.695 307.572,174.070 307.864 C 174.867 308.483,176.083 308.857,175.797 308.395 C 175.663 308.178,175.248 307.986,174.876 307.968 C 174.497 307.951,174.410 307.851,174.678 307.742 C 174.941 307.636,175.526 307.746,175.978 307.988 C 176.528 308.283,176.800 308.291,176.800 308.014 C 176.800 307.786,176.974 307.600,177.187 307.600 C 177.401 307.600,177.471 307.870,177.345 308.200 C 177.218 308.530,177.314 308.800,177.557 308.800 C 177.801 308.800,178.003 308.575,178.006 308.300 C 178.010 307.990,178.124 307.952,178.306 308.200 C 178.468 308.420,178.960 308.662,179.400 308.738 C 179.840 308.814,180.429 309.064,180.709 309.295 C 181.085 309.603,181.163 309.567,181.006 309.157 C 180.832 308.700,181.654 308.600,185.560 308.600 C 188.181 308.600,190.118 308.735,189.863 308.899 C 189.439 309.174,191.524 308.937,192.700 308.578 C 192.975 308.494,193.200 308.594,193.200 308.800 C 193.200 309.308,194.495 308.790,195.039 308.064 C 195.355 307.643,195.558 307.608,195.763 307.939 C 195.919 308.193,195.827 308.400,195.557 308.400 C 195.287 308.400,195.173 308.506,195.303 308.637 C 195.433 308.767,195.937 308.747,196.423 308.593 C 196.932 308.431,197.125 308.201,196.879 308.049 C 196.644 307.904,197.180 307.766,198.069 307.743 C 199.076 307.716,199.482 307.825,199.147 308.032 C 198.769 308.266,198.867 308.345,199.477 308.299 C 199.954 308.263,200.268 308.110,200.175 307.959 C 200.081 307.808,200.294 307.573,200.647 307.437 C 201.123 307.255,201.224 307.362,201.035 307.852 C 200.827 308.394,200.887 308.426,201.365 308.029 C 201.770 307.693,202.175 307.666,202.687 307.940 C 203.244 308.238,203.668 308.138,204.413 307.533 C 204.956 307.092,205.147 306.864,204.838 307.027 C 204.452 307.231,204.372 307.169,204.583 306.827 C 204.804 306.469,205.012 306.452,205.325 306.765 C 205.999 307.439,207.200 307.284,207.200 306.524 C 207.200 305.930,207.278 305.943,207.833 306.624 C 208.438 307.366,208.455 307.367,208.223 306.643 C 208.022 306.012,208.080 305.968,208.573 306.378 C 209.160 306.865,210.176 306.608,209.836 306.058 C 209.738 305.900,209.992 305.771,210.400 305.771 C 210.808 305.771,211.043 305.931,210.922 306.126 C 210.802 306.320,211.062 306.288,211.499 306.054 C 211.937 305.820,212.418 305.751,212.569 305.902 C 212.719 306.052,212.714 305.841,212.557 305.433 C 212.310 304.788,212.436 304.714,213.515 304.873 C 214.199 304.973,214.667 304.908,214.555 304.728 C 214.240 304.218,214.978 304.342,215.579 304.900 C 216.015 305.305,216.056 305.292,215.793 304.832 C 215.548 304.402,215.642 304.330,216.179 304.537 C 216.707 304.739,216.829 304.654,216.657 304.205 C 216.516 303.838,216.651 303.600,217.000 303.600 C 217.365 303.600,217.494 303.856,217.354 304.300 C 217.173 304.873,217.268 304.849,217.872 304.172 C 218.855 303.071,221.383 302.145,221.053 303.007 C 220.767 303.750,221.089 303.768,221.810 303.048 C 222.113 302.744,222.250 302.384,222.114 302.248 C 221.978 302.111,222.332 302.000,222.901 302.000 C 224.270 302.000,225.249 301.603,224.974 301.158 C 224.852 300.961,225.134 300.800,225.600 300.800 C 226.139 300.800,226.343 300.968,226.162 301.262 C 225.981 301.555,226.053 301.615,226.358 301.426 C 226.717 301.204,226.724 300.991,226.388 300.585 C 226.022 300.144,226.139 300.078,227.009 300.236 C 227.599 300.343,228.325 300.228,228.623 299.981 C 228.921 299.733,229.354 299.648,229.586 299.791 C 229.817 299.934,230.174 299.635,230.378 299.126 C 230.592 298.592,230.766 298.454,230.789 298.800 C 230.814 299.177,231.041 299.028,231.400 298.400 C 231.714 297.850,231.978 297.625,231.986 297.900 C 231.994 298.175,232.270 298.400,232.600 298.400 C 233.137 298.400,233.374 297.933,233.252 297.114 C 233.229 296.957,233.485 296.934,233.821 297.063 C 234.158 297.193,234.380 297.141,234.316 296.949 C 234.252 296.757,234.380 296.600,234.600 296.600 C 234.820 296.600,234.950 296.751,234.888 296.936 C 234.827 297.120,235.324 296.882,235.993 296.405 C 236.662 295.929,237.118 295.391,237.007 295.211 C 236.896 295.031,237.064 294.784,237.382 294.662 C 237.781 294.509,237.885 294.634,237.719 295.067 C 237.518 295.591,237.615 295.620,238.317 295.244 C 239.351 294.691,239.817 294.000,239.157 294.000 C 238.887 294.000,238.782 293.884,238.924 293.743 C 239.065 293.602,239.490 293.737,239.867 294.043 C 240.245 294.349,240.427 294.390,240.273 294.132 C 239.854 293.433,241.013 292.490,242.140 292.613 C 242.849 292.691,243.187 292.493,243.340 291.909 C 243.483 291.360,243.762 291.176,244.197 291.343 C 244.551 291.480,244.743 291.432,244.624 291.238 C 244.504 291.044,244.838 290.777,245.366 290.644 C 246.112 290.457,246.282 290.202,246.128 289.502 C 246.011 288.967,246.067 288.781,246.265 289.045 C 246.607 289.501,248.083 289.199,248.030 288.684 C 247.906 287.496,248.035 287.035,248.351 287.534 C 248.537 287.828,248.827 288.068,248.995 288.067 C 249.498 288.065,250.774 285.881,250.515 285.463 C 250.384 285.250,250.484 285.205,250.738 285.362 C 250.992 285.519,251.200 285.437,251.200 285.181 C 251.200 284.924,251.475 284.820,251.812 284.949 C 252.211 285.103,252.581 284.840,252.875 284.195 C 253.209 283.461,253.456 283.314,253.831 283.625 C 254.209 283.939,254.309 283.865,254.231 283.331 C 254.108 282.493,254.702 281.812,255.882 281.438 C 256.346 281.290,256.827 280.906,256.950 280.585 C 257.074 280.263,257.438 280.000,257.760 280.000 C 258.083 280.000,258.460 279.640,258.600 279.200 C 258.740 278.760,259.112 278.400,259.427 278.400 C 259.742 278.400,260.000 278.130,260.000 277.800 C 260.000 277.470,260.157 277.200,260.348 277.200 C 260.539 277.200,260.674 276.795,260.648 276.300 C 260.619 275.766,260.844 275.378,261.200 275.346 C 261.530 275.317,262.115 275.272,262.500 275.246 C 263.231 275.198,263.289 274.413,262.600 273.906 C 262.356 273.727,262.404 273.610,262.724 273.606 C 263.012 273.603,263.137 273.422,263.003 273.205 C 262.863 272.978,263.023 272.911,263.379 273.047 C 263.768 273.197,264.000 273.064,264.000 272.692 C 264.000 272.365,264.305 271.851,264.677 271.549 C 265.260 271.076,265.306 271.083,265.008 271.600 C 264.792 271.975,264.988 271.914,265.531 271.438 C 266.502 270.587,266.741 270.019,265.800 270.800 C 265.401 271.131,265.200 271.151,265.200 270.859 C 265.200 270.618,265.740 270.141,266.400 269.800 C 267.060 269.459,267.600 268.954,267.600 268.679 C 267.600 268.403,267.974 267.858,268.431 267.467 C 269.095 266.897,269.165 266.640,268.782 266.178 C 268.343 265.649,268.525 265.430,269.300 265.553 C 269.465 265.579,269.579 265.465,269.553 265.300 C 269.435 264.553,269.635 264.000,270.024 264.000 C 270.257 264.000,270.355 264.150,270.241 264.333 C 270.128 264.517,270.262 264.667,270.539 264.667 C 270.858 264.667,270.984 264.272,270.883 263.584 C 270.795 262.983,270.963 262.307,271.262 262.063 C 273.217 260.464,274.000 259.643,274.000 259.192 C 274.000 258.844,273.735 258.916,273.183 259.416 C 272.488 260.044,272.404 260.056,272.620 259.493 C 272.760 259.129,273.230 258.717,273.666 258.579 C 274.151 258.425,274.371 258.101,274.234 257.743 C 274.110 257.422,274.175 257.261,274.377 257.386 C 274.579 257.511,274.858 257.430,274.996 257.207 C 275.134 256.983,275.012 256.789,274.724 256.775 C 274.436 256.761,274.626 256.579,275.146 256.371 C 275.928 256.057,276.006 255.889,275.597 255.396 C 275.192 254.908,275.225 254.800,275.778 254.800 C 276.285 254.800,276.387 254.588,276.184 253.950 C 276.002 253.375,276.059 253.189,276.360 253.375 C 276.803 253.649,277.173 253.066,277.359 251.799 C 277.412 251.434,277.652 251.015,277.891 250.867 C 278.131 250.719,278.453 249.924,278.608 249.099 C 278.762 248.275,279.049 247.600,279.245 247.600 C 279.440 247.600,279.600 247.229,279.600 246.776 C 279.600 246.224,279.765 246.052,280.100 246.253 C 280.413 246.441,280.380 246.263,280.013 245.777 C 279.690 245.350,279.577 245.126,279.761 245.281 C 280.156 245.613,280.929 244.907,281.332 243.843 C 281.587 243.170,281.541 243.147,280.909 243.637 C 280.244 244.152,280.240 244.137,280.839 243.393 C 281.741 242.275,281.999 241.371,281.565 240.852 C 281.361 240.607,281.306 240.487,281.444 240.584 C 281.850 240.871,282.875 239.644,282.600 239.200 C 282.462 238.977,282.629 238.687,282.971 238.556 C 283.404 238.389,283.486 238.125,283.240 237.686 C 283.008 237.271,283.082 236.861,283.457 236.485 C 283.910 236.033,283.927 235.794,283.540 235.327 C 283.205 234.924,283.184 234.654,283.474 234.470 C 283.706 234.321,283.844 233.722,283.780 233.138 C 283.698 232.399,283.876 232.021,284.365 231.893 C 285.180 231.680,285.325 230.400,284.533 230.400 C 283.915 230.400,283.812 229.363,284.395 229.003 C 284.622 228.863,284.689 229.023,284.553 229.379 C 284.422 229.721,284.474 230.000,284.670 230.000 C 284.865 230.000,285.228 229.460,285.478 228.800 C 285.864 227.777,285.836 227.600,285.289 227.600 C 284.761 227.600,284.785 227.496,285.424 227.013 C 285.851 226.690,286.059 226.420,285.886 226.413 C 285.713 226.406,285.788 225.995,286.051 225.500 C 286.464 224.726,286.449 224.667,285.947 225.081 C 285.459 225.484,285.374 225.385,285.430 224.481 C 285.532 222.832,285.570 222.734,286.000 223.000 C 286.220 223.136,286.400 222.956,286.400 222.600 C 286.400 222.185,286.221 222.063,285.900 222.261 C 285.625 222.430,285.715 222.087,286.100 221.499 C 286.485 220.910,286.797 220.287,286.794 220.114 C 286.791 219.941,286.613 220.070,286.400 220.400 C 286.167 220.761,286.010 220.810,286.006 220.524 C 286.003 220.262,286.199 219.924,286.443 219.774 C 286.751 219.583,286.721 219.396,286.343 219.156 C 285.920 218.889,285.956 218.811,286.502 218.806 C 287.108 218.801,287.176 218.517,286.995 216.750 C 286.865 215.481,286.962 214.487,287.249 214.141 C 287.625 213.688,287.576 213.634,286.996 213.857 C 286.283 214.131,286.274 202.780,286.985 199.600 C 287.108 199.050,287.102 198.825,286.971 199.100 C 286.840 199.375,286.548 199.600,286.321 199.600 C 286.092 199.600,286.176 199.192,286.509 198.683 C 287.149 197.706,286.504 195.600,285.564 195.600 C 285.338 195.600,285.276 195.401,285.426 195.157 C 285.617 194.849,285.804 194.879,286.044 195.257 C 286.312 195.680,286.389 195.645,286.394 195.100 C 286.397 194.715,286.110 194.400,285.757 194.400 C 285.108 194.400,285.110 194.345,285.844 191.700 C 286.000 191.135,285.918 190.800,285.623 190.800 C 285.360 190.800,285.280 191.020,285.441 191.300 C 285.599 191.575,285.574 191.660,285.386 191.488 C 284.837 190.989,284.806 189.876,285.323 189.237 C 285.708 188.760,285.691 188.712,285.232 188.989 C 284.800 189.249,284.729 189.163,284.933 188.630 C 285.288 187.706,284.819 186.933,284.344 187.657 C 284.125 187.992,284.080 187.509,284.227 186.400 C 284.403 185.067,284.354 184.756,284.038 185.200 C 283.671 185.718,283.611 185.704,283.606 185.100 C 283.603 184.715,283.780 184.400,284.000 184.400 C 284.220 184.400,284.400 184.220,284.400 184.000 C 284.400 183.780,284.124 183.600,283.786 183.600 C 283.284 183.600,283.255 183.445,283.626 182.752 C 283.995 182.062,283.931 181.703,283.281 180.825 C 282.738 180.090,282.553 179.381,282.701 178.607 C 282.886 177.637,282.813 177.510,282.203 177.744 C 281.594 177.977,281.564 177.926,282.000 177.399 C 282.283 177.059,282.389 176.655,282.235 176.502 C 282.082 176.349,281.811 176.458,281.634 176.745 C 281.395 177.132,281.254 177.051,281.093 176.434 C 280.973 175.976,281.047 175.495,281.257 175.365 C 281.495 175.218,281.482 174.940,281.223 174.628 C 280.994 174.352,280.925 174.008,281.070 173.863 C 281.215 173.718,281.011 173.600,280.618 173.600 C 280.027 173.600,279.989 173.495,280.400 173.000 C 280.808 172.509,280.780 172.400,280.249 172.400 C 279.892 172.400,279.600 172.209,279.600 171.976 C 279.600 171.743,279.780 171.664,280.000 171.800 C 280.453 172.080,280.519 171.575,280.153 170.623 C 279.949 170.091,279.797 170.068,279.277 170.490 C 278.789 170.884,278.715 170.887,278.947 170.500 C 279.116 170.219,279.051 170.000,278.800 170.000 C 278.554 170.000,278.466 169.817,278.604 169.593 C 278.742 169.370,279.068 169.300,279.328 169.437 C 279.587 169.575,279.260 169.225,278.600 168.658 C 277.940 168.092,277.625 167.622,277.900 167.614 C 278.175 167.606,278.400 167.308,278.400 166.951 C 278.400 166.445,278.279 166.403,277.848 166.760 C 277.396 167.135,277.316 166.990,277.403 165.960 C 277.487 164.980,277.330 164.655,276.696 164.489 C 275.900 164.281,275.899 164.262,276.641 163.684 C 277.243 163.215,277.261 163.140,276.729 163.322 C 276.354 163.451,275.826 163.265,275.529 162.899 C 275.203 162.497,275.182 162.355,275.472 162.530 C 275.732 162.686,276.058 162.630,276.196 162.407 C 276.334 162.183,276.194 162.000,275.886 162.000 C 274.834 162.000,273.939 160.581,274.239 159.387 C 274.436 158.603,274.383 158.363,274.058 158.564 C 273.806 158.720,273.600 158.646,273.600 158.400 C 273.600 158.154,273.389 158.083,273.132 158.242 C 272.818 158.436,272.747 158.314,272.918 157.870 C 273.074 157.463,272.985 157.246,272.686 157.305 C 272.419 157.357,272.225 157.085,272.256 156.700 C 272.286 156.315,272.132 156.000,271.913 156.000 C 271.694 156.000,271.618 155.730,271.745 155.400 C 271.947 154.873,271.575 154.629,270.738 154.740 C 270.594 154.759,270.374 154.510,270.250 154.187 C 270.127 153.864,270.194 153.600,270.400 153.600 C 270.606 153.600,270.670 153.325,270.541 152.990 C 270.348 152.488,270.195 152.470,269.678 152.890 C 269.145 153.323,269.090 153.294,269.313 152.700 C 269.498 152.204,269.375 151.998,268.887 151.994 C 268.335 151.989,268.309 151.918,268.758 151.635 C 269.275 151.307,268.004 148.400,267.344 148.400 C 267.239 148.400,267.264 148.580,267.400 148.800 C 267.536 149.020,267.502 149.199,267.324 149.197 C 267.146 149.195,266.792 148.745,266.537 148.196 C 266.187 147.442,266.187 147.255,266.537 147.429 C 266.792 147.556,266.685 147.401,266.300 147.086 C 265.915 146.770,265.600 146.317,265.600 146.079 C 265.600 145.840,265.273 145.410,264.874 145.123 C 264.474 144.835,264.025 144.274,263.876 143.875 C 263.728 143.476,263.424 143.261,263.203 143.398 C 262.834 143.626,262.622 143.082,262.763 142.270 C 262.794 142.089,262.623 142.062,262.383 142.211 C 262.142 142.359,262.055 142.768,262.190 143.118 C 262.386 143.630,262.274 143.610,261.617 143.016 C 260.767 142.246,260.588 141.929,261.100 142.100 C 261.265 142.155,261.400 142.020,261.400 141.800 C 261.400 141.580,261.252 141.449,261.070 141.510 C 260.889 141.570,260.834 141.469,260.947 141.285 C 261.061 141.101,260.700 140.421,260.145 139.775 L 259.135 138.600 259.377 139.800 C 259.592 140.867,259.573 140.897,259.213 140.074 C 258.953 139.483,258.625 139.258,258.303 139.451 C 258.004 139.631,258.043 139.448,258.400 139.000 C 258.881 138.395,258.888 138.314,258.432 138.589 C 258.007 138.845,257.928 138.765,258.118 138.270 C 258.257 137.907,258.243 137.629,258.086 137.652 C 257.005 137.813,256.339 137.537,256.540 137.011 C 256.667 136.681,256.424 136.182,255.986 135.875 C 255.556 135.574,255.333 135.200,255.490 135.043 C 255.647 134.886,255.484 134.870,255.128 135.006 C 254.772 135.143,254.345 135.034,254.179 134.765 C 253.985 134.453,254.043 134.379,254.338 134.562 C 255.093 135.028,254.864 134.491,253.943 133.632 C 253.264 133.001,252.919 132.922,252.294 133.257 C 251.793 133.525,251.595 133.532,251.753 133.276 C 252.098 132.718,251.609 131.574,251.054 131.640 C 250.105 131.754,249.600 131.584,249.600 131.151 C 249.600 130.841,249.785 130.856,250.200 131.200 C 250.546 131.487,250.800 131.526,250.800 131.292 C 250.800 130.841,249.772 130.296,248.707 130.183 C 247.914 130.099,246.752 129.234,246.924 128.855 C 246.987 128.715,246.535 128.116,245.919 127.526 C 244.913 126.559,244.562 126.644,244.781 127.800 C 244.823 128.020,244.624 127.971,244.340 127.692 C 244.056 127.412,243.818 126.782,243.812 126.292 C 243.805 125.749,243.585 125.446,243.250 125.517 C 242.947 125.581,242.398 125.360,242.029 125.026 C 241.419 124.474,240.261 124.108,238.876 124.030 C 238.588 124.013,238.443 123.854,238.553 123.676 C 238.863 123.174,236.696 121.370,235.800 121.386 C 234.848 121.403,233.994 120.747,234.305 120.237 C 234.426 120.037,234.137 119.976,233.662 120.100 C 233.187 120.224,232.900 120.162,233.023 119.963 C 233.146 119.763,232.956 119.600,232.600 119.600 C 232.244 119.600,232.045 119.450,232.159 119.267 C 232.272 119.083,232.148 118.916,231.882 118.896 C 231.617 118.875,230.967 118.727,230.437 118.566 C 229.699 118.342,229.550 118.396,229.799 118.799 C 230.014 119.146,229.968 119.227,229.662 119.038 C 229.408 118.881,229.200 118.490,229.200 118.169 C 229.200 117.762,228.893 117.640,228.192 117.767 C 227.528 117.887,227.276 117.800,227.454 117.512 C 227.628 117.232,227.446 117.147,226.951 117.276 C 226.261 117.457,225.023 116.711,225.395 116.338 C 225.476 116.258,225.089 115.978,224.536 115.717 C 223.668 115.308,223.564 115.330,223.775 115.878 C 224.033 116.553,222.987 115.927,222.306 115.000 C 222.144 114.780,222.009 114.763,222.006 114.962 C 222.003 115.161,221.609 114.981,221.132 114.562 C 220.353 113.878,220.290 113.872,220.520 114.500 C 220.660 114.885,220.613 115.200,220.414 115.200 C 220.216 115.200,219.945 114.857,219.812 114.437 C 219.642 113.904,219.263 113.707,218.552 113.785 C 217.948 113.852,217.445 113.661,217.312 113.315 C 217.129 112.839,217.027 112.830,216.750 113.266 C 216.470 113.709,216.411 113.707,216.406 113.257 C 216.403 112.940,216.151 112.810,215.800 112.945 C 215.470 113.071,215.200 112.994,215.200 112.773 C 215.200 112.514,214.918 112.523,214.400 112.800 C 213.679 113.186,213.451 113.070,213.533 112.358 C 213.573 112.017,210.371 111.095,210.098 111.369 C 209.975 111.492,209.597 111.370,209.260 111.097 C 208.771 110.701,208.707 110.701,208.945 111.097 C 209.155 111.446,208.952 111.570,208.267 111.514 C 207.729 111.469,207.364 111.239,207.454 111.002 C 207.545 110.765,207.213 110.541,206.715 110.504 C 206.036 110.452,205.953 110.524,206.385 110.791 C 206.773 111.030,206.497 111.110,205.540 111.034 C 203.777 110.894,203.081 110.487,203.360 109.760 C 203.502 109.390,203.291 109.200,202.738 109.200 C 202.115 109.200,202.008 109.327,202.317 109.700 C 202.628 110.075,202.487 110.215,201.751 110.259 C 201.036 110.301,200.877 110.189,201.165 109.842 C 201.445 109.505,201.333 109.350,200.780 109.308 C 200.351 109.276,200.000 109.441,200.000 109.674 C 200.000 109.923,199.722 109.872,199.323 109.549 C 198.863 109.176,198.743 109.160,198.947 109.500 C 199.154 109.845,198.961 109.990,198.324 109.968 C 197.816 109.951,197.625 109.846,197.900 109.735 C 198.175 109.624,198.400 109.379,198.400 109.190 C 198.400 108.828,197.516 108.927,196.234 109.434 C 195.698 109.646,195.555 109.596,195.758 109.268 C 196.183 108.581,195.359 108.698,194.629 109.429 C 194.057 110.000,194.000 109.996,194.000 109.382 C 194.000 108.880,193.747 108.755,193.014 108.895 C 192.472 108.999,191.946 108.885,191.846 108.642 C 191.745 108.399,191.649 108.380,191.631 108.600 M170.147 110.886 C 170.040 111.059,169.593 111.200,169.153 111.200 C 168.713 111.200,168.440 111.059,168.547 110.886 C 168.654 110.713,169.101 110.571,169.541 110.571 C 169.981 110.571,170.254 110.713,170.147 110.886 M243.204 125.798 C 243.419 125.665,243.488 125.827,243.358 126.164 C 243.152 126.702,243.018 126.699,242.163 126.139 C 240.994 125.373,240.887 125.004,242.008 125.604 C 242.453 125.842,242.991 125.929,243.204 125.798 M236.013 165.851 C 239.025 168.668,239.912 171.122,238.706 173.305 C 238.434 173.797,225.700 186.755,210.407 202.100 L 182.602 230.000 179.816 230.000 L 177.029 230.000 164.500 217.500 C 157.609 210.625,151.868 204.595,151.742 204.100 C 151.616 203.605,151.353 203.200,151.157 203.200 C 150.098 203.200,151.222 198.290,152.576 196.995 C 156.669 193.082,158.193 193.809,169.638 205.130 L 178.676 214.070 203.509 189.278 C 217.167 175.642,228.580 164.391,228.871 164.275 C 231.146 163.365,234.038 164.004,236.013 165.851 M207.114 173.500 L 207.000 177.800 176.456 178.000 L 145.912 178.200 144.756 179.585 L 143.600 180.970 143.600 211.262 C 143.600 244.710,143.536 243.860,146.114 244.552 C 146.601 244.682,160.817 244.792,177.704 244.795 L 208.407 244.800 209.604 243.657 L 210.800 242.513 210.800 226.857 L 210.800 211.200 215.200 211.200 L 219.600 211.200 219.600 227.605 C 219.600 236.628,219.446 244.323,219.259 244.705 C 219.071 245.087,218.576 246.106,218.159 246.968 C 217.278 248.789,214.562 251.626,212.695 252.673 C 211.476 253.357,209.421 253.406,177.878 253.509 C 141.486 253.627,142.898 253.701,140.162 251.529 C 138.705 250.372,136.800 248.215,136.800 247.722 C 136.800 247.435,136.628 247.200,136.418 247.200 C 136.208 247.200,135.918 246.568,135.773 245.796 C 135.628 245.023,135.350 244.293,135.155 244.172 C 134.645 243.857,134.690 179.315,135.200 179.000 C 135.420 178.864,135.600 178.446,135.600 178.070 C 135.600 175.847,138.946 171.995,142.296 170.363 L 144.600 169.240 175.914 169.220 L 207.227 169.200 207.114 173.500 " stroke="none" fill="#24bcac" fill-rule="evenodd"></path><path id="path3" d="M220.596 172.500 L 213.400 179.800 220.700 172.604 C 227.482 165.919,228.181 165.200,227.896 165.200 C 227.839 165.200,224.554 168.485,220.596 172.500 M161.100 169.500 C 169.515 169.560,183.285 169.560,191.700 169.500 C 200.115 169.440,193.230 169.390,176.400 169.390 C 159.570 169.390,152.685 169.440,161.100 169.500 M238.509 171.200 C 238.509 172.190,238.587 172.595,238.682 172.100 C 238.778 171.605,238.778 170.795,238.682 170.300 C 238.587 169.805,238.509 170.210,238.509 171.200 M161.270 177.900 C 169.559 177.960,183.239 177.960,191.670 177.900 C 200.102 177.840,193.320 177.790,176.600 177.790 C 159.880 177.790,152.982 177.839,161.270 177.900 M195.798 197.300 L 178.600 214.600 195.900 197.402 C 211.980 181.417,213.380 180.000,213.098 180.000 C 213.042 180.000,205.257 187.785,195.798 197.300 M134.990 211.600 C 134.990 228.210,135.039 235.005,135.100 226.700 C 135.160 218.395,135.160 204.805,135.100 196.500 C 135.039 188.195,134.990 194.990,134.990 211.600 M143.390 211.600 C 143.390 228.210,143.439 235.005,143.500 226.700 C 143.560 218.395,143.560 204.805,143.500 196.500 C 143.439 188.195,143.390 194.990,143.390 211.600 M156.500 195.476 C 156.885 195.576,157.515 195.576,157.900 195.476 C 158.285 195.375,157.970 195.293,157.200 195.293 C 156.430 195.293,156.115 195.375,156.500 195.476 M169.200 205.400 C 174.146 210.350,178.283 214.400,178.393 214.400 C 178.503 214.400,174.546 210.350,169.600 205.400 C 164.654 200.450,160.517 196.400,160.407 196.400 C 160.297 196.400,164.254 200.450,169.200 205.400 M162.600 215.200 C 165.894 218.500,168.680 221.200,168.790 221.200 C 168.900 221.200,166.294 218.500,163.000 215.200 C 159.706 211.900,156.920 209.200,156.810 209.200 C 156.700 209.200,159.306 211.900,162.600 215.200 M210.988 211.687 C 210.879 211.971,210.840 219.042,210.900 227.401 L 211.010 242.600 211.105 227.100 L 211.200 211.600 215.195 211.600 L 219.191 211.600 219.303 227.300 L 219.414 243.000 219.407 227.200 L 219.400 211.400 215.293 211.286 C 212.226 211.201,211.136 211.302,210.988 211.687 M170.600 223.200 C 171.459 224.080,172.252 224.800,172.362 224.800 C 172.472 224.800,171.859 224.080,171.000 223.200 C 170.141 222.320,169.348 221.600,169.238 221.600 C 169.128 221.600,169.741 222.320,170.600 223.200 M175.246 227.700 C 176.497 228.965,177.763 229.995,178.060 229.988 C 178.365 229.981,178.251 229.785,177.800 229.537 C 177.360 229.296,176.094 228.267,174.986 227.249 C 173.196 225.606,173.225 225.656,175.246 227.700 M162.070 245.500 C 170.359 245.560,184.039 245.560,192.470 245.500 C 200.902 245.440,194.120 245.390,177.400 245.390 C 160.680 245.390,153.782 245.439,162.070 245.500 " stroke="none" fill="#8cccc4" fill-rule="evenodd"></path><path id="path4" d="M181.773 108.444 C 181.652 108.640,181.608 108.806,181.676 108.813 C 184.675 109.130,191.600 108.899,191.600 108.482 C 191.600 107.872,182.149 107.835,181.773 108.444 M175.086 109.480 C 175.249 109.905,175.407 109.980,175.507 109.680 C 175.718 109.045,177.477 109.061,177.735 109.700 C 177.856 109.999,177.950 109.918,177.968 109.500 C 177.993 108.946,177.670 108.800,176.413 108.800 C 175.083 108.800,174.867 108.910,175.086 109.480 M198.084 109.409 C 197.650 109.906,197.701 110.000,198.408 110.000 C 198.973 110.000,199.149 109.837,198.947 109.500 C 198.774 109.212,198.961 109.254,199.388 109.600 C 200.048 110.133,200.108 110.133,199.932 109.600 C 199.663 108.786,198.713 108.688,198.084 109.409 M172.000 109.576 C 172.000 110.216,172.808 110.491,173.354 110.038 C 173.640 109.801,173.992 109.725,174.137 109.870 C 174.282 110.015,174.400 109.923,174.400 109.667 C 174.400 109.410,173.860 109.200,173.200 109.200 C 172.540 109.200,172.000 109.369,172.000 109.576 M200.933 109.799 C 200.933 110.078,201.344 110.283,201.846 110.254 C 202.416 110.220,202.618 110.059,202.384 109.824 C 201.806 109.246,200.933 109.231,200.933 109.799 M203.200 109.937 C 203.200 110.562,204.412 111.082,205.767 111.038 C 207.242 110.990,207.687 110.000,206.233 110.000 C 205.665 110.000,205.200 110.180,205.200 110.400 C 205.200 110.620,205.009 110.800,204.776 110.800 C 204.543 110.800,204.482 110.575,204.641 110.300 C 204.799 110.025,204.781 109.933,204.601 110.097 C 204.421 110.260,204.032 110.193,203.737 109.948 C 203.357 109.632,203.200 109.629,203.200 109.937 M165.700 110.289 C 164.287 110.465,163.901 111.392,165.200 111.490 C 165.640 111.523,166.000 111.392,166.000 111.198 C 166.000 111.004,166.392 110.921,166.870 111.014 C 167.349 111.106,168.014 110.960,168.347 110.691 C 168.828 110.301,168.892 110.303,168.653 110.700 C 168.453 111.033,168.619 111.200,169.153 111.200 C 169.593 111.200,170.063 111.022,170.197 110.805 C 170.334 110.584,170.185 110.507,169.861 110.632 C 169.542 110.754,169.162 110.662,169.017 110.427 C 168.755 110.003,168.195 109.980,165.700 110.289 M207.481 110.933 C 207.336 111.312,207.661 111.467,208.600 111.467 C 209.539 111.467,209.864 111.312,209.719 110.933 C 209.607 110.640,209.103 110.400,208.600 110.400 C 208.097 110.400,207.593 110.640,207.481 110.933 M211.878 111.482 C 212.141 111.575,212.256 111.909,212.135 112.225 C 212.014 112.541,212.124 112.800,212.381 112.800 C 212.637 112.800,212.736 112.620,212.600 112.400 C 212.464 112.180,212.644 112.000,213.000 112.000 C 213.356 112.000,213.544 112.168,213.417 112.372 C 213.075 112.926,213.752 113.202,214.419 112.780 C 214.853 112.505,214.868 112.411,214.476 112.406 C 214.188 112.403,214.064 112.220,214.200 112.000 C 214.336 111.780,214.122 111.598,213.724 111.595 C 213.326 111.592,212.640 111.527,212.200 111.452 C 211.760 111.377,211.615 111.390,211.878 111.482 M215.200 112.794 C 215.200 113.043,215.400 113.124,215.645 112.972 C 215.889 112.821,216.263 112.946,216.475 113.249 C 216.792 113.702,216.832 113.693,216.697 113.200 C 216.504 112.490,215.200 112.137,215.200 112.794 M217.277 113.230 C 217.356 113.466,217.591 113.660,217.800 113.660 C 218.009 113.660,218.245 113.466,218.323 113.230 C 218.402 112.993,218.167 112.800,217.800 112.800 C 217.433 112.800,217.198 112.993,217.277 113.230 M219.619 113.800 C 219.609 114.394,220.323 115.410,220.574 115.159 C 220.694 115.040,220.529 114.595,220.209 114.171 C 219.888 113.747,219.622 113.580,219.619 113.800 M152.000 114.787 C 152.000 115.323,152.192 115.501,152.600 115.345 C 152.930 115.218,153.200 114.864,153.200 114.557 C 153.200 114.251,152.930 114.000,152.600 114.000 C 152.270 114.000,152.000 114.354,152.000 114.787 M220.800 114.151 C 220.800 114.234,221.070 114.526,221.400 114.800 C 221.891 115.208,222.000 115.180,222.000 114.649 C 222.000 114.292,221.730 114.000,221.400 114.000 C 221.070 114.000,220.800 114.068,220.800 114.151 M222.400 115.104 C 222.400 115.271,222.771 115.639,223.224 115.922 C 223.985 116.397,224.014 116.374,223.610 115.618 C 223.185 114.824,222.400 114.490,222.400 115.104 M148.800 115.581 C 148.125 115.956,145.907 116.924,145.600 116.978 C 145.490 116.997,145.130 117.184,144.800 117.395 C 144.470 117.605,144.020 117.809,143.800 117.848 C 142.722 118.040,141.017 119.195,141.800 119.204 C 142.475 119.211,142.506 119.279,142.000 119.637 C 141.467 120.014,141.467 120.041,142.000 119.880 C 142.330 119.781,142.547 119.475,142.483 119.199 C 142.407 118.874,142.653 118.773,143.183 118.911 C 143.632 119.029,144.000 118.943,144.000 118.720 C 144.000 118.497,144.279 118.422,144.621 118.553 C 144.977 118.689,145.137 118.622,144.997 118.395 C 144.567 117.699,145.211 117.111,145.836 117.630 C 146.189 117.923,146.400 117.943,146.400 117.684 C 146.400 117.457,146.706 117.316,147.079 117.370 C 147.453 117.425,148.173 117.023,148.679 116.477 C 149.889 115.171,149.918 114.959,148.800 115.581 M225.433 116.300 C 225.032 116.701,226.222 117.467,226.951 117.276 C 227.446 117.147,227.628 117.232,227.454 117.512 C 227.276 117.800,227.528 117.887,228.192 117.767 C 228.893 117.640,229.200 117.762,229.200 118.169 C 229.200 118.490,229.408 118.881,229.662 119.038 C 229.948 119.215,230.015 119.148,229.838 118.862 C 229.679 118.604,229.781 118.400,230.069 118.400 C 230.353 118.400,229.959 117.977,229.193 117.461 C 227.842 116.550,225.811 115.923,225.433 116.300 M230.800 118.304 C 230.800 118.540,231.327 118.966,231.971 119.251 C 232.615 119.536,233.037 119.939,232.909 120.147 C 232.781 120.354,232.884 120.395,233.138 120.238 C 233.821 119.816,233.698 119.200,232.931 119.200 C 232.564 119.200,231.934 118.902,231.531 118.538 C 231.129 118.174,230.800 118.069,230.800 118.304 M139.847 119.821 C 139.692 120.226,139.770 120.342,140.073 120.155 C 140.389 119.959,140.448 120.097,140.259 120.591 C 140.029 121.190,140.082 121.230,140.567 120.827 C 140.889 120.560,141.054 120.085,140.933 119.771 C 140.646 119.022,140.145 119.045,139.847 119.821 M138.225 120.632 C 137.877 120.980,137.699 121.437,137.830 121.648 C 137.972 121.879,137.654 121.928,137.034 121.773 C 136.327 121.595,136.000 121.675,136.000 122.023 C 136.000 122.304,136.118 122.415,136.263 122.270 C 136.408 122.125,136.750 122.192,137.022 122.419 C 137.383 122.718,137.748 122.538,138.359 121.761 C 139.586 120.202,139.487 119.370,138.225 120.632 M234.242 120.338 C 234.015 120.714,234.883 121.391,235.668 121.450 C 236.572 121.518,236.157 120.534,235.173 120.277 C 234.748 120.166,234.330 120.193,234.242 120.338 M237.063 121.820 C 237.186 122.139,237.457 122.400,237.666 122.400 C 237.876 122.400,237.933 122.584,237.794 122.810 C 237.655 123.035,237.779 123.170,238.070 123.110 C 238.362 123.049,238.555 123.225,238.500 123.500 C 238.445 123.775,238.625 124.013,238.900 124.030 C 240.334 124.115,241.460 124.493,241.998 125.069 C 242.538 125.647,242.527 125.688,241.900 125.469 C 240.933 125.132,241.025 125.393,242.128 126.116 C 242.982 126.675,243.095 126.660,243.557 125.920 C 243.833 125.478,243.893 125.219,243.690 125.344 C 243.487 125.470,242.971 125.264,242.544 124.886 C 241.550 124.009,239.603 122.815,238.700 122.529 C 238.315 122.407,238.000 122.167,238.000 121.996 C 238.000 121.825,237.739 121.586,237.420 121.463 C 237.033 121.315,236.915 121.433,237.063 121.820 M133.371 123.644 C 132.601 124.505,132.601 124.506,133.600 124.203 C 134.899 123.810,135.029 123.669,134.544 123.184 C 134.274 122.914,133.888 123.065,133.371 123.644 M131.017 125.172 C 130.629 125.800,131.367 125.952,131.916 125.358 C 132.339 124.900,132.326 124.800,131.839 124.800 C 131.514 124.800,131.144 124.968,131.017 125.172 M243.866 126.573 C 243.746 126.886,243.869 127.325,244.140 127.550 C 244.500 127.849,244.649 127.751,244.691 127.187 C 244.762 126.239,244.165 125.794,243.866 126.573 M128.400 126.856 C 128.400 127.107,128.118 127.518,127.773 127.770 C 127.220 128.175,127.234 128.229,127.893 128.229 C 128.382 128.229,128.666 127.913,128.715 127.314 C 128.757 126.811,128.703 126.400,128.596 126.400 C 128.488 126.400,128.400 126.605,128.400 126.856 M245.200 126.742 C 245.200 126.926,245.560 127.402,246.000 127.800 C 246.440 128.198,246.800 128.356,246.800 128.151 C 246.800 127.946,246.440 127.470,246.000 127.093 C 245.560 126.716,245.200 126.558,245.200 126.742 M247.017 128.773 C 246.708 129.272,248.415 130.438,248.961 130.100 C 249.204 129.950,248.958 129.713,248.396 129.557 C 247.848 129.404,247.636 129.262,247.924 129.240 C 248.212 129.218,248.336 129.020,248.200 128.800 C 247.890 128.298,247.319 128.285,247.017 128.773 M249.711 130.785 C 249.644 131.678,250.446 132.078,251.236 131.546 C 251.674 131.252,251.623 131.193,251.009 131.283 C 250.574 131.347,250.214 131.190,250.209 130.933 C 250.193 130.125,249.770 129.999,249.711 130.785 M121.902 132.026 C 120.887 133.183,120.874 133.245,121.677 133.126 C 122.149 133.056,122.576 132.662,122.637 132.240 C 122.697 131.822,122.984 131.330,123.273 131.146 C 123.563 130.963,123.615 130.809,123.389 130.806 C 123.163 130.803,122.494 131.352,121.902 132.026 M251.771 132.772 C 251.771 133.476,252.923 133.636,253.492 133.011 C 253.661 132.824,253.575 132.801,253.300 132.959 C 253.025 133.118,252.800 133.076,252.800 132.866 C 252.800 132.657,252.569 132.397,252.286 132.288 C 251.991 132.175,251.771 132.381,251.771 132.772 M119.839 133.494 C 119.358 133.975,119.617 134.800,120.249 134.800 C 120.785 134.800,120.810 134.694,120.392 134.191 C 119.970 133.682,119.994 133.623,120.543 133.834 C 120.905 133.972,121.200 133.996,121.200 133.886 C 121.200 133.555,120.096 133.237,119.839 133.494 M254.224 134.361 C 254.102 134.559,254.628 135.092,255.395 135.544 C 256.338 136.100,256.711 136.565,256.551 136.983 C 256.396 137.387,256.545 137.600,256.981 137.600 C 257.383 137.600,257.534 137.783,257.362 138.062 C 257.185 138.348,257.252 138.415,257.538 138.238 C 257.957 137.979,258.185 138.478,258.037 139.330 C 258.006 139.511,258.166 139.545,258.393 139.404 C 258.621 139.264,258.956 139.552,259.138 140.045 L 259.470 140.941 259.698 140.070 C 259.823 139.591,259.781 139.288,259.605 139.397 C 259.429 139.505,259.167 139.124,259.023 138.550 C 258.879 137.976,258.661 137.606,258.538 137.729 C 258.277 137.990,257.222 137.103,257.414 136.784 C 257.485 136.665,257.016 136.215,256.373 135.784 C 255.729 135.353,255.202 134.775,255.201 134.500 C 255.200 133.922,254.552 133.830,254.224 134.361 M118.075 135.216 C 117.594 135.664,117.200 136.215,117.200 136.439 C 117.200 136.664,117.065 136.775,116.900 136.687 C 116.735 136.599,116.285 136.858,115.900 137.263 C 115.297 137.898,115.286 138.000,115.824 138.000 C 116.203 138.000,116.339 138.196,116.171 138.500 C 116.019 138.775,116.345 138.550,116.896 138.000 C 117.446 137.450,117.849 136.910,117.790 136.800 C 117.732 136.690,117.922 136.380,118.213 136.112 C 118.629 135.727,118.779 135.727,118.920 136.112 C 119.018 136.380,119.077 136.105,119.049 135.500 C 119.022 134.895,118.989 134.400,118.975 134.400 C 118.962 134.400,118.557 134.767,118.075 135.216 M112.668 140.619 C 111.154 142.133,110.727 142.754,111.324 142.571 C 112.450 142.227,113.512 141.628,113.024 141.612 C 112.816 141.605,112.996 141.345,113.424 141.032 C 113.851 140.720,114.200 140.278,114.200 140.049 C 114.200 139.821,114.560 139.362,115.000 139.030 C 115.440 138.697,115.595 138.420,115.343 138.413 C 115.092 138.406,113.888 139.399,112.668 140.619 M260.748 140.537 C 260.993 140.832,261.060 141.207,260.897 141.370 C 260.733 141.533,260.807 141.607,261.060 141.533 C 261.313 141.460,261.493 141.580,261.460 141.800 C 261.427 142.020,261.225 142.142,261.011 142.070 C 260.797 141.999,260.960 142.314,261.373 142.770 C 262.281 143.774,262.456 143.812,262.119 142.934 C 261.938 142.463,262.012 142.360,262.372 142.583 C 262.767 142.827,262.783 142.730,262.447 142.148 C 261.757 140.957,260.937 140.000,260.607 140.000 C 260.439 140.000,260.503 140.242,260.748 140.537 M110.900 143.065 C 110.625 143.176,110.400 143.522,110.400 143.833 C 110.400 144.145,110.164 144.400,109.875 144.400 C 108.919 144.400,107.510 146.680,108.283 146.977 C 109.081 147.283,109.555 146.605,109.347 145.456 C 109.261 144.985,109.290 144.801,109.411 145.046 C 109.547 145.323,110.081 145.072,110.815 144.386 C 112.340 142.961,112.372 142.471,110.900 143.065 M266.551 148.225 C 267.048 149.298,267.467 149.494,267.467 148.655 C 267.467 148.355,267.160 147.917,266.784 147.683 C 266.175 147.303,266.150 147.361,266.551 148.225 M106.131 148.664 C 106.276 148.809,106.036 149.180,105.597 149.487 C 105.159 149.794,104.800 150.305,104.800 150.623 C 104.800 150.940,104.639 151.200,104.443 151.200 C 104.246 151.200,103.997 151.431,103.888 151.714 C 103.773 152.014,103.987 152.229,104.400 152.229 C 104.813 152.229,105.027 152.014,104.912 151.714 C 104.732 151.245,105.268 151.008,106.149 151.169 C 106.341 151.204,106.394 150.961,106.267 150.629 C 106.139 150.297,106.207 149.919,106.417 149.789 C 106.958 149.455,106.894 148.400,106.333 148.400 C 106.077 148.400,105.986 148.519,106.131 148.664 M268.800 151.600 C 268.285 151.933,268.297 151.989,268.887 151.994 C 269.375 151.998,269.498 152.204,269.313 152.700 C 269.086 153.304,269.140 153.327,269.701 152.871 C 270.823 151.959,270.013 150.816,268.800 151.600 M103.228 153.174 C 102.914 153.373,102.610 153.865,102.553 154.268 C 102.455 154.972,102.471 154.972,102.985 154.279 C 103.382 153.742,103.570 153.691,103.719 154.079 C 103.829 154.365,103.899 154.195,103.874 153.700 C 103.850 153.205,103.823 152.803,103.815 152.806 C 103.807 152.809,103.543 152.975,103.228 153.174 M270.502 153.537 C 269.985 153.857,270.340 154.548,271.100 154.700 C 271.646 154.809,271.797 153.769,271.281 153.450 C 271.105 153.342,270.755 153.381,270.502 153.537 M101.486 155.320 C 101.384 155.586,101.532 156.020,101.814 156.284 C 102.214 156.658,102.369 156.657,102.514 156.280 C 102.616 156.014,102.468 155.580,102.186 155.316 C 101.786 154.942,101.631 154.943,101.486 155.320 M271.819 155.169 C 271.642 155.455,271.656 155.804,271.849 155.945 C 272.042 156.085,272.200 156.470,272.200 156.800 C 272.200 157.130,272.419 157.357,272.686 157.305 C 272.985 157.246,273.074 157.463,272.918 157.870 C 272.757 158.290,272.823 158.433,273.098 158.263 C 273.336 158.116,273.635 158.221,273.762 158.498 C 273.889 158.774,273.880 158.550,273.742 158.000 C 273.605 157.450,273.376 156.910,273.235 156.800 C 273.094 156.690,272.790 156.161,272.559 155.624 C 272.252 154.908,272.055 154.787,271.819 155.169 M100.222 158.035 C 100.346 158.236,100.172 158.400,99.836 158.400 C 99.457 158.400,99.313 158.628,99.455 159.000 C 99.782 159.852,100.269 159.743,100.526 158.760 C 100.672 158.203,100.924 158.022,101.273 158.224 C 101.563 158.391,101.660 158.374,101.488 158.186 C 101.061 157.716,99.942 157.583,100.222 158.035 M274.223 159.529 C 273.918 160.489,274.865 162.006,275.762 161.994 C 276.003 161.991,275.930 161.813,275.600 161.600 C 275.067 161.255,275.067 161.211,275.600 161.200 C 275.963 161.193,276.038 161.072,275.789 160.894 C 275.563 160.732,275.184 160.150,274.948 159.600 L 274.518 158.600 274.223 159.529 M98.230 161.249 C 98.380 161.491,98.344 161.804,98.151 161.945 C 97.767 162.224,96.400 164.579,96.400 164.962 C 96.400 165.093,96.681 165.200,97.024 165.200 C 97.367 165.200,97.538 165.024,97.405 164.808 C 97.048 164.231,97.966 162.732,98.482 163.051 C 98.754 163.219,98.810 163.140,98.627 162.844 C 98.464 162.581,98.531 162.124,98.776 161.829 C 99.112 161.424,99.067 161.234,98.589 161.051 C 98.190 160.898,98.058 160.971,98.230 161.249 M275.799 163.199 C 276.131 163.565,276.304 163.962,276.185 164.082 C 276.066 164.201,276.322 164.391,276.754 164.504 C 277.309 164.649,277.478 164.547,277.327 164.155 C 277.210 163.850,276.954 163.600,276.757 163.600 C 276.561 163.600,276.400 163.360,276.400 163.067 C 276.400 162.773,276.129 162.533,275.798 162.533 C 275.263 162.533,275.263 162.607,275.799 163.199 M277.360 166.183 C 277.360 166.948,277.476 167.069,277.885 166.730 C 278.281 166.401,278.298 166.159,277.956 165.747 C 277.363 165.033,277.360 165.035,277.360 166.183 M278.092 167.440 C 277.707 167.852,277.787 168.085,278.479 168.570 C 279.587 169.347,279.748 169.177,279.096 167.920 C 278.676 167.111,278.485 167.019,278.092 167.440 M278.589 169.617 C 278.459 169.828,278.554 170.000,278.800 170.000 C 279.051 170.000,279.116 170.219,278.947 170.500 C 278.743 170.840,278.863 170.824,279.323 170.451 C 280.147 169.783,280.150 169.743,279.413 169.460 C 279.090 169.336,278.719 169.407,278.589 169.617 M93.600 171.544 C 93.600 172.125,93.435 172.345,93.138 172.162 C 92.839 171.977,92.786 172.053,92.986 172.377 C 93.225 172.763,93.439 172.733,93.930 172.241 C 94.427 171.745,94.460 171.500,94.083 171.123 C 93.706 170.746,93.600 170.838,93.600 171.544 M279.600 172.037 C 279.600 172.237,279.892 172.400,280.249 172.400 C 280.780 172.400,280.808 172.509,280.400 173.000 C 279.992 173.491,280.020 173.600,280.551 173.600 C 281.488 173.600,281.359 172.135,280.400 171.884 C 279.960 171.769,279.600 171.838,279.600 172.037 M281.083 175.451 C 280.975 175.558,280.977 175.989,281.086 176.409 C 281.268 177.102,282.400 176.638,282.400 175.871 C 282.400 175.582,281.302 175.232,281.083 175.451 M90.999 178.658 C 90.467 179.190,90.442 179.382,90.870 179.658 C 91.302 179.937,91.289 180.080,90.800 180.430 C 90.267 180.813,90.267 180.842,90.800 180.686 C 91.144 180.586,91.358 180.136,91.301 179.633 C 91.246 179.149,91.351 178.846,91.534 178.959 C 91.717 179.072,91.867 178.903,91.867 178.582 C 91.867 177.848,91.803 177.854,90.999 178.658 M282.400 179.551 C 282.400 179.744,282.670 180.126,283.000 180.400 C 283.501 180.816,283.600 180.758,283.600 180.049 C 283.600 179.561,283.345 179.200,283.000 179.200 C 282.670 179.200,282.400 179.358,282.400 179.551 M89.804 181.593 C 89.666 181.817,89.660 182.000,89.790 182.000 C 89.921 182.000,89.841 182.349,89.613 182.776 C 89.337 183.292,89.332 183.634,89.599 183.799 C 89.820 183.936,90.000 183.756,90.000 183.400 C 90.000 183.044,90.180 182.864,90.400 183.000 C 90.620 183.136,90.800 182.887,90.800 182.447 C 90.800 181.527,90.176 180.992,89.804 181.593 M283.451 183.010 C 283.315 183.365,283.459 183.600,283.813 183.600 C 284.136 183.600,284.400 183.780,284.400 184.000 C 284.400 184.220,284.220 184.400,284.000 184.400 C 283.780 184.400,283.603 184.715,283.606 185.100 C 283.611 185.704,283.671 185.718,284.038 185.200 C 284.356 184.754,284.411 185.061,284.254 186.400 C 284.137 187.390,284.138 187.974,284.255 187.698 C 284.373 187.421,284.635 187.298,284.840 187.425 C 285.402 187.772,284.786 183.529,284.188 182.931 C 283.774 182.517,283.635 182.532,283.451 183.010 M284.956 189.677 C 284.992 190.489,285.180 191.299,285.374 191.477 C 285.573 191.658,285.602 191.581,285.441 191.300 C 285.279 191.020,285.361 190.800,285.625 190.800 C 285.978 190.800,285.971 190.647,285.600 190.200 C 285.256 189.785,285.241 189.600,285.551 189.600 C 285.798 189.600,286.000 189.409,286.000 189.176 C 286.000 188.943,285.835 188.855,285.634 188.979 C 285.433 189.103,285.184 188.979,285.080 188.702 C 284.976 188.426,284.921 188.865,284.956 189.677 M88.000 190.387 C 88.000 190.879,88.200 191.098,88.533 190.970 C 88.827 190.858,89.067 190.503,89.067 190.183 C 89.067 189.862,88.827 189.600,88.533 189.600 C 88.240 189.600,88.000 189.954,88.000 190.387 M87.688 192.549 C 87.733 193.095,87.912 193.455,88.085 193.348 C 88.529 193.073,88.477 192.095,88.003 191.802 C 87.774 191.660,87.640 191.977,87.688 192.549 M285.461 192.866 C 285.097 194.226,285.135 194.400,285.800 194.400 C 286.452 194.400,286.591 193.321,286.049 192.466 C 285.797 192.067,285.648 192.169,285.461 192.866 M86.800 196.600 C 86.800 196.930,86.961 197.200,87.157 197.200 C 87.354 197.200,87.618 196.930,87.745 196.600 C 87.885 196.235,87.745 196.000,87.387 196.000 C 87.064 196.000,86.800 196.270,86.800 196.600 M286.178 196.835 C 286.031 197.074,286.102 197.462,286.336 197.696 C 286.623 197.983,286.634 198.364,286.367 198.861 C 286.101 199.358,286.107 199.600,286.386 199.600 C 286.614 199.600,286.820 199.465,286.845 199.300 C 287.245 196.617,286.961 195.568,286.178 196.835 M86.889 199.100 C 86.896 200.188,86.978 200.382,87.187 199.806 C 87.440 199.112,87.307 197.600,86.993 197.600 C 86.931 197.600,86.884 198.275,86.889 199.100 M286.693 202.600 C 286.294 206.488,286.327 214.000,286.745 214.000 C 286.934 214.000,287.022 214.495,286.939 215.100 C 286.813 216.022,286.847 216.070,287.146 215.400 C 287.709 214.140,287.727 204.000,287.166 204.000 C 286.867 204.000,286.832 203.822,287.067 203.500 C 287.268 203.225,287.330 202.280,287.206 201.400 C 287.001 199.937,286.957 200.039,286.693 202.600 M86.702 201.800 C 86.597 202.350,86.666 202.800,86.855 202.800 C 87.045 202.800,87.200 202.350,87.200 201.800 C 87.200 201.250,87.131 200.800,87.047 200.800 C 86.962 200.800,86.807 201.250,86.702 201.800 M86.400 206.891 C 86.400 210.067,86.511 210.757,87.057 210.966 C 87.561 211.160,87.613 211.098,87.281 210.698 C 87.044 210.412,86.846 208.676,86.842 206.840 C 86.838 205.004,86.737 203.404,86.617 203.284 C 86.498 203.164,86.400 204.787,86.400 206.891 M86.428 213.033 C 86.444 214.115,86.604 215.360,86.785 215.800 C 86.978 216.270,87.026 215.527,86.902 214.000 C 86.648 210.855,86.389 210.329,86.428 213.033 M86.858 219.535 C 86.781 221.713,87.731 222.837,87.884 220.749 C 87.930 220.117,87.776 219.600,87.541 219.600 C 87.306 219.600,87.207 219.359,87.320 219.064 C 87.433 218.769,87.392 218.310,87.227 218.044 C 87.063 217.778,86.897 218.449,86.858 219.535 M286.317 219.070 C 286.718 219.231,286.727 219.405,286.360 219.849 C 286.099 220.162,285.995 220.529,286.129 220.662 C 286.263 220.796,286.176 221.287,285.937 221.753 C 285.512 222.579,285.522 222.578,286.351 221.717 C 287.410 220.615,287.505 218.786,286.500 218.832 C 286.055 218.852,285.988 218.939,286.317 219.070 M285.548 223.076 C 285.278 224.770,285.402 225.530,285.882 225.132 C 286.496 224.622,286.567 223.350,286.000 223.000 C 285.780 222.864,285.577 222.898,285.548 223.076 M87.600 224.800 C 87.600 226.365,88.187 226.364,88.243 224.799 C 88.266 224.140,88.131 223.600,87.943 223.600 C 87.754 223.600,87.600 224.140,87.600 224.800 M88.205 227.334 C 88.256 227.810,88.321 228.515,88.349 228.900 C 88.377 229.285,88.715 229.597,89.100 229.594 C 89.654 229.589,89.685 229.515,89.249 229.239 C 88.946 229.047,88.814 228.702,88.955 228.472 C 89.097 228.243,89.011 227.930,88.764 227.778 C 88.436 227.575,88.443 227.420,88.791 227.206 C 89.141 226.989,89.115 226.853,88.690 226.690 C 88.283 226.534,88.140 226.723,88.205 227.334 M284.267 229.067 C 283.746 229.588,284.011 230.400,284.700 230.394 C 285.254 230.389,285.285 230.315,284.849 230.039 C 284.546 229.847,284.421 229.489,284.572 229.245 C 284.875 228.755,284.687 228.646,284.267 229.067 M89.043 232.169 C 89.341 232.944,90.267 233.254,90.267 232.579 C 90.267 232.280,90.117 232.128,89.933 232.241 C 89.750 232.355,89.600 232.257,89.600 232.024 C 89.600 231.791,89.426 231.600,89.213 231.600 C 88.999 231.600,88.923 231.856,89.043 232.169 M283.770 233.081 C 283.934 234.624,284.800 234.752,284.800 233.233 C 284.800 232.430,284.600 232.000,284.227 232.000 C 283.843 232.000,283.693 232.356,283.770 233.081 M89.200 233.971 C 89.200 234.207,89.515 234.403,89.900 234.406 C 90.504 234.411,90.518 234.470,90.000 234.837 C 89.467 235.214,89.467 235.243,90.000 235.097 C 90.828 234.871,90.756 233.841,89.900 233.676 C 89.515 233.602,89.200 233.735,89.200 233.971 M90.000 236.151 C 90.000 236.823,91.120 237.814,91.476 237.457 C 91.618 237.316,91.523 237.200,91.267 237.200 C 91.010 237.200,90.800 236.840,90.800 236.400 C 90.800 235.960,90.620 235.600,90.400 235.600 C 90.180 235.600,90.000 235.848,90.000 236.151 M91.300 238.624 C 90.704 239.270,90.629 240.153,91.200 239.800 C 91.420 239.664,91.612 239.788,91.627 240.076 C 91.718 241.848,92.068 243.395,92.426 243.616 C 92.655 243.758,92.920 244.486,93.014 245.234 C 93.109 245.983,93.370 246.657,93.593 246.731 C 93.817 246.806,94.000 247.212,94.000 247.633 C 94.000 248.055,94.191 248.400,94.424 248.400 C 94.657 248.400,94.735 248.581,94.598 248.803 C 94.461 249.025,94.630 249.488,94.974 249.832 C 95.319 250.176,95.600 250.804,95.600 251.229 C 95.600 251.653,95.759 252.000,95.953 252.000 C 96.475 252.000,96.756 250.573,96.357 249.944 C 96.072 249.494,96.011 249.499,96.006 249.976 C 96.002 250.387,95.836 250.330,95.428 249.776 C 95.113 249.349,95.023 248.940,95.228 248.867 C 95.433 248.793,95.600 248.558,95.600 248.343 C 95.600 248.128,95.420 248.064,95.200 248.200 C 94.980 248.336,94.800 248.104,94.800 247.686 C 94.800 247.267,94.440 246.598,94.000 246.200 C 93.222 245.496,92.865 244.546,93.533 244.959 C 93.717 245.072,93.867 244.911,93.867 244.600 C 93.867 244.289,93.736 244.116,93.575 244.215 C 93.156 244.474,92.783 243.310,93.057 242.597 C 93.184 242.265,93.013 241.574,92.677 241.061 C 92.341 240.548,92.006 239.668,91.933 239.105 C 91.823 238.261,91.712 238.177,91.300 238.624 M282.000 240.424 C 282.000 240.657,281.775 240.712,281.500 240.547 C 281.101 240.307,281.100 240.371,281.497 240.860 C 281.770 241.197,281.875 241.592,281.730 241.737 C 281.585 241.882,281.677 242.000,281.933 242.000 C 282.190 242.000,282.400 241.550,282.400 241.000 C 282.400 240.450,282.310 240.000,282.200 240.000 C 282.090 240.000,282.000 240.191,282.000 240.424 M280.400 245.224 C 280.400 245.457,280.258 245.560,280.085 245.452 C 279.912 245.345,279.731 245.730,279.683 246.306 C 279.635 246.883,279.440 247.455,279.248 247.578 C 279.057 247.700,278.765 248.430,278.600 249.200 C 278.435 249.970,278.110 250.721,277.878 250.868 C 277.646 251.015,277.412 251.434,277.359 251.799 C 277.172 253.072,276.802 253.649,276.351 253.370 C 276.078 253.201,275.967 253.301,276.073 253.619 C 276.415 254.645,277.130 254.430,277.395 253.221 C 277.543 252.550,277.829 252.000,278.032 252.000 C 278.234 252.000,278.400 251.810,278.400 251.578 C 278.400 251.346,278.759 250.367,279.199 249.403 C 279.638 248.438,280.051 247.296,280.117 246.864 C 280.183 246.432,280.476 245.790,280.768 245.439 C 281.120 245.015,281.147 244.800,280.849 244.800 C 280.602 244.800,280.400 244.991,280.400 245.224 M96.591 252.015 C 96.429 252.276,96.546 252.647,96.849 252.839 C 97.188 253.053,97.222 253.190,96.937 253.194 C 96.674 253.197,96.564 253.542,96.683 253.996 C 96.797 254.433,97.036 254.701,97.213 254.592 C 97.390 254.483,97.648 254.910,97.787 255.541 C 97.947 256.271,98.433 256.858,99.120 257.151 C 100.124 257.581,100.146 257.571,99.424 257.007 C 98.996 256.673,98.816 256.394,99.024 256.387 C 99.231 256.380,99.075 256.128,98.678 255.827 C 98.281 255.526,97.928 254.857,97.893 254.340 C 97.800 252.951,96.950 251.434,96.591 252.015 M274.267 257.831 C 274.372 258.104,274.101 258.441,273.666 258.579 C 273.230 258.717,272.760 259.129,272.620 259.493 C 272.388 260.097,272.429 260.100,273.083 259.530 C 273.477 259.186,274.025 258.986,274.300 259.086 C 274.575 259.185,274.800 259.086,274.800 258.866 C 274.800 258.646,274.898 258.211,275.017 257.899 C 275.143 257.572,274.990 257.333,274.655 257.333 C 274.337 257.333,274.162 257.557,274.267 257.831 M99.647 258.762 C 99.217 259.035,99.295 259.176,100.000 259.400 C 100.617 259.596,100.751 259.783,100.419 259.988 C 100.056 260.213,100.083 260.346,100.527 260.517 C 100.897 260.658,101.196 260.458,101.320 259.986 C 101.429 259.569,101.401 259.243,101.259 259.261 C 100.472 259.363,99.983 259.151,100.200 258.800 C 100.501 258.313,100.371 258.304,99.647 258.762 M101.426 262.081 C 101.580 262.566,101.952 263.209,102.253 263.510 C 102.554 263.811,102.800 264.218,102.800 264.414 C 102.800 264.611,103.130 264.948,103.533 265.164 C 104.092 265.463,104.267 265.415,104.267 264.961 C 104.267 264.615,104.032 264.456,103.707 264.580 C 103.308 264.733,103.216 264.580,103.385 264.047 C 103.559 263.500,103.378 263.232,102.711 263.050 C 101.952 262.842,101.900 262.734,102.400 262.406 C 102.910 262.071,102.891 262.011,102.276 262.006 C 101.878 262.003,101.664 261.820,101.800 261.600 C 101.936 261.380,101.844 261.200,101.597 261.200 C 101.314 261.200,101.250 261.529,101.426 262.081 M271.429 261.829 C 271.083 262.174,270.800 262.889,270.800 263.416 C 270.800 264.104,270.631 264.310,270.200 264.145 C 269.663 263.939,269.409 264.392,269.553 265.300 C 269.579 265.465,269.399 265.555,269.153 265.500 C 268.567 265.369,268.346 266.719,268.897 267.060 C 269.149 267.216,269.207 267.134,269.038 266.862 C 268.873 266.594,268.996 266.400,269.334 266.400 C 270.010 266.400,270.522 265.321,270.139 264.702 C 269.995 264.468,270.064 264.392,270.293 264.534 C 270.825 264.863,271.753 263.771,271.411 263.218 C 271.269 262.988,271.428 262.800,271.764 262.800 C 272.169 262.800,272.289 262.576,272.119 262.134 C 271.948 261.687,272.017 261.564,272.332 261.758 C 272.589 261.917,272.800 261.857,272.800 261.624 C 272.800 261.008,272.152 261.105,271.429 261.829 M105.200 267.667 C 105.530 267.960,106.046 268.678,106.347 269.262 C 106.649 269.847,107.308 270.404,107.812 270.500 C 108.987 270.725,108.292 269.370,107.068 269.050 C 106.566 268.918,106.380 268.629,106.535 268.224 C 106.667 267.881,106.615 267.600,106.420 267.600 C 106.225 267.600,105.736 267.495,105.333 267.367 C 104.693 267.164,104.676 267.202,105.200 267.667 M267.726 268.300 C 267.589 268.685,267.387 269.163,267.277 269.362 C 267.166 269.561,267.284 269.595,267.538 269.438 C 267.792 269.281,268.000 268.908,268.000 268.610 C 268.000 268.311,268.225 267.976,268.500 267.865 C 268.892 267.707,268.889 267.656,268.487 267.632 C 268.206 267.614,267.863 267.915,267.726 268.300 M265.220 270.843 C 264.549 271.577,264.000 272.427,264.000 272.732 C 264.000 273.068,263.756 273.192,263.379 273.047 C 263.038 272.916,262.859 272.972,262.982 273.170 C 263.105 273.369,262.979 273.623,262.702 273.734 C 262.313 273.891,262.318 273.944,262.724 273.968 C 263.015 273.986,263.128 274.222,262.979 274.500 C 262.832 274.775,263.427 274.190,264.301 273.200 C 265.176 272.210,265.900 271.240,265.911 271.045 C 265.923 270.849,266.167 270.544,266.454 270.366 C 266.742 270.189,266.856 269.923,266.708 269.775 C 266.561 269.628,265.891 270.108,265.220 270.843 M108.445 272.141 C 108.970 272.659,109.827 273.307,110.349 273.581 L 111.298 274.081 110.549 273.082 C 110.137 272.532,109.634 272.183,109.432 272.307 C 109.230 272.430,109.165 272.269,109.287 271.949 C 109.443 271.545,109.203 271.342,108.501 271.284 L 107.491 271.200 108.445 272.141 M111.178 275.309 C 113.142 277.433,114.516 277.338,112.762 275.200 C 112.181 274.493,111.879 274.354,111.729 274.724 C 111.565 275.131,111.323 275.087,110.659 274.533 C 110.186 274.139,110.420 274.488,111.178 275.309 M260.645 275.550 C 260.567 275.688,260.554 276.115,260.616 276.500 C 260.678 276.885,260.565 277.200,260.365 277.200 C 260.164 277.200,260.000 277.374,260.000 277.587 C 260.000 277.801,260.286 277.865,260.636 277.731 C 261.051 277.572,261.209 277.159,261.091 276.543 C 260.912 275.606,261.398 275.195,261.681 276.044 C 261.777 276.330,262.004 276.277,262.322 275.894 C 262.736 275.395,262.652 275.300,261.800 275.300 C 261.242 275.300,260.722 275.413,260.645 275.550 M114.593 278.306 C 114.351 278.481,114.951 279.355,116.074 280.464 C 117.750 282.118,118.020 282.256,118.481 281.689 C 118.928 281.139,118.897 281.089,118.255 281.330 C 117.686 281.543,117.567 281.462,117.751 280.984 C 117.883 280.640,117.845 280.449,117.667 280.559 C 117.269 280.805,115.973 279.360,116.300 279.034 C 116.428 278.905,116.133 278.800,115.643 278.800 C 115.151 278.800,114.863 278.621,115.000 278.400 C 115.291 277.929,115.157 277.899,114.593 278.306 M256.950 280.585 C 256.827 280.906,256.346 281.290,255.882 281.438 C 255.020 281.711,254.040 282.520,253.886 283.086 C 253.839 283.259,253.690 283.363,253.556 283.319 C 253.421 283.274,253.110 283.679,252.864 284.219 C 252.310 285.435,252.499 285.453,253.705 284.300 C 254.223 283.805,255.274 282.860,256.042 282.200 C 257.657 280.811,258.236 280.000,257.611 280.000 C 257.371 280.000,257.074 280.263,256.950 280.585 M119.827 283.075 C 119.660 283.509,119.924 284.106,120.565 284.747 C 121.511 285.693,121.551 285.700,121.339 284.887 C 121.215 284.415,120.931 284.067,120.707 284.114 C 120.483 284.161,120.209 283.950,120.098 283.644 C 119.975 283.307,120.072 283.197,120.344 283.365 C 120.628 283.541,120.704 283.416,120.553 283.021 C 120.251 282.234,120.146 282.242,119.827 283.075 M122.000 285.003 C 122.000 285.803,122.936 286.833,123.475 286.626 C 123.905 286.461,124.020 286.572,123.857 286.995 C 123.729 287.328,123.799 287.600,124.013 287.600 C 124.226 287.600,124.400 287.228,124.400 286.773 C 124.400 286.128,124.224 286.002,123.600 286.200 C 123.041 286.377,122.800 286.272,122.800 285.851 C 122.800 285.519,122.620 285.136,122.400 285.000 C 122.180 284.864,122.000 284.865,122.000 285.003 M251.200 285.224 C 251.200 285.457,251.016 285.533,250.790 285.394 C 250.565 285.255,250.406 285.289,250.437 285.470 C 250.579 286.284,250.360 286.765,249.900 286.653 C 249.625 286.586,249.536 286.607,249.702 286.700 C 249.869 286.792,249.903 287.033,249.779 287.234 C 249.314 287.986,250.073 287.563,251.019 286.542 C 252.055 285.424,252.263 284.800,251.600 284.800 C 251.380 284.800,251.200 284.991,251.200 285.224 M125.320 287.824 C 125.341 288.278,125.818 288.983,126.379 289.392 C 126.941 289.800,127.267 289.986,127.103 289.804 C 126.940 289.622,126.994 289.248,127.223 288.972 C 127.511 288.625,127.510 288.392,127.219 288.212 C 126.989 288.069,126.800 288.143,126.800 288.376 C 126.800 288.609,126.601 288.800,126.357 288.800 C 126.114 288.800,126.022 288.521,126.153 288.179 C 126.284 287.838,126.228 287.659,126.030 287.782 C 125.831 287.905,125.581 287.779,125.475 287.502 C 125.369 287.226,125.299 287.371,125.320 287.824 M129.465 290.625 C 129.629 291.053,129.499 291.136,128.979 290.937 C 128.492 290.750,128.360 290.811,128.558 291.132 C 128.717 291.389,129.047 291.600,129.292 291.600 C 129.537 291.600,130.066 291.898,130.469 292.262 C 131.149 292.878,131.200 292.878,131.200 292.262 C 131.200 291.898,130.975 291.645,130.700 291.700 C 130.425 291.755,130.223 291.496,130.252 291.124 C 130.280 290.752,130.064 290.357,129.772 290.245 C 129.432 290.114,129.321 290.251,129.465 290.625 M243.900 291.232 C 243.515 291.456,243.200 291.839,243.200 292.082 C 243.200 292.325,243.530 292.226,243.932 291.861 C 244.335 291.497,244.767 291.301,244.892 291.426 C 245.018 291.551,245.239 291.461,245.384 291.227 C 245.715 290.690,244.826 290.693,243.900 291.232 M131.612 291.674 C 131.577 292.476,132.457 294.000,132.957 294.000 C 133.274 294.000,133.593 294.156,133.667 294.347 C 133.740 294.538,134.250 294.820,134.800 294.973 C 135.350 295.127,135.607 295.106,135.371 294.926 C 135.135 294.747,134.834 294.307,134.702 293.949 C 134.530 293.480,134.148 293.359,133.332 293.514 C 132.273 293.715,132.238 293.681,132.800 292.988 C 133.130 292.580,133.186 292.375,132.925 292.532 C 132.656 292.692,132.269 292.508,132.037 292.108 C 131.810 291.719,131.619 291.523,131.612 291.674 M240.552 293.148 C 240.184 293.578,239.594 293.839,239.241 293.727 C 238.684 293.551,238.679 293.581,239.200 293.956 C 239.748 294.350,239.494 294.581,238.670 294.437 C 238.489 294.406,238.444 294.548,238.571 294.753 C 238.697 294.957,239.168 295.029,239.616 294.912 C 240.065 294.794,240.343 294.610,240.235 294.502 C 239.899 294.165,241.171 293.135,241.597 293.398 C 241.819 293.535,242.000 293.467,242.000 293.247 C 242.000 292.441,241.203 292.387,240.552 293.148 M237.200 294.800 C 236.870 295.013,236.757 295.191,236.949 295.194 C 237.141 295.197,237.051 295.504,236.749 295.875 C 236.266 296.469,236.288 296.517,236.933 296.275 C 237.336 296.124,237.831 296.000,238.033 296.000 C 238.235 296.000,238.400 295.809,238.400 295.576 C 238.400 295.343,238.189 295.283,237.932 295.442 C 237.617 295.636,237.548 295.513,237.719 295.066 C 238.016 294.294,237.998 294.285,237.200 294.800 M234.353 296.251 C 234.327 296.443,234.334 296.757,234.369 296.949 C 234.404 297.141,234.158 297.193,233.821 297.063 C 233.485 296.934,233.229 296.957,233.252 297.114 C 233.374 297.933,233.137 298.400,232.600 298.400 C 232.270 298.400,231.994 298.175,231.986 297.900 C 231.978 297.625,231.732 297.832,231.439 298.361 C 231.070 299.026,230.851 299.152,230.724 298.771 C 230.603 298.409,230.464 298.511,230.318 299.069 L 230.096 299.918 231.741 299.182 C 232.645 298.777,233.448 298.255,233.526 298.023 C 233.603 297.790,233.922 297.600,234.233 297.600 C 234.545 297.600,234.800 297.426,234.800 297.213 C 234.800 296.999,235.070 296.929,235.400 297.055 C 235.740 297.186,236.000 297.065,236.000 296.776 C 236.000 296.496,235.882 296.385,235.737 296.530 C 235.592 296.675,235.232 296.593,234.937 296.348 C 234.642 296.103,234.379 296.059,234.353 296.251 M139.052 297.008 C 138.865 297.496,139.020 297.619,139.699 297.525 C 140.190 297.456,140.593 297.610,140.596 297.867 C 140.598 298.123,140.755 298.483,140.943 298.667 C 141.132 298.850,141.222 298.662,141.143 298.248 C 140.924 297.095,139.372 296.176,139.052 297.008 M141.600 298.154 C 141.600 298.459,142.005 298.970,142.500 299.291 C 143.727 300.085,145.600 300.518,145.600 300.008 C 145.600 299.783,145.240 299.600,144.800 299.600 C 144.356 299.600,144.000 299.333,144.000 299.000 C 144.000 298.670,143.820 298.400,143.600 298.400 C 143.380 298.400,143.200 298.574,143.200 298.787 C 143.200 299.001,142.894 299.058,142.520 298.914 C 142.091 298.749,142.018 298.594,142.323 298.492 C 142.588 298.404,142.703 298.167,142.579 297.966 C 142.234 297.408,141.600 297.530,141.600 298.154 M146.188 300.420 C 145.807 301.035,146.328 301.432,146.842 300.918 C 147.129 300.631,147.136 300.407,146.862 300.239 C 146.639 300.100,146.335 300.182,146.188 300.420 M226.381 300.577 C 226.715 300.979,226.576 301.046,225.744 300.887 C 225.017 300.748,224.769 300.827,224.961 301.136 C 225.191 301.509,226.293 301.532,227.200 301.182 C 227.310 301.140,227.535 301.127,227.700 301.153 C 227.865 301.179,228.000 301.020,228.000 300.800 C 228.000 300.580,227.865 300.386,227.700 300.369 C 227.535 300.353,227.075 300.277,226.678 300.202 C 226.129 300.097,226.058 300.188,226.381 300.577 M147.456 300.678 C 147.005 301.128,147.181 301.600,147.800 301.600 C 148.130 301.600,148.400 301.431,148.400 301.224 C 148.400 300.719,147.775 300.358,147.456 300.678 M223.200 301.955 C 222.330 302.111,221.982 302.322,222.282 302.515 C 222.862 302.888,224.800 302.459,224.800 301.957 C 224.800 301.760,224.755 301.624,224.700 301.653 C 224.645 301.682,223.970 301.818,223.200 301.955 M151.783 302.427 C 151.605 302.715,151.641 302.822,151.867 302.682 C 152.082 302.550,152.558 302.792,152.925 303.220 C 153.648 304.065,154.800 304.272,154.800 303.557 C 154.800 303.314,154.510 303.226,154.155 303.362 C 153.680 303.544,153.576 303.439,153.760 302.960 C 153.932 302.512,153.837 302.377,153.453 302.524 C 153.148 302.642,152.716 302.556,152.494 302.334 C 152.222 302.062,151.990 302.093,151.783 302.427 M219.773 302.904 C 218.635 303.247,217.145 304.800,217.954 304.800 C 218.152 304.800,218.425 304.511,218.561 304.158 C 218.696 303.806,219.058 303.613,219.364 303.731 C 219.921 303.945,221.577 303.014,221.199 302.700 C 221.090 302.608,220.448 302.700,219.773 302.904 M156.000 304.200 C 156.000 304.530,156.180 304.800,156.400 304.800 C 156.620 304.800,156.800 304.609,156.800 304.376 C 156.800 304.143,156.983 304.066,157.207 304.204 C 157.430 304.342,157.492 304.651,157.345 304.889 C 157.181 305.155,157.263 305.208,157.558 305.026 C 157.926 304.798,157.929 304.597,157.570 304.164 C 156.953 303.421,156.000 303.442,156.000 304.200 M213.600 304.718 C 213.050 304.806,212.458 305.125,212.285 305.429 C 212.097 305.760,211.500 305.926,210.795 305.844 C 210.148 305.769,209.708 305.851,209.816 306.026 C 210.171 306.600,209.179 306.881,208.573 306.378 C 208.086 305.973,208.026 306.002,208.234 306.543 C 208.543 307.349,209.465 307.392,210.222 306.636 C 210.532 306.325,211.149 306.166,211.593 306.282 C 212.037 306.398,212.400 306.309,212.400 306.084 C 212.400 305.859,212.742 305.764,213.159 305.873 C 213.577 305.983,214.356 305.785,214.891 305.435 C 215.426 305.084,215.984 304.918,216.132 305.065 C 216.279 305.213,216.400 305.146,216.400 304.917 C 216.400 304.496,215.432 304.427,213.600 304.718 M161.632 305.036 C 161.614 305.275,161.060 305.439,160.400 305.400 C 159.740 305.361,159.200 305.480,159.200 305.664 C 159.200 305.849,159.605 306.002,160.100 306.005 C 160.595 306.008,161.380 306.113,161.845 306.238 C 162.416 306.391,162.774 306.245,162.949 305.788 C 163.135 305.303,163.044 305.174,162.630 305.333 C 162.312 305.455,161.964 305.340,161.857 305.078 C 161.737 304.783,161.651 304.767,161.632 305.036 M165.055 306.600 C 165.182 306.930,165.558 307.200,165.892 307.200 C 166.385 307.200,166.405 307.088,166.000 306.600 C 165.726 306.270,165.350 306.000,165.164 306.000 C 164.977 306.000,164.929 306.270,165.055 306.600 M207.206 306.500 C 207.199 307.261,205.823 307.484,205.396 306.793 C 205.258 306.570,204.974 306.492,204.766 306.621 C 204.113 307.024,204.799 307.600,205.924 307.594 C 207.410 307.585,208.049 307.123,207.585 306.389 C 207.272 305.894,207.211 305.912,207.206 306.500 M172.006 307.492 C 172.002 307.805,171.552 307.932,170.769 307.841 C 169.991 307.750,169.678 307.838,169.918 308.078 C 170.582 308.742,172.845 308.305,172.395 307.600 C 172.149 307.214,172.010 307.175,172.006 307.492 M200.503 307.535 C 200.229 307.705,199.182 307.816,198.176 307.782 C 197.171 307.748,196.560 307.852,196.819 308.012 C 197.167 308.227,197.148 308.355,196.745 308.502 C 196.445 308.612,197.055 308.709,198.100 308.718 C 199.145 308.726,200.000 308.592,200.000 308.419 C 200.000 308.246,200.765 308.178,201.700 308.268 C 203.050 308.397,203.255 308.341,202.697 307.994 C 202.310 307.753,201.830 307.658,201.631 307.781 C 201.432 307.904,201.208 307.830,201.134 307.615 C 201.060 307.401,200.776 307.365,200.503 307.535 M173.200 308.023 C 173.200 308.869,177.035 309.007,177.355 308.172 C 177.476 307.858,177.401 307.600,177.187 307.600 C 176.974 307.600,176.800 307.786,176.800 308.014 C 176.800 308.282,176.553 308.298,176.100 308.059 C 175.240 307.606,173.200 307.581,173.200 308.023 M180.801 308.924 C 180.800 309.102,180.592 309.119,180.338 308.962 C 180.066 308.793,179.984 308.851,180.140 309.103 C 180.530 309.734,193.441 309.781,193.829 309.153 C 194.015 308.852,193.953 308.782,193.662 308.962 C 193.408 309.119,193.200 309.102,193.200 308.924 C 193.200 308.746,190.411 308.600,187.001 308.600 C 183.591 308.600,180.801 308.746,180.801 308.924 " stroke="none" fill="#24b4ac" fill-rule="evenodd"></path><path id="path5" d="M144.000 169.600 C 143.205 170.114,144.204 170.114,145.400 169.600 L 146.200 169.256 145.400 169.234 C 144.960 169.222,144.330 169.387,144.000 169.600 M206.950 173.400 C 206.951 175.820,207.016 176.758,207.096 175.485 C 207.176 174.212,207.175 172.232,207.094 171.085 C 207.014 169.938,206.949 170.980,206.950 173.400 M238.600 171.200 C 238.600 172.258,238.735 173.040,238.900 172.938 C 239.065 172.836,239.200 172.054,239.200 171.200 C 239.200 170.346,239.065 169.564,238.900 169.462 C 238.735 169.360,238.600 170.142,238.600 171.200 M140.500 171.246 C 139.137 172.119,138.695 172.706,139.900 172.043 C 140.818 171.539,142.256 170.427,142.000 170.419 C 141.890 170.416,141.215 170.788,140.500 171.246 M236.975 175.300 L 235.800 176.600 237.100 175.425 C 237.815 174.779,238.400 174.194,238.400 174.125 C 238.400 173.816,238.070 174.088,236.975 175.300 M232.975 179.300 L 231.800 180.600 233.100 179.425 C 233.815 178.779,234.400 178.194,234.400 178.125 C 234.400 177.816,234.070 178.088,232.975 179.300 M144.723 179.100 C 144.018 179.921,143.490 180.800,143.701 180.800 C 143.783 180.800,144.249 180.260,144.737 179.600 C 145.701 178.296,145.692 177.972,144.723 179.100 M134.956 179.371 C 134.835 179.685,134.804 180.360,134.886 180.871 C 134.995 181.554,135.088 181.404,135.237 180.300 C 135.447 178.747,135.336 178.381,134.956 179.371 M217.600 194.600 C 216.628 195.590,215.923 196.400,216.033 196.400 C 216.143 196.400,217.028 195.590,218.000 194.600 C 218.972 193.610,219.677 192.800,219.567 192.800 C 219.457 192.800,218.572 193.610,217.600 194.600 M152.618 197.018 C 151.183 198.454,151.345 198.794,152.800 197.400 C 153.460 196.768,154.000 196.194,154.000 196.125 C 154.000 195.796,153.548 196.088,152.618 197.018 M160.048 196.100 C 160.148 196.155,164.385 200.315,169.463 205.345 C 175.842 211.663,178.794 214.334,179.010 213.983 C 179.193 213.688,179.162 213.576,178.936 213.716 C 178.723 213.848,174.512 209.915,169.578 204.978 C 164.644 200.040,160.440 196.000,160.237 196.000 C 160.033 196.000,159.948 196.045,160.048 196.100 M150.961 199.758 C 150.843 200.065,150.808 201.010,150.883 201.858 C 151.010 203.287,151.034 203.246,151.210 201.300 C 151.404 199.156,151.341 198.767,150.961 199.758 M211.381 200.900 L 209.800 202.600 211.500 201.019 C 213.081 199.548,213.384 199.200,213.081 199.200 C 213.016 199.200,212.251 199.965,211.381 200.900 M164.200 217.200 C 171.017 224.020,176.685 229.600,176.795 229.600 C 176.905 229.600,171.417 224.020,164.600 217.200 C 157.783 210.380,152.115 204.800,152.005 204.800 C 151.895 204.800,157.383 210.380,164.200 217.200 M205.381 206.900 L 203.800 208.600 205.500 207.019 C 207.081 205.548,207.384 205.200,207.081 205.200 C 207.016 205.200,206.251 205.965,205.381 206.900 M201.600 210.600 C 200.628 211.590,199.923 212.400,200.033 212.400 C 200.143 212.400,201.028 211.590,202.000 210.600 C 202.972 209.610,203.677 208.800,203.567 208.800 C 203.457 208.800,202.572 209.610,201.600 210.600 M194.189 218.100 L 191.400 221.000 194.300 218.211 C 196.994 215.620,197.383 215.200,197.089 215.200 C 197.028 215.200,195.723 216.505,194.189 218.100 M186.565 225.605 C 184.126 228.022,182.239 230.000,182.372 230.000 C 182.505 230.000,184.588 228.020,187.000 225.600 C 189.412 223.180,191.299 221.202,191.193 221.205 C 191.087 221.207,189.004 223.187,186.565 225.605 M134.800 242.710 C 134.800 243.393,134.977 244.062,135.194 244.196 C 135.440 244.348,135.494 243.945,135.337 243.120 C 135.000 241.351,134.800 241.199,134.800 242.710 M146.138 244.894 C 146.748 245.282,208.298 245.288,208.538 244.900 C 208.640 244.735,194.538 244.600,177.200 244.600 C 159.862 244.600,145.884 244.732,146.138 244.894 " stroke="none" fill="#44bcac" fill-rule="evenodd"></path><path id="path6" d="" stroke="none" fill="#3cd8d8" fill-rule="evenodd"></path><path id="path7" d="" stroke="none" fill="#3ce0ac" fill-rule="evenodd"></path></g></svg>