<svg id="svg" version="1.1" xmlns="http://www.w3.org/2000/svg" xmlns:xlink="http://www.w3.org/1999/xlink" width="400" height="400.59259259259255" viewBox="0, 0, 400,400.59259259259255"><g id="svgg"><path id="path0" d="M195.079 142.978 C 189.512 144.963,184.348 152.276,180.799 163.200 C 180.048 165.510,179.399 167.458,179.355 167.528 C 179.312 167.599,178.134 167.375,176.738 167.031 C 154.479 161.546,140.626 170.142,148.232 184.720 C 148.542 185.314,148.796 185.932,148.798 186.094 C 148.807 187.198,154.650 195.226,158.160 198.956 C 160.366 201.300,160.364 200.748,158.169 203.066 C 135.992 226.492,145.895 241.923,178.400 234.589 C 179.360 234.372,179.456 234.537,180.798 238.675 C 182.138 242.810,185.139 249.543,186.203 250.800 C 186.496 251.147,186.693 252.359,186.668 253.673 C 186.607 256.983,188.900 259.148,191.942 258.654 C 192.754 258.523,194.297 258.696,195.550 259.061 C 203.946 261.502,211.003 254.726,216.444 239.000 C 218.172 234.004,217.638 234.306,222.800 235.401 C 237.610 238.540,248.327 235.708,250.417 228.104 C 250.705 227.057,251.539 225.493,252.270 224.628 C 254.631 221.837,253.150 216.800,249.968 216.800 C 249.485 216.800,248.890 216.310,248.481 215.575 C 247.412 213.653,244.695 209.499,243.807 208.428 C 243.363 207.894,241.785 206.060,240.300 204.353 C 237.114 200.692,237.181 201.063,239.307 198.790 C 260.588 176.035,250.626 159.277,220.430 167.035 C 217.803 167.710,218.202 168.122,216.415 162.894 C 215.600 160.509,214.453 157.544,213.866 156.304 C 213.044 154.564,212.800 153.441,212.800 151.385 C 212.800 148.481,211.440 146.440,209.458 146.369 C 207.833 146.311,207.157 146.062,205.783 145.014 C 202.493 142.505,198.523 141.749,195.079 142.978 M202.200 146.520 L 203.800 147.427 203.800 150.345 C 203.800 154.020,205.119 155.600,208.188 155.600 C 209.802 155.600,210.016 155.717,210.552 156.900 C 212.330 160.818,212.874 162.237,214.295 166.658 C 214.850 168.388,214.708 168.510,210.400 169.999 C 208.310 170.721,204.800 172.110,202.600 173.085 C 198.761 174.787,198.552 174.834,197.400 174.253 C 195.362 173.226,192.751 172.158,189.000 170.818 C 187.020 170.110,185.087 169.366,184.705 169.165 C 184.323 168.964,183.738 168.800,183.405 168.800 C 182.547 168.800,182.649 167.743,183.853 164.146 C 188.642 149.842,195.848 142.920,202.200 146.520 M171.600 169.226 C 179.030 170.635,178.679 170.392,178.018 173.656 C 177.544 175.996,176.530 182.593,176.142 185.856 C 175.899 187.894,175.868 187.933,172.449 190.456 C 170.552 191.855,167.616 194.215,165.925 195.700 C 162.132 199.030,162.632 199.088,158.965 194.900 C 143.061 176.736,148.877 164.919,171.600 169.226 M238.223 168.792 C 250.740 170.419,250.511 181.703,237.681 195.598 L 234.912 198.596 233.156 197.092 C 232.190 196.265,229.420 194.051,227.000 192.173 C 224.580 190.295,222.308 188.519,221.951 188.227 C 221.496 187.854,221.161 186.452,220.832 183.547 C 220.574 181.266,220.007 177.544,219.572 175.276 C 218.748 170.977,218.792 170.400,219.940 170.400 C 220.320 170.400,221.705 170.117,223.016 169.772 C 227.402 168.617,233.738 168.209,238.223 168.792 M191.500 175.252 C 194.892 176.721,194.910 176.759,192.695 177.787 C 191.763 178.220,188.570 180.001,185.600 181.744 C 182.630 183.487,180.041 185.003,179.847 185.113 C 179.265 185.443,180.776 174.643,181.606 172.542 L 181.945 171.684 185.272 172.840 C 187.103 173.476,189.905 174.562,191.500 175.252 M216.506 176.203 C 218.127 185.382,218.037 185.773,214.800 183.573 C 213.810 182.901,212.640 182.177,212.200 181.965 C 211.760 181.753,210.320 180.948,209.000 180.176 C 207.680 179.403,205.832 178.381,204.894 177.903 C 202.288 176.577,202.776 176.219,211.400 173.146 C 215.794 171.580,215.677 171.510,216.506 176.203 M203.132 180.651 C 217.259 188.189,218.232 189.066,218.613 194.619 C 218.914 199.016,218.628 210.970,218.196 212.032 C 217.817 212.964,209.337 218.094,202.026 221.816 L 198.651 223.533 195.119 221.759 C 190.276 219.327,180.355 213.341,179.500 212.335 C 178.275 210.894,178.452 190.711,179.700 189.466 C 180.742 188.427,186.368 184.908,191.000 182.399 C 192.760 181.445,194.920 180.253,195.800 179.749 C 198.101 178.433,199.238 178.573,203.132 180.651 M195.200 190.307 C 187.213 192.641,184.888 204.014,191.292 209.420 C 194.597 212.209,199.857 212.905,203.513 211.035 C 215.814 204.747,208.467 186.430,195.200 190.307 M175.600 201.024 C 175.600 207.304,175.484 209.198,175.100 209.189 C 174.207 209.170,165.200 201.630,165.200 200.901 C 165.200 200.711,166.935 199.125,169.055 197.378 C 171.175 195.630,173.379 193.812,173.952 193.337 C 175.546 192.018,175.600 192.270,175.600 201.024 M224.033 193.911 C 225.581 195.087,228.545 197.511,230.673 199.341 C 231.403 199.969,232.000 200.694,232.000 200.952 C 232.000 201.703,223.029 209.200,222.130 209.200 C 221.949 209.200,221.800 205.510,221.800 201.000 C 221.800 192.113,221.774 192.195,224.033 193.911 M166.505 206.700 C 168.546 208.405,171.494 210.763,173.056 211.939 C 175.808 214.011,175.904 214.142,176.141 216.139 C 176.544 219.527,177.556 226.074,177.974 228.000 C 178.189 228.990,178.373 230.102,178.383 230.472 C 178.405 231.333,175.698 232.120,169.794 232.968 C 147.862 236.116,143.284 224.492,159.395 206.562 C 162.627 202.965,162.020 202.954,166.505 206.700 M237.249 205.900 C 239.795 208.578,242.508 212.111,244.342 215.136 L 245.637 217.272 244.776 219.049 C 243.594 221.490,243.964 223.320,246.022 225.221 L 247.573 226.652 246.752 228.311 C 245.076 231.698,240.841 233.386,234.000 233.395 C 229.321 233.401,219.795 231.928,218.932 231.065 C 218.851 230.984,219.138 229.047,219.569 226.759 C 220.000 224.472,220.549 220.890,220.789 218.800 C 221.357 213.858,221.281 214.026,223.686 212.400 C 226.104 210.766,233.738 204.474,233.933 203.955 C 234.231 203.163,235.171 203.715,237.249 205.900 M181.840 217.916 C 183.780 219.304,187.750 221.616,192.080 223.880 C 195.154 225.487,195.364 225.284,187.600 228.244 C 181.289 230.651,181.514 230.707,180.990 226.600 C 180.850 225.500,180.584 224.060,180.399 223.400 C 179.844 221.425,179.501 216.800,179.908 216.800 C 180.113 216.800,180.982 217.302,181.840 217.916 M217.499 218.900 C 217.148 223.122,215.871 229.674,215.363 229.870 C 214.044 230.376,202.600 225.723,203.247 224.944 C 203.495 224.645,203.872 224.400,204.085 224.400 C 204.598 224.400,215.636 218.087,216.386 217.364 C 217.411 216.376,217.679 216.745,217.499 218.900 M202.989 229.026 C 205.415 230.030,207.760 231.007,208.200 231.197 C 208.640 231.387,210.163 231.929,211.585 232.400 C 213.006 232.872,214.287 233.330,214.431 233.419 C 214.724 233.601,213.551 238.182,213.094 238.639 C 212.932 238.801,212.800 239.191,212.800 239.506 C 212.800 239.821,212.543 240.646,212.229 241.340 C 211.915 242.033,211.261 243.496,210.777 244.592 C 207.611 251.752,202.650 256.406,198.200 256.392 C 196.440 256.386,196.132 256.024,195.914 253.700 C 195.620 250.565,193.452 248.837,190.377 249.289 C 188.658 249.541,185.633 243.812,183.081 235.473 L 182.492 233.545 183.546 233.156 C 184.126 232.942,185.410 232.482,186.400 232.135 C 187.390 231.787,188.767 231.254,189.460 230.951 C 190.154 230.648,190.891 230.400,191.099 230.400 C 191.307 230.400,192.000 230.156,192.639 229.857 C 193.277 229.559,194.790 228.850,196.000 228.282 C 197.210 227.713,198.285 227.238,198.389 227.224 C 198.493 227.211,200.563 228.022,202.989 229.026 " stroke="none" fill="#f6f7fa" fill-rule="evenodd"></path><path id="path1" d="M196.083 142.340 C 195.794 142.524,196.589 142.596,197.883 142.504 C 201.042 142.279,201.458 142.068,198.800 142.038 C 197.590 142.024,196.367 142.160,196.083 142.340 M192.000 149.000 C 191.028 149.990,190.323 150.800,190.433 150.800 C 190.543 150.800,191.428 149.990,192.400 149.000 C 193.372 148.010,194.077 147.200,193.967 147.200 C 193.857 147.200,192.972 148.010,192.000 149.000 M187.200 149.200 C 186.730 149.860,186.436 150.400,186.546 150.400 C 186.656 150.400,187.130 149.860,187.600 149.200 C 188.070 148.540,188.364 148.000,188.254 148.000 C 188.144 148.000,187.670 148.540,187.200 149.200 M203.443 149.433 C 203.112 150.295,203.147 152.098,203.506 152.662 C 203.668 152.916,203.800 152.151,203.800 150.962 C 203.800 148.571,203.790 148.528,203.443 149.433 M212.909 150.800 C 212.909 151.790,212.987 152.195,213.082 151.700 C 213.178 151.205,213.178 150.395,213.082 149.900 C 212.987 149.405,212.909 149.810,212.909 150.800 M207.000 155.803 C 207.914 156.121,210.329 156.209,210.148 155.916 C 210.041 155.742,209.198 155.614,208.276 155.632 C 207.354 155.649,206.780 155.726,207.000 155.803 M181.244 160.844 C 180.998 161.551,180.866 162.200,180.952 162.285 C 181.038 162.371,181.309 161.862,181.556 161.156 C 181.802 160.449,181.934 159.800,181.848 159.715 C 181.762 159.629,181.491 160.138,181.244 160.844 M213.029 163.600 C 213.176 164.150,213.464 164.870,213.667 165.200 C 213.925 165.617,213.957 165.495,213.771 164.800 C 213.624 164.250,213.336 163.530,213.133 163.200 C 212.875 162.783,212.843 162.905,213.029 163.600 M168.400 165.620 C 170.814 166.050,172.706 166.013,170.600 165.577 C 169.720 165.395,168.460 165.258,167.800 165.273 C 166.900 165.293,167.050 165.380,168.400 165.620 M226.600 165.600 C 224.937 166.023,226.574 166.042,228.600 165.623 C 229.945 165.345,230.009 165.292,229.000 165.293 C 228.340 165.294,227.260 165.432,226.600 165.600 M175.800 166.800 C 176.240 166.989,176.960 167.138,177.400 167.132 C 178.043 167.123,178.004 167.057,177.200 166.800 C 175.832 166.362,174.781 166.362,175.800 166.800 M182.800 167.800 C 182.800 168.350,182.955 168.800,183.145 168.800 C 183.334 168.800,183.403 168.350,183.298 167.800 C 183.193 167.250,183.038 166.800,182.953 166.800 C 182.869 166.800,182.800 167.250,182.800 167.800 M149.667 169.100 L 148.165 170.600 149.582 169.401 C 150.362 168.742,151.171 168.067,151.380 167.901 C 151.589 167.735,151.627 167.600,151.465 167.600 C 151.302 167.600,150.493 168.275,149.667 169.100 M162.307 168.690 C 163.026 168.779,164.106 168.777,164.707 168.686 C 165.308 168.595,164.720 168.522,163.400 168.524 C 162.080 168.526,161.588 168.601,162.307 168.690 M232.700 168.689 C 233.415 168.778,234.585 168.778,235.300 168.689 C 236.015 168.601,235.430 168.528,234.000 168.528 C 232.570 168.528,231.985 168.601,232.700 168.689 M170.833 169.343 C 170.925 169.422,171.720 169.597,172.600 169.732 C 173.690 169.899,174.009 169.855,173.600 169.595 C 173.053 169.246,170.445 169.009,170.833 169.343 M218.938 171.017 C 218.808 171.357,218.813 171.747,218.951 171.884 C 219.088 172.021,219.200 171.847,219.200 171.496 C 219.200 171.145,219.515 170.776,219.900 170.676 C 220.556 170.504,220.555 170.490,219.887 170.446 C 219.496 170.421,219.068 170.678,218.938 171.017 M181.606 172.389 C 181.383 172.806,181.216 173.474,181.236 173.874 C 181.256 174.273,181.439 174.022,181.644 173.315 C 181.902 172.421,182.195 172.100,182.607 172.258 C 182.933 172.383,183.200 172.396,183.200 172.286 C 183.200 171.658,181.954 171.739,181.606 172.389 M214.875 172.248 C 215.247 172.358,215.636 172.843,215.741 173.325 C 215.900 174.058,215.920 174.039,215.866 173.204 C 215.821 172.528,215.543 172.182,215.000 172.127 C 214.424 172.069,214.389 172.102,214.875 172.248 M202.000 173.000 C 201.450 173.314,201.180 173.572,201.400 173.572 C 201.620 173.572,202.250 173.314,202.800 173.000 C 203.350 172.686,203.620 172.428,203.400 172.428 C 203.180 172.428,202.550 172.686,202.000 173.000 M219.462 174.600 C 219.596 175.480,219.772 176.275,219.853 176.367 C 220.156 176.710,219.929 174.568,219.581 173.800 C 219.329 173.242,219.293 173.485,219.462 174.600 M197.376 174.178 C 198.283 174.904,198.774 174.946,199.600 174.368 C 200.072 174.037,200.011 174.001,199.315 174.196 C 198.828 174.333,198.018 174.244,197.515 174.000 C 196.639 173.575,196.633 173.583,197.376 174.178 M250.914 177.000 C 250.917 178.100,250.995 178.503,251.087 177.895 C 251.179 177.286,251.177 176.386,251.082 175.895 C 250.987 175.403,250.911 175.900,250.914 177.000 M206.400 178.579 C 206.400 178.689,206.940 179.059,207.600 179.400 C 208.260 179.741,208.800 179.931,208.800 179.821 C 208.800 179.711,208.260 179.341,207.600 179.000 C 206.940 178.659,206.400 178.469,206.400 178.579 M180.093 180.400 C 180.093 181.170,180.175 181.485,180.276 181.100 C 180.376 180.715,180.376 180.085,180.276 179.700 C 180.175 179.315,180.093 179.630,180.093 180.400 M176.501 181.400 C 176.505 182.280,176.587 182.593,176.683 182.095 C 176.779 181.598,176.775 180.878,176.675 180.495 C 176.575 180.113,176.496 180.520,176.501 181.400 M220.901 183.800 C 220.905 184.680,220.987 184.993,221.083 184.495 C 221.179 183.998,221.175 183.278,221.075 182.895 C 220.975 182.513,220.896 182.920,220.901 183.800 M154.619 189.416 C 154.979 190.085,156.082 191.525,157.069 192.616 L 158.865 194.600 157.132 192.382 C 156.180 191.162,155.077 189.722,154.683 189.182 C 153.973 188.211,153.973 188.214,154.619 189.416 M179.423 189.689 C 178.967 190.339,178.819 191.441,178.869 193.789 L 178.938 197.000 179.169 193.559 C 179.304 191.550,179.628 189.844,179.949 189.459 C 180.251 189.097,180.396 188.800,180.272 188.800 C 180.147 188.800,179.765 189.200,179.423 189.689 M218.114 192.200 C 218.117 193.300,218.195 193.703,218.287 193.095 C 218.379 192.486,218.377 191.586,218.282 191.095 C 218.187 190.603,218.111 191.100,218.114 192.200 M204.000 190.911 C 204.000 190.987,204.585 191.478,205.300 192.001 C 206.104 192.590,206.384 192.687,206.033 192.255 C 205.500 191.599,204.000 190.607,204.000 190.911 M174.363 193.083 C 173.850 193.737,173.862 193.751,174.500 193.251 C 175.161 192.732,175.205 193.164,175.291 201.051 L 175.382 209.400 175.500 201.229 C 175.617 193.073,175.429 191.726,174.363 193.083 M221.670 194.700 L 221.740 196.600 221.895 194.867 C 222.014 193.531,222.186 193.186,222.645 193.362 C 222.982 193.491,223.135 193.419,222.997 193.195 C 222.302 192.070,221.602 192.862,221.670 194.700 M171.400 195.444 L 169.800 196.876 171.500 195.604 C 172.963 194.510,173.491 193.983,173.100 194.006 C 173.045 194.009,172.280 194.656,171.400 195.444 M218.564 201.000 C 218.563 204.740,218.623 206.324,218.697 204.520 C 218.771 202.715,218.772 199.655,218.698 197.720 C 218.625 195.784,218.564 197.260,218.564 201.000 M159.200 195.118 C 159.200 195.578,162.156 198.400,162.638 198.400 C 162.861 198.400,163.663 197.725,164.422 196.900 L 165.800 195.400 164.381 196.700 C 162.581 198.349,162.395 198.334,160.647 196.399 C 159.851 195.518,159.200 194.942,159.200 195.118 M226.088 195.813 C 226.686 196.443,227.247 196.877,227.335 196.779 C 227.423 196.680,226.933 196.165,226.247 195.634 L 225.000 194.669 226.088 195.813 M230.800 194.925 C 230.800 194.994,231.385 195.579,232.100 196.225 L 233.400 197.400 232.225 196.100 C 231.130 194.888,230.800 194.616,230.800 194.925 M167.775 198.500 L 166.600 199.800 167.900 198.625 C 169.112 197.530,169.384 197.200,169.075 197.200 C 169.006 197.200,168.421 197.785,167.775 198.500 M187.456 198.084 C 187.321 198.588,187.235 199.990,187.264 201.200 C 187.315 203.285,187.332 203.243,187.603 200.400 C 187.904 197.237,187.862 196.571,187.456 198.084 M229.600 198.525 C 229.600 198.594,230.185 199.179,230.900 199.825 L 232.200 201.000 231.025 199.700 C 229.930 198.488,229.600 198.216,229.600 198.525 M237.600 201.325 C 237.600 201.394,238.185 201.979,238.900 202.625 L 240.200 203.800 239.025 202.500 C 237.930 201.288,237.600 201.016,237.600 201.325 M209.693 202.800 C 209.693 203.570,209.775 203.885,209.876 203.500 C 209.976 203.115,209.976 202.485,209.876 202.100 C 209.775 201.715,209.693 202.030,209.693 202.800 M228.175 204.500 L 227.000 205.800 228.300 204.625 C 229.015 203.979,229.600 203.394,229.600 203.325 C 229.600 203.016,229.270 203.288,228.175 204.500 M156.175 204.900 L 155.000 206.200 156.300 205.025 C 157.015 204.379,157.600 203.794,157.600 203.725 C 157.600 203.416,157.270 203.688,156.175 204.900 M160.383 205.500 L 158.600 207.400 160.415 205.700 C 162.521 203.728,162.615 203.707,163.974 204.900 L 165.000 205.800 164.030 204.700 C 162.733 203.228,162.459 203.289,160.383 205.500 M178.940 208.400 C 178.940 210.270,179.009 211.035,179.093 210.100 C 179.177 209.165,179.177 207.635,179.093 206.700 C 179.009 205.765,178.940 206.530,178.940 208.400 M236.400 205.325 C 236.400 205.394,236.985 205.979,237.700 206.625 L 239.000 207.800 237.825 206.500 C 236.730 205.288,236.400 205.016,236.400 205.325 M221.670 207.300 C 221.602 209.138,222.302 209.930,222.997 208.805 C 223.135 208.581,222.982 208.509,222.645 208.638 C 222.186 208.814,222.014 208.469,221.895 207.133 L 221.740 205.400 221.670 207.300 M157.375 208.900 L 156.200 210.200 157.500 209.025 C 158.712 207.930,158.984 207.600,158.675 207.600 C 158.606 207.600,158.021 208.185,157.375 208.900 M218.120 210.000 C 218.120 211.210,218.195 211.705,218.287 211.100 C 218.378 210.495,218.378 209.505,218.287 208.900 C 218.195 208.295,218.120 208.790,218.120 210.000 M197.300 212.287 C 197.905 212.378,198.895 212.378,199.500 212.287 C 200.105 212.195,199.610 212.120,198.400 212.120 C 197.190 212.120,196.695 212.195,197.300 212.287 M179.600 217.267 C 179.600 217.523,179.714 217.620,179.853 217.481 C 179.992 217.342,180.487 217.412,180.953 217.636 C 181.776 218.033,181.778 218.027,181.024 217.422 C 180.099 216.682,179.600 216.627,179.600 217.267 M220.901 218.200 C 220.905 219.080,220.987 219.393,221.083 218.895 C 221.179 218.398,221.175 217.678,221.075 217.295 C 220.975 216.913,220.896 217.320,220.901 218.200 M176.501 220.600 C 176.505 221.480,176.587 221.793,176.683 221.295 C 176.779 220.798,176.775 220.078,176.675 219.695 C 176.575 219.313,176.496 219.720,176.501 220.600 M180.093 221.600 C 180.093 222.370,180.175 222.685,180.276 222.300 C 180.376 221.915,180.376 221.285,180.276 220.900 C 180.175 220.515,180.093 220.830,180.093 221.600 M252.026 224.907 C 250.887 226.311,250.842 226.429,251.763 225.600 C 252.720 224.738,253.856 223.186,253.514 223.207 C 253.451 223.211,252.782 223.976,252.026 224.907 M149.693 224.800 C 149.693 225.570,149.775 225.885,149.876 225.500 C 149.976 225.115,149.976 224.485,149.876 224.100 C 149.775 223.715,149.693 224.030,149.693 224.800 M181.206 228.233 C 181.209 228.655,181.395 229.270,181.618 229.600 C 181.915 230.038,181.952 229.876,181.756 229.000 C 181.427 227.529,181.198 227.210,181.206 228.233 M210.000 228.333 C 210.330 228.536,211.050 228.824,211.600 228.971 C 212.295 229.157,212.417 229.125,212.000 228.867 C 211.670 228.664,210.950 228.376,210.400 228.229 C 209.705 228.043,209.583 228.075,210.000 228.333 M215.632 228.672 C 215.611 229.245,215.291 229.604,214.700 229.718 L 213.800 229.891 214.713 229.946 C 215.660 230.002,216.227 229.203,215.869 228.313 C 215.756 228.031,215.649 228.192,215.632 228.672 M218.800 230.557 C 218.800 230.864,219.096 231.228,219.457 231.367 C 220.369 231.717,220.392 231.520,219.533 230.700 C 218.975 230.167,218.800 230.133,218.800 230.557 M248.024 232.118 C 246.343 234.089,246.329 234.125,247.757 232.800 C 249.023 231.626,250.318 229.954,249.914 230.018 C 249.851 230.028,249.001 230.973,248.024 232.118 M147.613 230.486 C 147.591 230.973,150.063 233.608,150.955 234.048 C 151.420 234.277,151.228 233.997,150.528 233.426 C 149.829 232.854,148.890 231.895,148.441 231.293 C 147.992 230.692,147.620 230.329,147.613 230.486 M189.700 230.812 C 188.361 231.351,188.611 231.624,190.000 231.140 C 190.660 230.910,191.200 230.649,191.200 230.561 C 191.200 230.324,190.713 230.405,189.700 230.812 M154.400 231.831 C 154.400 232.101,156.478 232.856,156.676 232.657 C 156.767 232.567,156.292 232.301,155.620 232.067 C 154.949 231.833,154.400 231.727,154.400 231.831 M173.800 232.000 C 172.711 232.277,172.693 232.307,173.600 232.325 C 174.150 232.335,174.960 232.189,175.400 232.000 C 176.386 231.576,175.466 231.576,173.800 232.000 M186.200 232.214 C 185.200 232.696,185.166 232.751,186.000 232.548 C 187.133 232.271,188.407 231.621,187.800 231.630 C 187.580 231.633,186.860 231.896,186.200 232.214 M161.712 233.495 C 162.764 233.577,164.384 233.576,165.312 233.492 C 166.240 233.408,165.380 233.341,163.400 233.342 C 161.420 233.343,160.660 233.412,161.712 233.495 M232.112 233.495 C 233.164 233.577,234.784 233.576,235.712 233.492 C 236.640 233.408,235.780 233.341,233.800 233.342 C 231.820 233.343,231.060 233.412,232.112 233.495 M217.784 234.827 C 217.639 235.061,217.628 235.361,217.760 235.493 C 217.892 235.625,218.000 235.501,218.000 235.217 C 218.000 234.849,218.376 234.772,219.300 234.949 C 220.224 235.127,220.427 235.085,220.000 234.806 C 219.206 234.285,218.112 234.295,217.784 234.827 M155.400 236.000 C 155.840 236.189,156.470 236.344,156.800 236.344 C 157.178 236.344,157.104 236.217,156.600 236.000 C 156.160 235.811,155.530 235.656,155.200 235.656 C 154.822 235.656,154.896 235.783,155.400 236.000 M171.400 236.019 C 170.842 236.271,171.085 236.307,172.200 236.138 C 173.080 236.004,173.875 235.828,173.967 235.747 C 174.310 235.444,172.168 235.671,171.400 236.019 M223.233 235.747 C 223.325 235.828,224.120 236.004,225.000 236.138 C 226.115 236.307,226.358 236.271,225.800 236.019 C 225.032 235.671,222.890 235.444,223.233 235.747 M159.505 236.683 C 160.002 236.779,160.722 236.775,161.105 236.675 C 161.487 236.575,161.080 236.496,160.200 236.501 C 159.320 236.505,159.007 236.587,159.505 236.683 M165.900 236.682 C 166.395 236.778,167.205 236.778,167.700 236.682 C 168.195 236.587,167.790 236.509,166.800 236.509 C 165.810 236.509,165.405 236.587,165.900 236.682 M229.505 236.683 C 230.002 236.779,230.722 236.775,231.105 236.675 C 231.487 236.575,231.080 236.496,230.200 236.501 C 229.320 236.505,229.007 236.587,229.505 236.683 M181.029 240.400 C 181.176 240.950,181.464 241.670,181.667 242.000 C 181.925 242.417,181.957 242.295,181.771 241.600 C 181.624 241.050,181.336 240.330,181.133 240.000 C 180.875 239.583,180.843 239.705,181.029 240.400 M212.067 240.780 C 211.833 241.451,211.727 242.000,211.831 242.000 C 212.101 242.000,212.856 239.922,212.657 239.724 C 212.567 239.633,212.301 240.108,212.067 240.780 M190.500 249.076 C 190.885 249.176,191.515 249.176,191.900 249.076 C 192.285 248.975,191.970 248.893,191.200 248.893 C 190.430 248.893,190.115 248.975,190.500 249.076 M186.152 252.741 C 186.118 254.034,186.201 254.356,186.424 253.800 C 186.840 252.759,186.881 251.296,186.500 251.065 C 186.335 250.965,186.178 251.719,186.152 252.741 M197.500 256.282 C 197.995 256.378,198.805 256.378,199.300 256.282 C 199.795 256.187,199.390 256.109,198.400 256.109 C 197.410 256.109,197.005 256.187,197.500 256.282 M187.688 257.413 C 188.286 258.043,188.847 258.477,188.935 258.379 C 189.023 258.280,188.533 257.765,187.847 257.234 L 186.600 256.269 187.688 257.413 M194.800 259.182 C 195.130 259.405,195.745 259.591,196.167 259.594 C 197.190 259.602,196.871 259.373,195.400 259.044 C 194.524 258.848,194.362 258.885,194.800 259.182 M197.900 259.882 C 198.395 259.978,199.205 259.978,199.700 259.882 C 200.195 259.787,199.790 259.709,198.800 259.709 C 197.810 259.709,197.405 259.787,197.900 259.882 " stroke="none" fill="#879fd4" fill-rule="evenodd"></path><path id="path2" d="M213.301 151.000 C 213.305 151.880,213.387 152.193,213.483 151.695 C 213.579 151.198,213.575 150.478,213.475 150.095 C 213.375 149.713,213.296 150.120,213.301 151.000 M161.911 165.093 C 162.851 165.178,164.291 165.177,165.111 165.091 C 165.930 165.005,165.160 164.936,163.400 164.937 C 161.640 164.939,160.970 165.009,161.911 165.093 M230.900 165.076 C 231.285 165.176,231.915 165.176,232.300 165.076 C 232.685 164.975,232.370 164.893,231.600 164.893 C 230.830 164.893,230.515 164.975,230.900 165.076 M197.905 189.483 C 198.402 189.579,199.122 189.575,199.505 189.475 C 199.887 189.375,199.480 189.296,198.600 189.301 C 197.720 189.305,197.407 189.387,197.905 189.483 M222.101 194.600 C 222.105 195.480,222.187 195.793,222.283 195.295 C 222.379 194.798,222.375 194.078,222.275 193.695 C 222.175 193.313,222.096 193.720,222.101 194.600 M218.134 197.200 C 218.134 198.850,218.205 199.525,218.291 198.700 C 218.378 197.875,218.378 196.525,218.291 195.700 C 218.205 194.875,218.134 195.550,218.134 197.200 M178.942 201.000 C 178.941 202.980,179.008 203.840,179.092 202.912 C 179.176 201.984,179.177 200.364,179.095 199.312 C 179.012 198.260,178.943 199.020,178.942 201.000 M218.134 204.400 C 218.134 206.050,218.205 206.725,218.291 205.900 C 218.378 205.075,218.378 203.725,218.291 202.900 C 218.205 202.075,218.134 202.750,218.134 204.400 M222.000 207.200 C 222.000 208.080,222.140 208.800,222.311 208.800 C 222.481 208.800,222.552 208.080,222.469 207.200 C 222.385 206.320,222.245 205.600,222.158 205.600 C 222.071 205.600,222.000 206.320,222.000 207.200 M197.900 212.682 C 198.395 212.778,199.205 212.778,199.700 212.682 C 200.195 212.587,199.790 212.509,198.800 212.509 C 197.810 212.509,197.405 212.587,197.900 212.682 M248.175 232.500 L 247.000 233.800 248.300 232.625 C 249.015 231.979,249.600 231.394,249.600 231.325 C 249.600 231.016,249.270 231.288,248.175 232.500 M160.100 237.076 C 160.485 237.176,161.115 237.176,161.500 237.076 C 161.885 236.975,161.570 236.893,160.800 236.893 C 160.030 236.893,159.715 236.975,160.100 237.076 M165.300 237.076 C 165.685 237.176,166.315 237.176,166.700 237.076 C 167.085 236.975,166.770 236.893,166.000 236.893 C 165.230 236.893,164.915 236.975,165.300 237.076 M190.500 259.076 C 190.885 259.176,191.515 259.176,191.900 259.076 C 192.285 258.975,191.970 258.893,191.200 258.893 C 190.430 258.893,190.115 258.975,190.500 259.076 " stroke="none" fill="#5481bf" fill-rule="evenodd"></path><path id="path3" d="M146.109 177.200 C 146.109 178.190,146.187 178.595,146.282 178.100 C 146.378 177.605,146.378 176.795,146.282 176.300 C 146.187 175.805,146.109 176.210,146.109 177.200 M247.293 177.200 C 247.293 177.970,247.375 178.285,247.476 177.900 C 247.576 177.515,247.576 176.885,247.476 176.500 C 247.375 176.115,247.293 176.430,247.293 177.200 M222.154 200.800 C 222.154 203.550,222.218 204.675,222.296 203.300 C 222.374 201.925,222.374 199.675,222.296 198.300 C 222.218 196.925,222.154 198.050,222.154 200.800 M253.693 221.600 C 253.693 222.370,253.775 222.685,253.876 222.300 C 253.976 221.915,253.976 221.285,253.876 220.900 C 253.775 220.515,253.693 220.830,253.693 221.600 M146.109 224.800 C 146.109 225.790,146.187 226.195,146.282 225.700 C 146.378 225.205,146.378 224.395,146.282 223.900 C 146.187 223.405,146.109 223.810,146.109 224.800 M162.705 237.083 C 163.202 237.179,163.922 237.175,164.305 237.075 C 164.687 236.975,164.280 236.896,163.400 236.901 C 162.520 236.905,162.207 236.987,162.705 237.083 M232.707 237.090 C 233.426 237.179,234.506 237.177,235.107 237.086 C 235.708 236.995,235.120 236.922,233.800 236.924 C 232.480 236.926,231.988 237.001,232.707 237.090 " stroke="none" fill="#7494cc" fill-rule="evenodd"></path><path id="path4" d="M191.491 100.642 C 191.342 100.791,190.238 100.936,189.037 100.963 C 187.836 100.990,186.722 101.145,186.560 101.306 C 186.399 101.468,185.456 101.600,184.465 101.600 C 183.350 101.600,182.384 101.852,181.931 102.262 C 181.502 102.651,181.200 102.735,181.200 102.466 C 181.200 102.215,180.750 102.046,180.200 102.092 C 179.650 102.137,179.200 102.315,179.200 102.487 C 179.200 102.659,178.559 102.800,177.776 102.800 C 176.993 102.800,176.441 102.942,176.548 103.116 C 176.656 103.290,176.127 103.361,175.372 103.273 C 174.617 103.185,174.000 103.291,174.000 103.510 C 174.000 104.021,172.499 104.495,171.140 104.412 C 170.556 104.377,169.971 104.524,169.838 104.739 C 169.705 104.954,168.877 105.252,167.998 105.400 C 167.119 105.549,166.400 105.811,166.400 105.984 C 166.400 106.157,165.695 106.410,164.834 106.548 C 163.972 106.686,163.206 106.983,163.131 107.208 C 163.056 107.433,162.455 107.714,161.797 107.832 C 161.139 107.950,160.540 108.216,160.467 108.424 C 160.393 108.631,160.078 108.800,159.767 108.800 C 159.455 108.800,159.200 108.963,159.200 109.163 C 159.200 109.362,158.840 109.431,158.400 109.316 C 157.953 109.199,157.600 109.304,157.600 109.553 C 157.600 109.799,157.336 110.000,157.012 110.000 C 156.396 110.000,153.145 111.563,152.800 112.024 C 152.690 112.172,152.192 112.419,151.694 112.575 C 151.196 112.730,150.879 113.005,150.991 113.185 C 151.102 113.365,150.565 113.630,149.796 113.774 C 149.028 113.918,148.400 114.187,148.400 114.371 C 148.400 114.556,148.085 114.820,147.700 114.957 C 146.590 115.355,144.141 116.942,142.816 118.123 C 142.147 118.719,141.600 119.106,141.600 118.983 C 141.600 118.478,138.622 120.701,136.621 122.700 C 135.905 123.415,135.186 124.000,135.024 124.000 C 134.861 124.000,132.870 125.845,130.599 128.100 C 128.328 130.355,126.005 132.623,125.437 133.141 C 124.868 133.658,124.506 134.247,124.631 134.450 C 124.757 134.654,124.621 134.770,124.330 134.710 C 124.038 134.649,123.845 134.825,123.900 135.100 C 123.955 135.375,123.775 135.555,123.500 135.500 C 123.225 135.445,123.025 135.713,123.055 136.096 C 123.086 136.491,122.927 136.679,122.687 136.530 C 122.421 136.366,122.362 136.523,122.527 136.955 C 122.680 137.353,122.629 137.541,122.406 137.404 C 122.020 137.165,120.782 138.330,120.806 138.910 C 120.813 139.081,120.365 139.642,119.810 140.156 C 119.254 140.671,118.800 141.256,118.800 141.457 C 118.800 141.658,118.440 142.130,118.000 142.507 C 117.560 142.884,117.200 143.445,117.200 143.753 C 117.200 144.062,116.930 144.418,116.600 144.545 C 116.270 144.671,116.000 145.151,116.000 145.611 C 116.000 146.071,115.825 146.339,115.612 146.207 C 115.398 146.075,115.109 146.425,114.968 146.984 C 114.828 147.543,114.553 148.000,114.357 148.000 C 114.160 148.000,114.000 148.261,114.000 148.580 C 114.000 148.899,113.713 149.321,113.362 149.518 C 113.010 149.714,112.695 150.353,112.662 150.937 C 112.628 151.521,112.396 152.000,112.147 152.000 C 111.897 152.000,111.578 152.315,111.436 152.700 C 111.295 153.085,110.644 154.382,109.990 155.583 C 109.335 156.783,108.800 158.189,108.800 158.706 C 108.800 159.224,108.635 159.545,108.433 159.420 C 108.230 159.295,107.946 159.735,107.801 160.397 C 107.655 161.058,107.391 161.600,107.213 161.600 C 106.909 161.600,106.266 163.907,106.218 165.167 C 106.206 165.479,105.972 165.809,105.698 165.901 C 105.424 165.992,105.200 166.592,105.200 167.233 C 105.200 167.875,105.009 168.400,104.776 168.400 C 104.543 168.400,104.456 168.568,104.583 168.772 C 104.709 168.977,104.651 169.245,104.453 169.367 C 104.254 169.490,103.971 170.402,103.822 171.395 C 103.673 172.388,103.400 173.200,103.215 173.200 C 103.030 173.200,102.753 174.280,102.600 175.600 C 102.447 176.920,102.156 178.000,101.954 178.000 C 101.752 178.000,101.588 178.495,101.588 179.100 C 101.589 181.222,101.116 184.000,100.753 184.000 C 100.552 184.000,100.393 184.495,100.399 185.100 C 100.434 188.277,99.851 195.200,99.549 195.200 C 99.078 195.200,99.101 206.540,99.573 207.020 C 99.779 207.229,99.983 208.750,100.028 210.400 C 100.073 212.050,100.209 213.573,100.330 213.784 C 100.452 213.995,100.503 214.940,100.445 215.884 C 100.387 216.828,100.510 217.600,100.718 217.600 C 100.926 217.600,101.222 219.040,101.376 220.800 C 101.529 222.560,101.802 224.000,101.981 224.000 C 102.161 224.000,102.432 224.992,102.583 226.205 C 102.735 227.418,103.001 228.323,103.175 228.215 C 103.349 228.108,103.601 228.947,103.735 230.080 C 103.869 231.213,104.173 232.260,104.411 232.407 C 104.648 232.553,104.803 232.837,104.755 233.037 C 104.614 233.631,105.252 235.731,105.881 236.736 C 106.203 237.251,106.552 238.148,106.658 238.728 C 106.763 239.308,106.992 239.877,107.167 239.991 C 107.342 240.106,107.609 240.875,107.760 241.700 C 107.912 242.525,108.194 243.200,108.386 243.200 C 108.579 243.200,108.858 243.753,109.006 244.428 C 109.176 245.201,109.467 245.583,109.793 245.458 C 110.149 245.321,110.242 245.518,110.092 246.092 C 109.945 246.655,110.023 246.833,110.332 246.642 C 110.636 246.454,110.705 246.582,110.537 247.020 C 110.398 247.383,110.445 247.798,110.642 247.940 C 110.839 248.083,111.446 249.055,111.992 250.100 C 112.537 251.145,113.108 252.000,113.260 252.000 C 113.412 252.000,113.652 252.525,113.793 253.167 C 113.934 253.808,114.308 254.433,114.624 254.554 C 114.941 254.676,115.200 255.061,115.200 255.411 C 115.200 255.761,115.365 255.945,115.567 255.820 C 115.770 255.695,116.054 256.135,116.199 256.797 C 116.345 257.458,116.635 258.000,116.844 258.000 C 117.054 258.000,117.341 258.315,117.483 258.700 C 117.624 259.085,118.114 259.760,118.570 260.200 C 119.027 260.640,119.621 261.495,119.891 262.100 C 120.162 262.705,120.554 263.200,120.762 263.200 C 120.971 263.200,121.200 263.447,121.271 263.749 C 121.548 264.927,132.618 276.559,133.150 276.231 C 133.313 276.130,133.776 276.487,134.179 277.024 C 134.582 277.561,135.167 278.000,135.480 278.000 C 135.792 278.000,135.935 278.181,135.798 278.403 C 135.661 278.624,135.876 278.929,136.275 279.080 C 136.674 279.230,137.489 279.814,138.087 280.377 C 139.884 282.068,142.800 284.214,142.800 283.846 C 142.800 283.732,143.276 284.080,143.858 284.619 C 144.441 285.159,145.161 285.600,145.458 285.600 C 145.756 285.600,146.000 285.760,146.000 285.957 C 146.000 286.153,146.450 286.426,147.000 286.564 C 147.550 286.702,148.000 286.978,148.000 287.176 C 148.000 287.374,148.525 287.652,149.167 287.793 C 149.808 287.934,150.433 288.308,150.554 288.624 C 150.676 288.941,151.051 289.200,151.387 289.200 C 151.724 289.200,152.000 289.366,152.000 289.568 C 152.000 289.771,152.540 290.055,153.200 290.200 C 153.860 290.345,154.400 290.615,154.400 290.800 C 154.400 290.985,154.940 291.255,155.600 291.400 C 156.260 291.545,156.800 291.841,156.800 292.059 C 156.800 292.280,157.175 292.335,157.650 292.184 C 158.222 292.003,158.411 292.059,158.226 292.357 C 158.060 292.626,158.276 292.800,158.776 292.800 C 159.229 292.800,159.600 292.980,159.600 293.200 C 159.600 293.420,159.825 293.601,160.100 293.602 C 160.375 293.604,161.103 293.867,161.717 294.188 C 162.331 294.508,163.456 294.887,164.217 295.030 C 164.978 295.172,165.600 295.441,165.600 295.626 C 165.600 295.812,166.275 296.088,167.100 296.240 C 167.925 296.391,168.692 296.656,168.805 296.828 C 168.918 297.000,169.792 297.219,170.747 297.315 C 171.702 297.410,172.600 297.672,172.742 297.896 C 172.884 298.120,173.990 298.437,175.200 298.600 C 176.410 298.763,177.490 299.036,177.600 299.207 C 177.791 299.503,178.604 299.617,185.000 300.246 C 186.540 300.397,187.912 300.693,188.050 300.903 C 188.199 301.132,193.006 301.285,200.000 301.285 C 206.994 301.285,211.801 301.132,211.950 300.903 C 212.088 300.693,213.460 300.400,215.000 300.252 C 216.540 300.105,218.610 299.876,219.600 299.744 C 220.590 299.612,221.625 299.495,221.900 299.485 C 222.175 299.475,222.400 299.317,222.400 299.133 C 222.400 298.950,222.951 298.800,223.624 298.800 C 224.297 298.800,224.759 298.658,224.652 298.484 C 224.544 298.310,225.073 298.239,225.828 298.327 C 226.595 298.417,227.200 298.308,227.200 298.081 C 227.200 297.858,228.100 297.551,229.200 297.400 C 230.300 297.249,231.200 296.985,231.200 296.814 C 231.200 296.642,231.920 296.387,232.800 296.246 C 233.680 296.106,234.400 295.833,234.400 295.640 C 234.400 295.447,235.022 295.172,235.783 295.030 C 236.544 294.887,237.669 294.508,238.283 294.188 C 238.897 293.867,239.625 293.604,239.900 293.602 C 240.175 293.601,240.400 293.420,240.400 293.200 C 240.400 292.980,240.760 292.800,241.200 292.800 C 241.640 292.800,242.000 292.609,242.000 292.376 C 242.000 292.143,242.200 292.076,242.445 292.228 C 242.689 292.379,243.035 292.268,243.212 291.981 C 243.389 291.694,243.946 291.396,244.450 291.320 C 244.953 291.243,245.465 291.019,245.587 290.822 C 245.708 290.625,246.301 290.340,246.904 290.188 C 247.507 290.037,248.000 289.753,248.000 289.557 C 248.000 289.360,248.276 289.200,248.613 289.200 C 248.949 289.200,249.324 288.941,249.446 288.624 C 249.567 288.308,250.192 287.934,250.833 287.793 C 251.475 287.652,252.000 287.374,252.000 287.176 C 252.000 286.978,252.450 286.702,253.000 286.564 C 253.550 286.426,254.000 286.052,254.000 285.733 C 254.000 285.414,254.165 285.255,254.367 285.380 C 254.880 285.696,259.517 282.625,262.036 280.300 C 262.691 279.695,263.338 279.200,263.473 279.200 C 263.609 279.200,264.331 278.570,265.079 277.800 C 265.827 277.030,266.610 276.400,266.819 276.400 C 267.323 276.400,268.800 274.909,268.800 274.400 C 268.800 274.180,268.975 274.000,269.189 274.000 C 269.919 274.000,278.792 264.488,278.797 263.700 C 278.799 263.425,278.984 263.200,279.209 263.200 C 279.433 263.200,279.838 262.705,280.109 262.100 C 280.379 261.495,280.973 260.640,281.430 260.200 C 281.886 259.760,282.376 259.085,282.517 258.700 C 282.659 258.315,282.941 258.000,283.144 258.000 C 283.347 258.000,283.626 257.550,283.764 257.000 C 283.902 256.450,284.192 256.000,284.408 256.000 C 284.623 256.000,284.800 255.724,284.800 255.387 C 284.800 255.051,285.059 254.676,285.376 254.554 C 285.692 254.433,286.066 253.808,286.207 253.167 C 286.348 252.525,286.659 252.000,286.898 252.000 C 287.138 252.000,287.224 251.891,287.091 251.757 C 286.957 251.624,287.202 251.135,287.634 250.671 C 288.066 250.208,288.327 249.587,288.214 249.293 C 288.102 248.999,288.187 248.868,288.405 249.003 C 288.622 249.137,288.800 248.967,288.800 248.624 C 288.800 248.281,288.966 248.000,289.168 248.000 C 289.371 248.000,289.655 247.460,289.800 246.800 C 289.945 246.140,290.215 245.600,290.400 245.600 C 290.585 245.600,290.855 245.060,291.000 244.400 C 291.145 243.740,291.421 243.200,291.614 243.200 C 291.806 243.200,292.088 242.525,292.240 241.700 C 292.391 240.875,292.658 240.106,292.833 239.991 C 293.008 239.877,293.246 239.261,293.361 238.624 C 293.477 237.986,293.784 237.333,294.044 237.173 C 294.304 237.012,294.402 236.583,294.263 236.220 C 294.114 235.832,294.173 235.659,294.405 235.803 C 294.622 235.937,294.800 235.713,294.800 235.304 C 294.800 234.895,294.966 234.389,295.169 234.180 C 295.372 233.971,295.771 232.630,296.056 231.200 C 296.341 229.770,296.694 228.510,296.842 228.400 C 296.990 228.290,297.231 227.304,297.379 226.209 C 297.526 225.114,297.797 224.124,297.980 224.009 C 298.164 223.894,298.442 222.450,298.600 220.800 C 298.758 219.150,299.017 217.710,299.177 217.600 C 299.336 217.490,299.507 216.680,299.556 215.800 C 299.943 208.822,300.125 206.983,300.439 206.867 C 300.896 206.698,300.918 195.200,300.462 195.200 C 300.276 195.200,300.006 192.735,299.861 189.723 C 299.717 186.711,299.436 184.146,299.237 184.023 C 298.869 183.796,298.316 180.546,298.365 178.900 C 298.379 178.405,298.231 178.000,298.035 178.000 C 297.839 178.000,297.553 176.920,297.400 175.600 C 297.247 174.280,296.982 173.200,296.811 173.200 C 296.517 173.200,296.199 172.087,295.736 169.438 C 295.624 168.798,295.285 168.028,294.983 167.726 C 294.681 167.424,294.536 166.912,294.660 166.588 C 294.784 166.265,294.676 166.000,294.419 166.000 C 294.163 166.000,294.052 165.839,294.174 165.642 C 294.296 165.445,294.128 164.770,293.800 164.142 C 293.473 163.514,293.204 162.685,293.202 162.300 C 293.201 161.915,293.034 161.600,292.832 161.600 C 292.629 161.600,292.345 161.058,292.199 160.397 C 292.054 159.735,291.770 159.295,291.567 159.420 C 291.365 159.545,291.190 159.142,291.177 158.524 C 291.164 157.906,290.627 156.500,289.984 155.400 C 289.340 154.300,288.699 153.085,288.560 152.700 C 288.421 152.315,288.148 152.000,287.953 152.000 C 287.759 152.000,287.600 151.719,287.600 151.376 C 287.600 151.033,287.437 150.854,287.237 150.977 C 287.038 151.100,286.962 150.866,287.070 150.456 C 287.187 150.008,287.012 149.613,286.632 149.468 C 286.285 149.334,286.000 148.949,286.000 148.613 C 286.000 148.276,285.840 148.000,285.643 148.000 C 285.447 148.000,285.174 147.550,285.036 147.000 C 284.898 146.450,284.608 146.000,284.392 146.000 C 284.177 146.000,284.000 145.724,284.000 145.387 C 284.000 145.051,283.730 144.671,283.400 144.545 C 283.070 144.418,282.800 144.062,282.800 143.753 C 282.800 143.445,282.440 142.884,282.000 142.507 C 281.560 142.130,281.200 141.582,281.200 141.287 C 281.200 140.993,281.058 140.840,280.885 140.948 C 280.712 141.055,280.345 140.634,280.070 140.014 C 279.795 139.393,279.172 138.454,278.685 137.928 C 278.198 137.401,277.485 136.488,277.099 135.898 C 276.714 135.308,276.174 134.880,275.899 134.947 C 275.625 135.014,275.543 134.991,275.717 134.896 C 275.891 134.800,275.825 134.472,275.571 134.166 C 275.317 133.859,274.962 133.700,274.782 133.811 C 274.602 133.922,274.325 133.802,274.166 133.545 C 273.985 133.252,274.050 133.184,274.338 133.362 C 274.592 133.519,274.800 133.457,274.800 133.224 C 274.800 132.991,274.629 132.800,274.420 132.800 C 274.210 132.800,272.066 130.820,269.653 128.400 C 267.241 125.980,265.147 124.000,265.000 124.000 C 264.853 124.000,264.143 123.415,263.420 122.700 C 261.420 120.719,258.400 118.483,258.400 118.983 C 258.400 119.106,257.853 118.719,257.184 118.123 C 255.859 116.942,253.410 115.355,252.300 114.957 C 251.915 114.820,251.600 114.556,251.600 114.371 C 251.600 114.187,250.962 113.916,250.181 113.770 C 249.401 113.624,248.860 113.406,248.980 113.287 C 249.346 112.921,246.784 111.564,246.276 111.855 C 246.014 112.005,245.934 111.981,246.097 111.801 C 246.478 111.380,242.009 109.111,241.320 109.375 C 241.034 109.485,240.800 109.401,240.800 109.187 C 240.800 108.974,240.530 108.800,240.200 108.800 C 239.870 108.800,239.600 108.628,239.600 108.418 C 239.600 108.208,238.970 107.918,238.200 107.774 C 237.430 107.629,236.800 107.353,236.800 107.160 C 236.800 106.967,236.080 106.694,235.200 106.554 C 234.320 106.413,233.600 106.161,233.600 105.993 C 233.600 105.826,232.925 105.563,232.100 105.409 C 231.275 105.255,230.420 104.984,230.200 104.808 C 229.980 104.632,229.001 104.378,228.024 104.245 C 227.048 104.111,226.146 103.836,226.020 103.632 C 225.894 103.428,224.668 103.134,223.295 102.979 C 221.923 102.824,220.800 102.518,220.800 102.299 C 220.800 102.081,220.495 102.149,220.123 102.451 C 219.548 102.918,219.497 102.917,219.783 102.442 C 220.049 102.000,219.903 101.938,219.084 102.143 C 218.515 102.286,217.937 102.222,217.801 102.001 C 217.664 101.781,216.693 101.600,215.643 101.600 C 214.593 101.600,213.601 101.468,213.440 101.306 C 212.861 100.728,192.036 100.097,191.491 100.642 M199.767 141.547 C 199.885 141.738,200.835 141.990,201.878 142.108 C 202.921 142.225,203.840 142.519,203.920 142.761 C 204.001 143.002,204.289 143.200,204.561 143.200 C 204.833 143.200,205.635 143.717,206.344 144.350 C 207.219 145.131,208.210 145.565,209.439 145.703 C 212.305 146.026,213.600 147.747,213.600 151.231 C 213.600 153.394,213.827 154.375,214.764 156.264 C 215.404 157.555,216.054 159.283,216.209 160.105 C 216.363 160.927,216.629 161.600,216.800 161.600 C 216.971 161.600,217.232 162.275,217.380 163.100 C 217.814 165.515,218.516 166.846,219.200 166.547 C 219.530 166.403,220.790 166.118,222.000 165.913 C 223.210 165.709,224.914 165.333,225.787 165.078 C 228.054 164.416,238.944 164.462,241.200 165.144 C 244.206 166.052,247.240 167.609,248.349 168.814 C 250.188 170.812,250.412 171.159,250.658 172.392 C 250.791 173.056,251.058 173.600,251.250 173.600 C 251.443 173.600,251.600 175.220,251.600 177.200 C 251.600 179.180,251.444 180.800,251.253 180.800 C 251.062 180.800,250.805 181.546,250.683 182.458 C 250.561 183.369,250.290 184.224,250.081 184.358 C 249.872 184.491,249.574 185.185,249.418 185.900 C 249.263 186.615,249.005 187.200,248.845 187.200 C 248.685 187.200,248.255 187.875,247.890 188.700 C 247.075 190.541,242.039 197.242,239.895 199.337 L 238.322 200.875 239.461 202.136 C 240.087 202.830,240.935 203.738,241.344 204.155 C 242.911 205.751,248.010 212.901,248.243 213.828 C 248.377 214.362,248.647 214.800,248.843 214.800 C 249.040 214.800,249.200 215.048,249.200 215.350 C 249.200 215.653,249.770 216.014,250.467 216.153 C 254.216 216.903,255.650 222.669,252.773 225.426 C 252.128 226.044,251.600 226.865,251.600 227.251 C 251.600 227.637,251.443 228.050,251.252 228.168 C 251.060 228.286,250.795 228.923,250.663 229.583 C 250.340 231.201,247.413 234.245,245.200 235.265 C 244.210 235.722,243.040 236.295,242.600 236.540 C 241.478 237.163,228.790 237.369,225.800 236.812 C 217.733 235.310,217.928 235.275,217.413 238.323 C 217.257 239.245,216.989 240.000,216.816 240.000 C 216.643 240.000,216.383 240.749,216.236 241.663 C 216.090 242.578,215.722 243.793,215.420 244.363 C 215.117 244.934,214.514 246.120,214.080 247.000 C 212.557 250.091,211.434 252.027,210.721 252.793 C 210.324 253.219,210.000 253.688,210.000 253.837 C 210.000 254.180,206.133 258.000,205.786 258.000 C 205.643 258.000,205.069 258.360,204.509 258.800 C 203.950 259.240,203.066 259.600,202.546 259.600 C 202.026 259.600,201.600 259.780,201.600 260.000 C 201.600 260.564,195.871 260.511,195.301 259.941 C 195.049 259.689,193.494 259.396,191.845 259.290 C 187.483 259.010,186.311 257.969,186.073 254.163 C 185.978 252.643,185.764 251.310,185.596 251.200 C 185.082 250.862,182.400 245.673,182.400 245.017 C 182.400 244.678,182.236 244.400,182.035 244.400 C 181.834 244.400,181.549 243.680,181.400 242.800 C 181.251 241.920,180.977 241.200,180.789 241.200 C 180.602 241.200,180.328 240.390,180.179 239.400 C 180.031 238.410,179.762 237.600,179.582 237.600 C 179.403 237.600,179.198 237.195,179.128 236.700 C 178.984 235.686,174.815 235.558,173.642 236.531 C 172.654 237.352,156.647 237.164,154.299 236.304 C 150.569 234.940,148.074 232.774,146.388 229.437 C 145.643 227.963,145.587 220.653,146.315 219.925 C 146.582 219.658,146.800 219.152,146.800 218.801 C 146.800 217.497,151.751 208.800,152.494 208.800 C 152.662 208.800,152.800 208.539,152.800 208.220 C 152.800 207.901,153.029 207.496,153.310 207.320 C 153.590 207.144,154.126 206.518,154.500 205.928 C 154.875 205.339,155.774 204.259,156.499 203.528 C 159.002 201.006,158.995 201.040,157.436 199.335 C 154.554 196.182,153.201 194.593,153.200 194.361 C 153.200 194.230,152.885 193.752,152.500 193.299 C 152.115 192.845,151.530 192.077,151.200 191.591 C 150.870 191.105,150.316 190.323,149.968 189.854 C 148.913 188.429,146.800 183.791,146.800 182.902 C 146.800 182.442,146.584 181.995,146.320 181.907 C 145.628 181.676,145.609 173.131,146.300 172.900 C 146.575 172.808,146.800 172.381,146.800 171.951 C 146.800 170.989,150.312 167.464,152.094 166.638 C 155.859 164.892,157.305 164.639,163.600 164.619 C 167.243 164.608,170.460 164.794,171.400 165.071 C 172.740 165.465,175.891 166.111,178.400 166.506 C 178.770 166.564,179.053 166.218,179.138 165.600 C 179.214 165.050,179.419 164.420,179.592 164.200 C 179.766 163.980,180.041 163.176,180.205 162.413 C 180.368 161.650,180.653 160.750,180.837 160.413 C 181.618 158.983,182.800 155.999,182.800 155.455 C 182.800 155.132,182.935 154.807,183.100 154.733 C 183.265 154.660,183.846 153.745,184.392 152.700 C 184.937 151.655,185.478 150.800,185.594 150.800 C 185.710 150.800,186.043 150.263,186.333 149.606 C 186.981 148.142,191.376 143.723,192.547 143.358 C 193.016 143.212,193.513 142.917,193.651 142.703 C 193.788 142.488,194.737 142.219,195.760 142.103 C 196.782 141.988,197.715 141.738,197.833 141.547 C 197.951 141.356,198.386 141.200,198.800 141.200 C 199.214 141.200,199.649 141.356,199.767 141.547 M197.400 146.341 C 195.411 147.053,194.084 147.927,192.511 149.563 C 190.848 151.293,187.600 156.323,187.600 157.170 C 187.600 157.406,187.420 157.600,187.200 157.600 C 186.980 157.600,186.799 157.825,186.798 158.100 C 186.796 158.375,186.543 159.083,186.235 159.673 C 185.927 160.263,185.546 161.343,185.387 162.073 C 185.229 162.803,184.977 163.490,184.828 163.600 C 184.679 163.710,184.357 164.699,184.112 165.797 C 183.596 168.109,183.554 168.059,186.900 169.062 C 188.165 169.441,189.200 169.897,189.200 170.076 C 189.200 170.254,189.515 170.401,189.900 170.402 C 190.285 170.404,191.083 170.657,191.673 170.965 C 192.263 171.273,193.298 171.646,193.973 171.794 C 194.648 171.942,195.200 172.209,195.200 172.387 C 195.200 172.565,195.830 172.829,196.600 172.974 C 197.370 173.118,198.000 173.408,198.000 173.618 C 198.000 173.828,198.360 174.000,198.800 174.000 C 199.240 174.000,199.600 173.820,199.600 173.600 C 199.600 173.380,199.790 173.200,200.022 173.200 C 200.404 173.200,201.843 172.610,205.460 170.971 C 206.154 170.657,206.998 170.400,207.337 170.400 C 207.676 170.400,208.055 170.234,208.181 170.031 C 208.306 169.828,208.986 169.535,209.691 169.380 C 210.397 169.225,211.250 168.954,211.587 168.778 C 211.924 168.602,212.531 168.355,212.935 168.228 C 213.682 167.995,213.574 164.914,212.801 164.400 C 212.636 164.290,212.371 163.603,212.213 162.873 C 212.054 162.143,211.673 161.063,211.365 160.473 C 211.057 159.883,210.804 159.175,210.802 158.900 C 210.801 158.625,210.640 158.400,210.443 158.400 C 210.247 158.400,209.971 157.940,209.830 157.377 C 209.634 156.597,209.393 156.412,208.812 156.596 C 208.393 156.729,207.724 156.669,207.325 156.462 C 206.926 156.255,206.105 155.890,205.499 155.651 C 203.610 154.905,202.721 152.991,202.928 150.112 C 203.090 147.843,203.031 147.601,202.253 147.358 C 201.784 147.212,201.310 146.953,201.199 146.783 C 200.896 146.316,198.310 146.016,197.400 146.341 M158.300 169.463 C 157.475 169.565,156.800 169.817,156.800 170.024 C 156.800 170.231,156.510 170.400,156.154 170.400 C 152.107 170.400,148.898 177.837,151.308 181.634 C 151.645 182.165,152.043 183.185,152.193 183.900 C 152.342 184.615,152.588 185.200,152.740 185.200 C 152.892 185.200,153.459 186.010,154.000 187.000 C 154.541 187.990,155.122 188.800,155.292 188.800 C 155.461 188.800,155.600 189.061,155.600 189.380 C 155.600 189.699,155.834 190.104,156.120 190.280 C 156.406 190.456,157.036 191.167,157.519 191.860 C 158.002 192.553,159.325 194.124,160.460 195.351 L 162.522 197.583 164.161 196.163 C 167.788 193.021,173.066 188.800,173.367 188.800 C 174.392 188.800,175.315 186.864,175.628 184.057 C 176.332 177.750,176.825 174.579,177.206 173.905 C 178.333 171.917,177.489 170.986,174.200 170.584 C 172.880 170.423,171.701 170.138,171.580 169.951 C 171.332 169.568,160.626 169.175,158.300 169.463 M228.210 169.471 C 227.116 169.570,226.036 169.800,225.810 169.981 C 225.585 170.162,224.283 170.438,222.918 170.593 C 221.553 170.748,220.279 171.083,220.087 171.337 C 219.665 171.896,219.944 175.600,220.408 175.600 C 220.588 175.600,220.863 177.400,221.019 179.600 C 221.175 181.800,221.460 183.600,221.652 183.600 C 221.843 183.600,222.000 184.506,222.000 185.613 C 222.000 187.164,222.160 187.684,222.700 187.883 C 223.085 188.025,223.490 188.249,223.600 188.379 C 223.710 188.510,225.037 189.579,226.549 190.754 C 229.818 193.294,230.820 194.122,232.983 196.065 L 234.614 197.530 236.307 195.951 C 237.238 195.082,238.000 194.280,238.000 194.169 C 238.000 194.058,238.379 193.569,238.842 193.083 C 239.305 192.597,239.980 191.750,240.342 191.200 C 240.704 190.650,241.360 189.782,241.800 189.270 C 242.627 188.309,244.614 185.057,245.020 184.000 C 245.147 183.670,245.555 182.784,245.925 182.031 C 246.891 180.073,246.874 174.417,245.900 173.443 C 245.515 173.058,245.200 172.597,245.200 172.418 C 245.200 172.239,244.885 171.988,244.500 171.858 C 244.115 171.729,243.530 171.449,243.200 171.237 C 240.631 169.583,234.691 168.883,228.210 169.471 M182.181 173.503 C 181.905 174.141,181.081 178.675,180.528 182.600 C 180.312 184.132,180.334 184.173,181.051 183.561 C 181.463 183.209,182.070 182.803,182.400 182.658 C 182.730 182.513,183.720 181.938,184.600 181.380 C 185.480 180.822,186.515 180.263,186.900 180.136 C 187.285 180.010,187.600 179.762,187.600 179.585 C 187.600 179.408,188.140 179.145,188.800 179.000 C 189.460 178.855,190.000 178.583,190.000 178.395 C 190.000 178.207,190.405 177.928,190.900 177.773 C 192.612 177.239,192.246 175.657,190.400 175.610 C 190.070 175.602,189.284 175.326,188.654 174.998 C 188.024 174.669,187.304 174.399,187.054 174.398 C 186.804 174.396,186.138 174.154,185.573 173.859 C 183.665 172.864,182.511 172.742,182.181 173.503 M213.300 173.082 C 212.805 173.178,212.400 173.403,212.400 173.583 C 212.400 173.764,211.725 174.037,210.900 174.191 C 210.075 174.345,209.220 174.604,209.000 174.767 C 208.780 174.929,207.755 175.374,206.722 175.756 C 204.618 176.533,204.499 177.382,206.433 177.807 C 207.075 177.948,207.600 178.210,207.600 178.388 C 207.600 178.567,208.050 178.826,208.600 178.964 C 209.150 179.102,209.600 179.392,209.600 179.608 C 209.600 179.823,209.842 180.000,210.138 180.000 C 210.434 180.000,211.790 180.720,213.151 181.600 C 214.513 182.480,215.786 183.200,215.980 183.200 C 216.174 183.200,216.424 183.425,216.535 183.700 C 216.646 183.975,216.751 183.165,216.768 181.900 C 216.786 180.635,216.643 179.600,216.452 179.600 C 216.260 179.600,215.979 178.175,215.827 176.433 C 215.588 173.690,214.974 172.282,214.267 172.854 C 214.230 172.884,213.795 172.987,213.300 173.082 M196.200 180.408 C 195.100 181.043,193.390 181.976,192.400 182.481 C 191.410 182.986,190.510 183.493,190.400 183.608 C 190.290 183.722,189.750 184.036,189.200 184.305 C 187.934 184.924,186.787 185.659,186.088 186.300 C 185.788 186.575,185.286 186.800,184.971 186.800 C 184.657 186.800,184.400 186.980,184.400 187.200 C 184.400 187.420,184.229 187.600,184.020 187.600 C 182.505 187.600,180.068 190.085,179.803 191.901 C 179.301 195.329,179.132 208.092,179.582 208.542 C 179.812 208.772,180.000 209.632,180.000 210.453 C 180.000 211.821,181.457 213.600,182.578 213.600 C 182.931 213.600,185.370 215.333,185.533 215.700 C 185.607 215.865,185.854 216.000,186.083 216.000 C 186.311 216.000,187.798 216.789,189.386 217.753 C 190.974 218.717,192.662 219.629,193.137 219.780 C 193.612 219.931,194.000 220.202,194.000 220.384 C 194.000 220.565,194.493 220.837,195.096 220.988 C 195.699 221.140,196.322 221.474,196.481 221.732 C 196.850 222.328,200.335 222.347,200.715 221.754 C 200.872 221.509,201.450 221.169,202.000 221.000 C 202.550 220.831,203.091 220.581,203.201 220.446 C 203.386 220.219,205.224 219.183,208.200 217.627 C 208.860 217.282,209.490 216.902,209.600 216.782 C 209.710 216.662,210.430 216.199,211.200 215.753 C 211.970 215.307,213.815 214.161,215.300 213.206 L 218.000 211.471 218.000 201.135 C 218.000 189.905,217.970 189.752,215.639 189.013 C 215.178 188.866,214.800 188.578,214.800 188.373 C 214.800 188.168,214.629 188.000,214.420 188.000 C 214.211 188.000,213.240 187.460,212.262 186.800 C 211.284 186.140,210.391 185.600,210.277 185.600 C 210.163 185.600,209.113 184.970,207.944 184.200 C 206.775 183.430,205.589 182.800,205.309 182.800 C 205.029 182.800,204.800 182.640,204.800 182.443 C 204.800 182.247,204.307 181.963,203.704 181.812 C 203.101 181.660,202.516 181.416,202.404 181.268 C 202.186 180.981,198.619 179.182,198.356 179.227 C 198.270 179.241,197.300 179.773,196.200 180.408 M202.400 189.550 C 202.400 189.743,202.900 190.000,203.512 190.122 C 204.123 190.245,205.122 190.807,205.732 191.372 C 206.342 191.938,207.012 192.400,207.221 192.400 C 207.429 192.400,207.600 192.651,207.600 192.957 C 207.600 193.264,207.870 193.618,208.200 193.745 C 208.530 193.871,208.800 194.251,208.800 194.587 C 208.800 194.924,208.978 195.200,209.195 195.200 C 209.413 195.200,209.706 195.924,209.848 196.809 C 209.989 197.694,210.261 198.514,210.453 198.632 C 211.336 199.178,210.090 206.800,209.118 206.800 C 208.943 206.800,208.800 207.030,208.800 207.312 C 208.800 207.593,208.134 208.509,207.320 209.347 C 201.632 215.204,191.199 213.374,187.690 205.904 C 186.734 203.868,186.390 197.901,187.200 197.400 C 187.420 197.264,187.600 196.816,187.600 196.405 C 187.600 195.994,187.870 195.387,188.200 195.057 C 188.530 194.727,188.800 194.318,188.800 194.148 C 188.800 193.715,191.280 191.200,191.707 191.200 C 191.900 191.200,192.327 190.930,192.657 190.600 C 192.987 190.270,193.604 190.000,194.029 190.000 C 194.453 190.000,194.800 189.820,194.800 189.600 C 194.800 189.361,196.333 189.200,198.600 189.200 C 200.690 189.200,202.400 189.358,202.400 189.550 M174.235 194.149 C 173.814 194.397,173.167 194.870,172.796 195.200 C 170.920 196.869,167.381 199.861,166.746 200.313 C 166.075 200.792,168.508 203.994,169.548 204.002 C 169.687 204.003,170.460 204.588,171.267 205.302 C 175.028 208.628,175.788 209.046,174.832 207.261 C 174.225 206.126,174.250 194.917,174.860 194.713 C 175.113 194.629,175.248 194.366,175.160 194.129 C 175.047 193.826,174.775 193.832,174.235 194.149 M222.400 201.229 C 222.400 207.399,222.482 208.380,222.958 207.929 C 223.265 207.638,224.101 206.950,224.816 206.400 C 225.530 205.850,226.406 205.130,226.762 204.800 C 227.118 204.470,228.274 203.494,229.330 202.631 L 231.250 201.062 229.325 199.341 C 228.266 198.394,226.898 197.165,226.284 196.610 C 225.670 196.054,225.023 195.600,224.846 195.600 C 224.669 195.600,224.198 195.240,223.800 194.800 C 222.512 193.377,222.400 193.891,222.400 201.229 M160.558 206.513 C 159.481 207.676,158.060 209.321,157.400 210.170 C 156.740 211.018,155.885 212.047,155.500 212.456 C 155.115 212.865,154.800 213.367,154.800 213.571 C 154.800 213.776,154.574 214.181,154.299 214.471 C 154.023 214.762,153.325 215.990,152.747 217.200 C 149.192 224.641,149.734 228.559,154.663 231.047 L 156.946 232.200 165.091 232.195 C 170.561 232.191,173.328 232.045,173.518 231.750 C 173.673 231.509,174.655 231.185,175.700 231.031 C 177.636 230.746,178.382 229.342,177.217 228.177 C 177.007 227.967,176.711 226.305,176.559 224.485 C 176.407 222.664,176.129 221.080,175.941 220.964 C 175.754 220.848,175.598 219.908,175.596 218.876 C 175.590 216.296,175.173 214.000,174.711 214.000 C 174.499 214.000,173.848 213.635,173.263 213.188 C 170.673 211.209,169.839 210.544,168.893 209.700 C 168.337 209.205,167.768 208.800,167.627 208.800 C 167.486 208.800,166.556 208.035,165.560 207.100 C 162.375 204.110,162.744 204.154,160.558 206.513 M232.738 206.232 C 225.856 211.905,225.986 211.802,223.700 213.354 C 222.096 214.444,222.000 214.617,222.000 216.431 C 222.000 217.488,221.844 218.449,221.652 218.568 C 221.461 218.686,221.174 220.451,221.014 222.491 C 220.855 224.531,220.589 226.290,220.423 226.400 C 220.258 226.510,220.015 227.529,219.884 228.664 L 219.646 230.728 221.923 231.184 C 233.274 233.453,241.362 232.823,245.005 229.386 C 246.465 228.008,247.171 226.400,246.316 226.400 C 244.400 226.400,241.999 220.067,243.700 219.500 C 244.361 219.280,244.356 215.961,243.693 215.190 C 242.205 213.459,241.600 212.648,241.600 212.380 C 241.600 211.810,235.299 204.800,234.787 204.800 C 234.616 204.800,233.694 205.445,232.738 206.232 M214.861 219.309 C 210.054 222.211,208.937 222.857,207.600 223.513 C 206.830 223.891,206.110 224.295,206.000 224.411 C 205.890 224.527,205.350 224.817,204.800 225.055 C 203.800 225.487,203.800 225.487,205.200 225.786 C 205.970 225.950,207.140 226.310,207.800 226.586 C 208.460 226.862,209.540 227.312,210.200 227.587 C 215.060 229.611,215.407 229.469,215.818 225.300 C 215.975 223.705,216.243 222.400,216.415 222.400 C 216.586 222.400,216.788 221.410,216.863 220.199 C 216.938 218.989,217.000 218.003,217.000 218.008 C 217.000 218.013,216.037 218.599,214.861 219.309 M180.530 219.658 C 182.279 229.974,181.967 229.197,184.117 228.602 C 185.723 228.159,186.406 227.912,189.600 226.620 C 190.370 226.309,191.511 225.902,192.135 225.715 L 193.270 225.377 191.535 224.488 C 190.581 223.999,189.260 223.287,188.600 222.907 C 187.940 222.526,186.320 221.593,185.000 220.832 C 183.680 220.071,182.510 219.327,182.400 219.178 C 181.565 218.049,180.312 218.370,180.530 219.658 M196.400 229.047 C 193.407 230.484,192.662 230.800,192.239 230.814 C 191.997 230.821,191.080 231.175,190.200 231.600 C 189.320 232.025,188.195 232.379,187.700 232.386 C 187.205 232.394,186.800 232.564,186.800 232.765 C 186.800 232.966,186.065 233.254,185.167 233.406 C 183.754 233.644,183.561 233.797,183.740 234.541 C 183.853 235.013,184.068 236.075,184.217 236.900 C 184.367 237.725,184.626 238.400,184.793 238.400 C 184.961 238.400,185.213 239.120,185.354 240.000 C 185.494 240.880,185.779 241.600,185.987 241.600 C 186.194 241.600,186.482 242.230,186.626 243.000 C 186.771 243.770,187.035 244.400,187.213 244.400 C 187.391 244.400,187.655 244.940,187.800 245.600 C 187.945 246.260,188.217 246.800,188.405 246.800 C 188.593 246.800,188.860 247.160,189.000 247.600 C 189.202 248.237,189.605 248.400,190.981 248.400 C 194.311 248.400,196.114 249.987,196.400 253.171 L 196.600 255.400 199.010 255.400 C 200.569 255.400,201.671 255.188,202.131 254.800 C 203.863 253.338,206.000 251.207,206.000 250.942 C 206.000 250.782,206.357 250.272,206.793 249.808 C 207.693 248.850,211.200 242.088,211.200 241.311 C 211.200 241.030,211.360 240.800,211.555 240.800 C 211.751 240.800,212.037 240.125,212.191 239.300 C 212.345 238.475,212.628 237.611,212.818 237.380 C 213.009 237.149,213.277 236.249,213.414 235.380 L 213.664 233.800 210.432 232.823 C 208.654 232.286,207.200 231.701,207.200 231.523 C 207.200 231.345,206.885 231.199,206.500 231.198 C 206.115 231.196,205.338 230.954,204.773 230.659 C 204.209 230.365,203.220 229.991,202.577 229.830 C 201.934 229.669,201.297 229.357,201.162 229.138 C 200.705 228.398,197.865 228.344,196.400 229.047 " stroke="none" fill="#045cac" fill-rule="evenodd"></path><path id="path5" d="M246.920 177.200 C 246.920 178.410,246.995 178.905,247.087 178.300 C 247.178 177.695,247.178 176.705,247.087 176.100 C 246.995 175.495,246.920 175.990,246.920 177.200 M179.293 192.000 C 179.293 192.770,179.375 193.085,179.476 192.700 C 179.576 192.315,179.576 191.685,179.476 191.300 C 179.375 190.915,179.293 191.230,179.293 192.000 M174.960 201.000 C 174.961 204.300,175.022 205.597,175.098 203.882 C 175.173 202.167,175.172 199.467,175.097 197.882 C 175.021 196.297,174.959 197.700,174.960 201.000 M235.478 197.013 C 234.860 197.556,234.514 198.000,234.708 198.000 C 234.902 198.000,235.483 197.550,236.000 197.000 C 237.195 195.728,236.931 195.734,235.478 197.013 M161.891 233.089 C 162.601 233.177,163.861 233.179,164.691 233.092 C 165.521 233.005,164.940 232.933,163.400 232.931 C 161.860 232.929,161.181 233.000,161.891 233.089 M232.500 233.091 C 233.325 233.178,234.675 233.178,235.500 233.091 C 236.325 233.005,235.650 232.934,234.000 232.934 C 232.350 232.934,231.675 233.005,232.500 233.091 M197.905 255.883 C 198.402 255.979,199.122 255.975,199.505 255.875 C 199.887 255.775,199.480 255.696,198.600 255.701 C 197.720 255.705,197.407 255.787,197.905 255.883 M197.905 260.283 C 198.402 260.379,199.122 260.375,199.505 260.275 C 199.887 260.175,199.480 260.096,198.600 260.101 C 197.720 260.105,197.407 260.187,197.905 260.283 " stroke="none" fill="#3474bc" fill-rule="evenodd"></path><path id="path6" d="M197.862 141.500 C 197.760 141.665,198.182 141.800,198.800 141.800 C 199.418 141.800,199.840 141.665,199.738 141.500 C 199.636 141.335,199.214 141.200,198.800 141.200 C 198.386 141.200,197.964 141.335,197.862 141.500 M207.609 156.567 C 207.830 156.790,208.333 156.772,208.887 156.523 C 209.737 156.140,209.712 156.114,208.522 156.156 C 207.748 156.182,207.387 156.345,207.609 156.567 M156.021 165.179 C 155.646 165.416,156.070 165.465,157.221 165.318 C 158.199 165.192,159.075 165.025,159.167 164.945 C 159.542 164.619,156.555 164.840,156.021 165.179 M168.700 165.082 C 169.195 165.178,170.005 165.178,170.500 165.082 C 170.995 164.987,170.590 164.909,169.600 164.909 C 168.610 164.909,168.205 164.987,168.700 165.082 M226.700 165.082 C 227.195 165.178,228.005 165.178,228.500 165.082 C 228.995 164.987,228.590 164.909,227.600 164.909 C 226.610 164.909,226.205 164.987,226.700 165.082 M238.900 165.076 C 239.285 165.176,239.915 165.176,240.300 165.076 C 240.685 164.975,240.370 164.893,239.600 164.893 C 238.830 164.893,238.515 164.975,238.900 165.076 M221.000 166.000 L 219.800 166.305 220.876 166.353 C 221.468 166.379,222.064 166.220,222.200 166.000 C 222.336 165.780,222.392 165.621,222.324 165.647 C 222.256 165.673,221.660 165.832,221.000 166.000 M150.158 175.766 C 150.038 176.078,150.005 176.843,150.084 177.466 C 150.202 178.391,150.264 178.287,150.425 176.900 C 150.627 175.151,150.538 174.775,150.158 175.766 M180.901 179.000 C 180.905 179.880,180.987 180.193,181.083 179.695 C 181.179 179.198,181.175 178.478,181.075 178.095 C 180.975 177.713,180.896 178.120,180.901 179.000 M175.849 181.015 C 175.712 181.373,175.618 182.056,175.641 182.533 C 175.667 183.081,175.803 182.886,176.010 182.003 C 176.360 180.516,176.265 179.933,175.849 181.015 M156.681 191.361 C 157.077 191.889,157.457 192.267,157.528 192.200 C 157.738 191.999,156.634 190.400,156.285 190.400 C 156.108 190.400,156.286 190.832,156.681 191.361 M179.664 191.467 C 179.629 192.164,179.496 193.064,179.370 193.467 C 179.153 194.159,179.165 194.160,179.594 193.491 C 179.845 193.102,179.977 192.202,179.889 191.491 L 179.728 190.200 179.664 191.467 M174.561 200.800 C 174.561 204.210,174.622 205.605,174.697 203.900 C 174.772 202.195,174.772 199.405,174.697 197.700 C 174.622 195.995,174.561 197.390,174.561 200.800 M186.893 198.800 C 186.893 199.570,186.975 199.885,187.076 199.500 C 187.176 199.115,187.176 198.485,187.076 198.100 C 186.975 197.715,186.893 198.030,186.893 198.800 M210.200 201.202 C 210.200 202.700,210.332 203.718,210.494 203.463 C 210.881 202.854,210.886 198.900,210.500 198.663 C 210.335 198.562,210.200 199.705,210.200 201.202 M238.000 200.925 C 238.000 200.994,238.585 201.579,239.300 202.225 L 240.600 203.400 239.425 202.100 C 238.330 200.888,238.000 200.616,238.000 200.925 M186.806 203.233 C 186.809 203.765,186.989 204.470,187.206 204.800 C 187.482 205.222,187.523 204.985,187.342 204.000 C 187.025 202.275,186.798 201.949,186.806 203.233 M155.032 205.113 L 154.264 206.200 155.332 205.230 C 156.454 204.211,156.593 203.992,156.100 204.013 C 155.935 204.019,155.454 204.514,155.032 205.113 M169.600 204.285 C 169.600 204.634,171.199 205.738,171.400 205.528 C 171.467 205.457,171.089 205.077,170.561 204.681 C 170.032 204.286,169.600 204.108,169.600 204.285 M234.162 204.862 C 233.978 205.160,234.053 205.215,234.374 205.016 C 234.686 204.823,235.495 205.286,236.536 206.254 L 238.200 207.800 236.619 206.100 C 234.937 204.292,234.614 204.129,234.162 204.862 M166.456 207.966 C 166.975 208.387,167.477 208.655,167.571 208.561 C 167.776 208.357,166.344 207.231,165.856 207.213 C 165.666 207.206,165.936 207.545,166.456 207.966 M189.200 208.264 C 189.200 208.482,189.695 209.097,190.300 209.630 L 191.400 210.600 190.400 209.400 C 189.850 208.740,189.355 208.125,189.300 208.033 C 189.245 207.942,189.200 208.045,189.200 208.264 M179.580 210.110 C 179.775 211.758,179.783 211.767,179.919 210.449 C 179.996 209.706,179.906 208.946,179.720 208.760 C 179.533 208.573,179.471 209.181,179.580 210.110 M175.600 219.776 C 175.600 220.313,175.747 220.844,175.928 220.955 C 176.108 221.067,176.177 220.627,176.082 219.979 C 175.872 218.549,175.600 218.435,175.600 219.776 M180.893 222.800 C 180.893 223.570,180.975 223.885,181.076 223.500 C 181.176 223.115,181.176 222.485,181.076 222.100 C 180.975 221.715,180.893 222.030,180.893 222.800 M150.093 224.800 C 150.093 225.570,150.175 225.885,150.276 225.500 C 150.376 225.115,150.376 224.485,150.276 224.100 C 150.175 223.715,150.093 224.030,150.093 224.800 M252.426 225.322 L 251.451 226.600 252.726 225.425 C 254.051 224.203,254.203 223.985,253.700 224.022 C 253.535 224.034,252.962 224.619,252.426 225.322 M161.911 232.693 C 162.851 232.778,164.291 232.777,165.111 232.691 C 165.930 232.605,165.160 232.536,163.400 232.537 C 161.640 232.539,160.970 232.609,161.911 232.693 M232.300 232.693 C 233.235 232.777,234.765 232.777,235.700 232.693 C 236.635 232.609,235.870 232.540,234.000 232.540 C 232.130 232.540,231.365 232.609,232.300 232.693 M171.917 236.370 C 170.881 236.515,169.927 236.739,169.797 236.870 C 169.416 237.251,173.362 236.737,173.780 236.351 C 173.989 236.158,174.079 236.024,173.980 236.053 C 173.881 236.083,172.953 236.225,171.917 236.370 M241.600 236.288 C 240.133 236.551,239.762 237.096,241.192 236.886 C 241.862 236.788,242.508 236.549,242.629 236.354 C 242.749 236.159,242.792 236.025,242.724 236.054 C 242.656 236.084,242.150 236.190,241.600 236.288 M224.033 236.545 C 224.125 236.625,225.001 236.792,225.979 236.918 C 227.130 237.065,227.554 237.016,227.179 236.779 C 226.645 236.440,223.658 236.219,224.033 236.545 " stroke="none" fill="#0964ae" fill-rule="evenodd"></path><path id="path7" d="M161.911 164.693 C 162.851 164.778,164.291 164.777,165.111 164.691 C 165.930 164.605,165.160 164.536,163.400 164.537 C 161.640 164.539,160.970 164.609,161.911 164.693 M231.300 164.676 C 231.685 164.776,232.315 164.776,232.700 164.676 C 233.085 164.575,232.770 164.493,232.000 164.493 C 231.230 164.493,230.915 164.575,231.300 164.676 M235.233 164.543 C 235.325 164.622,236.120 164.797,237.000 164.932 C 238.090 165.099,238.409 165.055,238.000 164.795 C 237.453 164.446,234.845 164.209,235.233 164.543 M162.505 169.087 C 163.114 169.179,164.014 169.177,164.505 169.082 C 164.997 168.987,164.500 168.911,163.400 168.914 C 162.300 168.917,161.897 168.995,162.505 169.087 M233.107 169.090 C 233.826 169.179,234.906 169.177,235.507 169.086 C 236.108 168.995,235.520 168.922,234.200 168.924 C 232.880 168.926,232.388 169.001,233.107 169.090 M145.714 177.000 C 145.717 178.100,145.795 178.503,145.887 177.895 C 145.979 177.286,145.977 176.386,145.882 175.895 C 145.787 175.403,145.711 175.900,145.714 177.000 M175.693 184.400 C 175.693 185.170,175.775 185.485,175.876 185.100 C 175.976 184.715,175.976 184.085,175.876 183.700 C 175.775 183.315,175.693 183.630,175.693 184.400 M186.893 201.200 C 186.893 201.970,186.975 202.285,187.076 201.900 C 187.176 201.515,187.176 200.885,187.076 200.500 C 186.975 200.115,186.893 200.430,186.893 201.200 M157.578 202.700 L 156.200 204.200 157.700 202.822 C 158.525 202.063,159.200 201.388,159.200 201.322 C 159.200 201.016,158.862 201.304,157.578 202.700 M233.762 204.900 L 233.000 205.800 233.875 205.061 C 234.368 204.644,234.962 204.453,235.237 204.623 C 235.547 204.815,235.620 204.756,235.438 204.462 C 235.020 203.785,234.616 203.891,233.762 204.900 M175.693 217.600 C 175.693 218.370,175.775 218.685,175.876 218.300 C 175.976 217.915,175.976 217.285,175.876 216.900 C 175.775 216.515,175.693 216.830,175.693 217.600 M145.709 224.800 C 145.709 225.790,145.787 226.195,145.882 225.700 C 145.978 225.205,145.978 224.395,145.882 223.900 C 145.787 223.405,145.709 223.810,145.709 224.800 M244.975 229.700 L 243.800 231.000 245.100 229.825 C 245.815 229.179,246.400 228.594,246.400 228.525 C 246.400 228.216,246.070 228.488,244.975 229.700 M166.900 232.676 C 167.285 232.776,167.915 232.776,168.300 232.676 C 168.685 232.575,168.370 232.493,167.600 232.493 C 166.830 232.493,166.515 232.575,166.900 232.676 M228.900 232.676 C 229.285 232.776,229.915 232.776,230.300 232.676 C 230.685 232.575,230.370 232.493,229.600 232.493 C 228.830 232.493,228.515 232.575,228.900 232.676 M190.300 248.682 C 190.795 248.778,191.605 248.778,192.100 248.682 C 192.595 248.587,192.190 248.509,191.200 248.509 C 190.210 248.509,189.805 248.587,190.300 248.682 " stroke="none" fill="#1c6cb4" fill-rule="evenodd"></path></g></svg>