<svg id="svg" version="1.1" xmlns="http://www.w3.org/2000/svg" xmlns:xlink="http://www.w3.org/1999/xlink" width="400" height="400.59259259259255" viewBox="0, 0, 400,400.59259259259255"><g id="svgg"><path id="path0" d="M171.910 163.463 C 167.645 164.199,165.267 171.418,168.050 175.182 C 171.617 180.007,178.849 179.176,181.246 173.667 C 183.818 167.755,178.802 162.273,171.910 163.463 M240.529 163.456 C 238.703 163.859,236.111 166.668,235.600 168.799 C 233.475 177.660,245.684 182.289,249.638 174.121 C 252.512 168.184,247.214 161.981,240.529 163.456 M156.800 175.865 C 154.236 176.854,154.390 180.709,157.021 181.370 C 160.226 182.174,161.998 178.839,159.818 176.104 C 159.610 175.844,157.325 175.662,156.800 175.865 M224.654 176.429 C 222.352 178.240,224.109 181.998,226.988 181.422 C 228.675 181.085,229.280 180.330,229.280 178.562 C 229.280 175.886,226.798 174.742,224.654 176.429 M142.300 187.232 C 141.223 187.859,141.283 193.002,142.374 193.586 C 142.881 193.857,150.995 194.000,165.945 194.000 C 191.997 194.000,190.000 194.299,190.000 190.400 C 190.000 186.500,192.008 186.798,165.871 186.812 C 151.082 186.820,142.753 186.968,142.300 187.232 M210.629 187.429 C 210.200 187.857,210.000 188.803,210.000 190.400 C 210.000 194.299,208.003 194.000,234.055 194.000 C 260.237 194.000,258.400 194.272,258.400 190.400 C 258.400 188.069,258.277 187.562,257.626 187.214 C 256.211 186.457,211.396 186.661,210.629 187.429 M146.979 198.110 C 146.872 198.391,146.832 214.996,146.892 235.010 L 147.000 271.400 147.881 273.236 C 150.502 278.700,153.014 279.600,165.642 279.600 C 177.420 279.600,178.182 279.439,181.341 276.280 C 184.520 273.101,184.800 271.718,184.800 259.185 L 184.800 248.400 172.623 248.400 C 158.793 248.400,159.200 248.504,159.200 244.986 C 159.200 241.579,159.115 241.600,172.816 241.600 L 184.800 241.600 184.800 239.007 L 184.800 236.413 174.300 236.307 L 163.800 236.200 163.669 235.052 C 163.597 234.420,163.645 233.475,163.776 232.952 L 164.015 232.000 174.408 232.000 L 184.800 232.000 184.800 229.400 L 184.800 226.800 172.800 226.800 C 159.000 226.800,159.200 226.850,159.200 223.400 C 159.200 219.913,159.004 219.960,172.812 220.089 L 184.800 220.200 184.800 217.507 L 184.800 214.813 174.300 214.707 L 163.800 214.600 163.800 212.600 L 163.800 210.600 174.300 210.493 L 184.800 210.387 184.800 203.993 L 184.800 197.600 165.987 197.600 C 151.109 197.600,147.134 197.707,146.979 198.110 M215.204 233.496 C 215.209 275.059,215.066 273.611,219.523 277.138 C 222.502 279.496,223.133 279.600,234.412 279.600 L 244.726 279.600 246.766 278.542 C 252.478 275.578,253.200 273.400,253.200 259.127 L 253.200 248.400 241.080 248.400 C 227.355 248.400,228.000 248.561,228.000 245.143 C 228.000 241.512,227.663 241.600,241.489 241.600 L 253.200 241.600 253.200 239.000 L 253.200 236.400 243.080 236.400 C 232.104 236.400,232.000 236.379,232.000 234.200 C 232.000 232.020,232.102 232.000,243.099 232.000 L 253.238 232.000 253.119 229.500 L 253.000 227.000 241.000 226.800 C 227.326 226.572,228.000 226.738,228.000 223.599 C 228.000 219.902,227.632 220.000,241.508 220.000 L 253.238 220.000 253.119 217.500 L 253.000 215.000 243.032 214.893 C 232.240 214.777,232.000 214.727,232.000 212.600 C 232.000 210.473,232.240 210.423,243.032 210.307 L 253.000 210.200 253.000 204.000 L 253.000 197.800 234.100 197.696 L 215.200 197.592 215.204 233.496 " stroke="none" fill="#fcfbfa" fill-rule="evenodd"></path><path id="path1" d="M187.212 121.475 C 186.009 121.570,184.839 121.799,184.612 121.984 C 184.385 122.169,182.805 122.449,181.100 122.607 C 179.395 122.765,178.000 123.030,178.000 123.195 C 178.000 123.361,176.920 123.619,175.600 123.768 C 174.280 123.918,173.200 124.188,173.200 124.368 C 173.200 124.549,172.300 124.816,171.200 124.962 C 170.100 125.108,169.200 125.390,169.200 125.589 C 169.200 125.788,168.390 126.072,167.400 126.221 C 166.410 126.369,165.600 126.630,165.600 126.801 C 165.600 126.971,164.970 127.229,164.200 127.374 C 163.430 127.518,162.800 127.785,162.800 127.967 C 162.800 128.149,162.080 128.413,161.200 128.554 C 160.320 128.694,159.600 128.979,159.600 129.187 C 159.600 129.394,158.970 129.682,158.200 129.826 C 157.430 129.971,156.800 130.249,156.800 130.445 C 156.800 130.640,156.595 130.800,156.344 130.800 C 155.646 130.800,152.240 132.538,151.898 133.068 C 151.731 133.326,151.056 133.656,150.398 133.801 C 149.739 133.945,149.200 134.210,149.200 134.388 C 149.200 134.567,148.750 134.826,148.200 134.964 C 147.650 135.102,147.200 135.392,147.200 135.608 C 147.200 135.823,146.924 136.000,146.587 136.000 C 146.251 136.000,145.878 136.254,145.759 136.564 C 145.639 136.874,145.105 137.237,144.571 137.372 C 144.037 137.506,143.600 137.792,143.600 138.008 C 143.600 138.223,143.324 138.400,142.987 138.400 C 142.651 138.400,142.271 138.670,142.145 139.000 C 142.018 139.330,141.662 139.600,141.353 139.600 C 141.045 139.600,140.484 139.960,140.107 140.400 C 139.730 140.840,139.258 141.200,139.057 141.200 C 138.856 141.200,138.275 141.650,137.765 142.200 C 137.255 142.750,136.722 143.200,136.579 143.200 C 136.436 143.200,135.498 144.010,134.494 145.000 C 133.490 145.990,132.526 146.800,132.352 146.800 C 131.950 146.800,125.200 153.397,125.200 153.789 C 125.200 153.949,124.390 154.902,123.400 155.906 C 122.410 156.910,121.600 157.856,121.600 158.007 C 121.600 158.159,121.150 158.769,120.600 159.362 C 120.050 159.956,119.600 160.683,119.600 160.978 C 119.600 161.273,119.330 161.618,119.000 161.745 C 118.670 161.871,118.400 162.169,118.400 162.407 C 118.400 162.644,117.995 163.236,117.500 163.722 C 116.532 164.672,115.882 165.615,115.102 167.200 C 114.831 167.750,114.382 168.438,114.105 168.729 C 113.827 169.019,113.600 169.514,113.600 169.829 C 113.600 170.143,113.420 170.400,113.200 170.400 C 112.980 170.400,112.800 170.676,112.800 171.013 C 112.800 171.349,112.541 171.724,112.224 171.846 C 111.908 171.967,111.534 172.592,111.393 173.233 C 111.252 173.875,110.985 174.400,110.800 174.400 C 110.615 174.400,110.345 174.940,110.200 175.600 C 110.055 176.260,109.785 176.800,109.600 176.800 C 109.415 176.800,109.145 177.340,109.000 178.000 C 108.855 178.660,108.579 179.200,108.386 179.200 C 108.194 179.200,107.918 179.830,107.774 180.600 C 107.629 181.370,107.353 182.000,107.160 182.000 C 106.967 182.000,106.694 182.720,106.554 183.600 C 106.413 184.480,106.141 185.200,105.949 185.200 C 105.757 185.200,105.629 185.335,105.664 185.500 C 105.725 185.793,105.519 186.441,104.762 188.330 C 104.557 188.841,104.493 189.426,104.619 189.630 C 104.744 189.833,104.668 190.000,104.448 190.000 C 104.229 190.000,103.923 190.855,103.769 191.900 C 103.615 192.945,103.329 193.904,103.134 194.030 C 102.939 194.157,102.666 195.237,102.528 196.430 C 102.390 197.624,102.134 198.695,101.959 198.811 C 101.784 198.927,101.515 200.277,101.361 201.811 C 101.207 203.345,100.933 204.698,100.751 204.817 C 100.570 204.936,100.299 207.321,100.150 210.117 C 100.000 212.913,99.726 215.200,99.539 215.200 C 99.353 215.200,99.200 217.990,99.200 221.400 C 99.200 224.810,99.352 227.600,99.538 227.600 C 99.725 227.600,99.997 229.976,100.144 232.880 C 100.291 235.784,100.573 238.260,100.772 238.383 C 100.970 238.505,101.261 239.909,101.418 241.503 C 101.575 243.096,101.842 244.400,102.012 244.400 C 102.182 244.400,102.447 245.480,102.600 246.800 C 102.753 248.120,103.030 249.200,103.215 249.200 C 103.400 249.200,103.678 250.045,103.833 251.078 C 103.988 252.112,104.486 253.777,104.939 254.778 C 105.393 255.780,105.721 256.754,105.668 256.942 C 105.615 257.130,105.737 257.490,105.940 257.742 C 106.142 257.994,106.433 258.785,106.586 259.500 C 106.738 260.215,107.015 260.800,107.200 260.800 C 107.385 260.800,107.655 261.340,107.800 261.999 C 108.075 263.252,110.337 268.053,110.816 268.400 C 110.968 268.510,111.219 269.005,111.373 269.500 C 111.528 269.995,111.807 270.400,111.995 270.400 C 112.183 270.400,112.455 270.940,112.600 271.600 C 112.745 272.260,113.029 272.800,113.232 272.800 C 113.434 272.800,113.600 273.076,113.600 273.413 C 113.600 273.749,113.854 274.122,114.164 274.241 C 114.474 274.361,114.837 274.895,114.972 275.429 C 115.106 275.963,115.392 276.400,115.608 276.400 C 115.823 276.400,116.000 276.676,116.000 277.013 C 116.000 277.349,116.254 277.722,116.564 277.841 C 116.874 277.961,117.237 278.495,117.372 279.029 C 117.506 279.563,117.792 280.000,118.008 280.000 C 118.223 280.000,118.400 280.261,118.400 280.580 C 118.400 280.899,118.626 281.304,118.901 281.480 C 119.177 281.656,119.921 282.565,120.556 283.500 C 121.190 284.435,121.864 285.200,122.054 285.200 C 122.244 285.200,122.400 285.405,122.400 285.656 C 122.400 285.907,123.750 287.441,125.400 289.064 C 127.050 290.687,128.400 292.188,128.400 292.399 C 128.400 292.609,128.891 293.101,129.491 293.491 C 130.090 293.881,131.593 295.235,132.830 296.500 C 134.066 297.765,135.203 298.800,135.356 298.800 C 135.508 298.800,136.031 299.179,136.517 299.642 C 137.003 300.105,137.850 300.776,138.400 301.132 C 138.950 301.489,139.544 302.010,139.720 302.290 C 139.896 302.571,140.235 302.800,140.474 302.800 C 140.713 302.800,141.306 303.229,141.792 303.753 C 142.278 304.277,143.063 304.830,143.538 304.980 C 144.012 305.131,144.400 305.407,144.400 305.595 C 144.400 305.783,144.925 306.052,145.567 306.193 C 146.208 306.334,146.833 306.708,146.954 307.024 C 147.076 307.341,147.451 307.600,147.787 307.600 C 148.124 307.600,148.400 307.780,148.400 308.000 C 148.400 308.220,148.657 308.400,148.971 308.400 C 149.286 308.400,149.781 308.632,150.071 308.914 C 150.636 309.464,160.409 314.400,160.932 314.400 C 161.104 314.400,161.999 314.740,162.922 315.156 C 163.845 315.571,165.365 316.037,166.300 316.191 C 167.235 316.344,168.000 316.623,168.000 316.811 C 168.000 316.998,168.810 317.272,169.800 317.421 C 170.790 317.569,171.600 317.833,171.600 318.006 C 171.600 318.180,172.680 318.447,174.000 318.600 C 175.320 318.753,176.400 319.023,176.400 319.200 C 176.400 319.377,177.525 319.651,178.900 319.809 C 180.275 319.967,181.495 320.245,181.610 320.426 C 181.726 320.608,183.931 320.883,186.510 321.037 C 189.090 321.191,191.200 321.471,191.200 321.659 C 191.200 321.846,195.160 322.000,200.000 322.000 C 204.840 322.000,208.800 321.846,208.800 321.659 C 208.800 321.471,210.910 321.191,213.490 321.037 C 216.069 320.883,218.274 320.608,218.390 320.426 C 218.505 320.245,219.725 319.967,221.100 319.809 C 222.475 319.651,223.600 319.377,223.600 319.200 C 223.600 319.023,224.680 318.753,226.000 318.600 C 227.320 318.447,228.400 318.180,228.400 318.006 C 228.400 317.833,229.210 317.569,230.200 317.421 C 231.190 317.272,232.000 316.998,232.000 316.811 C 232.000 316.623,232.765 316.344,233.700 316.191 C 234.635 316.037,236.155 315.571,237.078 315.156 C 238.001 314.740,238.946 314.400,239.178 314.400 C 239.410 314.400,239.600 314.220,239.600 314.000 C 239.600 313.780,239.954 313.600,240.387 313.600 C 241.218 313.600,249.026 309.754,249.929 308.900 C 250.219 308.625,250.714 308.400,251.029 308.400 C 251.343 308.400,251.600 308.220,251.600 308.000 C 251.600 307.780,251.876 307.600,252.213 307.600 C 252.549 307.600,252.924 307.341,253.046 307.024 C 253.167 306.708,253.792 306.334,254.433 306.193 C 255.075 306.052,255.600 305.783,255.600 305.595 C 255.600 305.407,255.988 305.131,256.462 304.980 C 256.937 304.830,257.722 304.277,258.208 303.753 C 258.694 303.229,259.287 302.800,259.526 302.800 C 259.765 302.800,260.104 302.574,260.280 302.299 C 260.456 302.023,261.365 301.279,262.300 300.644 C 263.235 300.010,264.000 299.336,264.000 299.146 C 264.000 298.956,264.207 298.800,264.461 298.800 C 264.715 298.800,265.934 297.765,267.170 296.500 C 268.407 295.235,269.910 293.881,270.509 293.491 C 271.109 293.101,271.600 292.609,271.600 292.399 C 271.600 292.188,272.950 290.687,274.600 289.064 C 276.250 287.441,277.600 286.003,277.600 285.870 C 277.600 285.737,278.125 285.091,278.767 284.434 C 279.408 283.778,280.045 282.888,280.182 282.457 C 280.319 282.026,280.694 281.573,281.015 281.450 C 281.337 281.326,281.600 280.949,281.600 280.613 C 281.600 280.276,281.777 280.000,281.992 280.000 C 282.208 280.000,282.494 279.563,282.628 279.029 C 282.763 278.495,283.126 277.961,283.436 277.841 C 283.746 277.722,284.000 277.349,284.000 277.013 C 284.000 276.676,284.177 276.400,284.392 276.400 C 284.608 276.400,284.894 275.963,285.028 275.429 C 285.163 274.895,285.526 274.361,285.836 274.241 C 286.146 274.122,286.400 273.749,286.400 273.413 C 286.400 273.076,286.566 272.800,286.768 272.800 C 286.971 272.800,287.255 272.260,287.400 271.600 C 287.545 270.940,287.817 270.400,288.005 270.400 C 288.193 270.400,288.472 269.995,288.627 269.500 C 288.781 269.005,289.032 268.510,289.184 268.400 C 289.663 268.053,291.925 263.252,292.200 261.999 C 292.345 261.340,292.621 260.800,292.814 260.800 C 293.006 260.800,293.282 260.168,293.427 259.396 C 293.572 258.623,293.850 257.893,294.045 257.772 C 294.240 257.651,294.400 257.284,294.400 256.954 C 294.400 256.625,294.738 255.601,295.151 254.678 C 295.564 253.755,296.025 252.145,296.175 251.100 C 296.326 250.055,296.600 249.200,296.785 249.200 C 296.970 249.200,297.247 248.120,297.400 246.800 C 297.553 245.480,297.818 244.400,297.988 244.400 C 298.158 244.400,298.425 243.096,298.582 241.503 C 298.739 239.909,299.030 238.505,299.228 238.383 C 299.427 238.260,299.709 235.784,299.856 232.880 C 300.003 229.976,300.275 227.600,300.462 227.600 C 300.648 227.600,300.800 224.810,300.800 221.400 C 300.800 217.990,300.647 215.200,300.461 215.200 C 300.274 215.200,300.000 212.913,299.850 210.117 C 299.701 207.321,299.430 204.936,299.249 204.817 C 299.067 204.698,298.793 203.345,298.639 201.811 C 298.485 200.277,298.216 198.927,298.041 198.811 C 297.866 198.695,297.610 197.624,297.472 196.430 C 297.334 195.237,297.075 194.157,296.896 194.030 C 296.718 193.904,296.352 192.810,296.085 191.600 C 295.475 188.847,295.431 188.689,295.136 188.200 C 295.003 187.980,294.769 187.215,294.615 186.500 C 294.462 185.785,294.194 185.200,294.019 185.200 C 293.845 185.200,293.587 184.480,293.446 183.600 C 293.306 182.720,293.033 182.000,292.840 182.000 C 292.647 182.000,292.371 181.370,292.226 180.600 C 292.082 179.830,291.806 179.200,291.614 179.200 C 291.421 179.200,291.145 178.660,291.000 178.000 C 290.855 177.340,290.585 176.800,290.400 176.800 C 290.215 176.800,289.945 176.260,289.800 175.600 C 289.655 174.940,289.385 174.400,289.200 174.400 C 289.015 174.400,288.748 173.875,288.607 173.233 C 288.466 172.592,288.092 171.967,287.776 171.846 C 287.459 171.724,287.200 171.349,287.200 171.013 C 287.200 170.676,287.020 170.400,286.800 170.400 C 286.580 170.400,286.400 170.143,286.400 169.829 C 286.400 169.514,286.173 169.019,285.895 168.729 C 285.618 168.438,285.169 167.750,284.898 167.200 C 284.134 165.648,283.473 164.678,282.578 163.794 C 282.126 163.348,281.636 162.671,281.490 162.291 C 281.344 161.911,281.039 161.600,280.813 161.600 C 280.586 161.600,280.400 161.339,280.400 161.021 C 280.400 160.702,279.950 159.956,279.400 159.362 C 278.850 158.769,278.400 158.159,278.400 158.007 C 278.400 157.856,277.590 156.910,276.600 155.906 C 275.610 154.902,274.800 153.949,274.800 153.789 C 274.800 153.397,268.050 146.800,267.648 146.800 C 267.474 146.800,266.510 145.990,265.506 145.000 C 264.502 144.010,263.564 143.200,263.421 143.200 C 263.278 143.200,262.745 142.750,262.235 142.200 C 261.725 141.650,261.144 141.200,260.943 141.200 C 260.742 141.200,260.270 140.840,259.893 140.400 C 259.516 139.960,258.955 139.600,258.647 139.600 C 258.338 139.600,257.982 139.330,257.855 139.000 C 257.729 138.670,257.349 138.400,257.013 138.400 C 256.676 138.400,256.400 138.223,256.400 138.008 C 256.400 137.792,255.963 137.506,255.429 137.372 C 254.895 137.237,254.361 136.874,254.241 136.564 C 254.122 136.254,253.749 136.000,253.413 136.000 C 253.076 136.000,252.800 135.823,252.800 135.608 C 252.800 135.392,252.350 135.102,251.800 134.964 C 251.250 134.826,250.800 134.567,250.800 134.388 C 250.800 134.210,250.261 133.945,249.602 133.801 C 248.944 133.656,248.269 133.326,248.102 133.068 C 247.760 132.538,244.354 130.800,243.656 130.800 C 243.405 130.800,243.200 130.640,243.200 130.445 C 243.200 130.249,242.570 129.971,241.800 129.826 C 241.030 129.682,240.400 129.394,240.400 129.187 C 240.400 128.979,239.680 128.694,238.800 128.554 C 237.920 128.413,237.200 128.149,237.200 127.967 C 237.200 127.785,236.570 127.518,235.800 127.374 C 235.030 127.229,234.400 126.971,234.400 126.801 C 234.400 126.630,233.590 126.369,232.600 126.221 C 231.610 126.072,230.800 125.788,230.800 125.589 C 230.800 125.390,229.900 125.108,228.800 124.962 C 227.700 124.816,226.800 124.549,226.800 124.368 C 226.800 124.188,225.720 123.918,224.400 123.768 C 223.080 123.619,222.000 123.361,222.000 123.195 C 222.000 123.030,220.605 122.765,218.900 122.607 C 217.195 122.449,215.554 122.119,215.253 121.872 C 214.703 121.422,191.952 121.099,187.212 121.475 M178.766 163.677 C 182.408 165.773,183.781 170.719,181.814 174.655 C 181.041 176.202,178.529 178.400,177.536 178.400 C 177.131 178.400,176.800 178.580,176.800 178.800 C 176.800 179.022,175.741 179.200,174.424 179.200 C 173.117 179.200,171.936 179.020,171.800 178.800 C 171.664 178.580,171.210 178.400,170.791 178.400 C 169.808 178.400,166.828 175.303,166.559 174.002 C 166.445 173.451,166.183 172.687,165.976 172.305 C 165.504 171.433,165.487 169.717,165.948 169.432 C 166.140 169.314,166.408 168.662,166.543 167.985 C 166.678 167.308,167.017 166.516,167.295 166.226 C 167.573 165.936,168.065 165.316,168.388 164.849 C 168.712 164.382,169.207 164.000,169.488 164.000 C 169.770 164.000,170.000 163.833,170.000 163.629 C 170.000 162.483,176.755 162.520,178.766 163.677 M247.100 163.500 C 247.192 163.775,247.430 164.000,247.629 164.000 C 248.194 164.000,249.600 165.324,249.600 165.856 C 249.600 166.118,249.822 166.407,250.094 166.498 C 250.633 166.678,251.062 172.528,250.652 174.103 C 250.316 175.393,247.851 177.922,246.632 178.228 C 246.060 178.371,245.494 178.649,245.373 178.844 C 245.068 179.337,240.400 179.295,240.400 178.800 C 240.400 178.580,240.063 178.400,239.652 178.400 C 235.080 178.400,232.910 169.367,236.478 165.189 C 238.375 162.968,246.493 161.677,247.100 163.500 M160.674 176.070 C 163.088 178.337,161.324 182.000,157.819 182.000 C 155.246 182.000,154.400 181.159,154.400 178.600 C 154.400 175.299,158.215 173.760,160.674 176.070 M229.567 176.547 C 231.309 179.366,229.890 182.000,226.629 182.000 C 222.750 182.000,221.450 179.028,223.962 175.900 C 225.062 174.530,228.571 174.935,229.567 176.547 M190.200 190.400 L 190.200 194.200 166.000 194.304 C 138.192 194.424,140.800 194.848,140.800 190.204 C 140.800 186.036,138.466 186.380,165.983 186.497 L 190.200 186.600 190.200 190.400 M258.720 186.880 C 259.009 187.169,259.200 188.569,259.200 190.400 C 259.200 192.231,259.009 193.631,258.720 193.920 C 258.211 194.429,211.535 194.657,210.233 194.157 C 209.411 193.842,209.290 186.992,210.100 186.665 C 211.275 186.191,258.238 186.398,258.720 186.880 M185.102 234.500 C 185.161 256.340,185.055 272.000,184.847 272.000 C 184.650 272.000,184.374 272.613,184.233 273.363 C 183.927 274.997,180.927 278.229,178.631 279.400 C 176.311 280.583,155.515 280.627,153.000 279.454 C 151.204 278.616,148.000 275.708,148.000 274.917 C 148.000 274.633,147.834 274.400,147.632 274.400 C 147.429 274.400,147.145 273.862,147.001 273.205 C 146.857 272.547,146.572 271.906,146.369 271.781 C 145.944 271.518,145.846 197.487,146.270 197.063 C 146.419 196.914,155.194 196.839,165.770 196.896 L 185.000 197.000 185.102 234.500 M253.902 233.992 C 253.991 266.246,253.927 271.146,253.402 272.252 C 253.071 272.950,252.800 273.719,252.800 273.960 C 252.800 274.202,252.620 274.400,252.400 274.400 C 252.180 274.400,252.000 274.661,252.000 274.981 C 252.000 275.782,249.336 278.298,247.400 279.327 C 244.702 280.760,224.897 280.869,221.837 279.468 C 219.142 278.235,216.107 275.177,215.764 273.351 C 215.625 272.608,215.351 272.000,215.155 272.000 C 214.743 272.000,214.658 197.475,215.070 197.063 C 215.219 196.914,223.994 196.839,234.570 196.896 L 253.800 197.000 253.902 233.992 M164.400 212.600 L 164.400 214.000 174.200 214.000 L 184.000 214.000 184.000 212.600 L 184.000 211.200 174.200 211.200 L 164.400 211.200 164.400 212.600 M232.900 211.465 C 232.183 211.754,232.282 213.469,233.033 213.757 C 233.381 213.891,237.971 214.000,243.233 214.000 L 252.800 214.000 252.800 212.600 L 252.800 211.200 243.100 211.232 C 237.765 211.249,233.175 211.354,232.900 211.465 M160.564 221.351 C 160.447 221.654,160.408 222.779,160.476 223.851 L 160.600 225.800 172.300 225.906 L 184.000 226.012 184.000 223.406 L 184.000 220.800 172.387 220.800 C 162.895 220.800,160.736 220.901,160.564 221.351 M229.029 221.429 C 228.311 222.146,228.202 224.082,228.814 225.226 C 229.209 225.964,229.771 226.000,241.014 226.000 L 252.800 226.000 252.800 223.400 L 252.800 220.800 241.229 220.800 C 231.242 220.800,229.571 220.886,229.029 221.429 M164.558 232.966 C 164.438 233.278,164.399 234.043,164.470 234.666 L 164.600 235.800 174.300 235.907 L 184.000 236.014 184.000 234.207 L 184.000 232.400 174.387 232.400 C 166.467 232.400,164.737 232.500,164.558 232.966 M233.062 233.131 C 230.875 235.548,232.494 236.000,243.331 236.000 L 252.800 236.000 252.800 234.200 L 252.800 232.400 243.262 232.400 C 234.530 232.400,233.668 232.462,233.062 233.131 M160.667 242.667 C 160.206 243.127,160.377 247.017,160.880 247.520 C 161.231 247.871,164.409 248.000,172.680 248.000 L 184.000 248.000 184.000 245.200 L 184.000 242.400 172.467 242.400 C 166.123 242.400,160.813 242.520,160.667 242.667 M228.896 243.195 C 228.174 244.351,228.289 246.149,229.147 247.139 C 229.879 247.983,230.120 248.000,241.347 248.000 L 252.800 248.000 252.800 245.200 L 252.800 242.400 241.096 242.400 C 229.852 242.400,229.373 242.431,228.896 243.195 " stroke="none" fill="#ec4434" fill-rule="evenodd"></path><path id="path2" d="M173.700 178.676 C 174.085 178.776,174.715 178.776,175.100 178.676 C 175.485 178.575,175.170 178.493,174.400 178.493 C 173.630 178.493,173.315 178.575,173.700 178.676 M242.100 178.676 C 242.485 178.776,243.115 178.776,243.500 178.676 C 243.885 178.575,243.570 178.493,242.800 178.493 C 242.030 178.493,241.715 178.575,242.100 178.676 M169.723 210.699 C 172.541 210.768,177.041 210.768,179.723 210.699 C 182.405 210.630,180.100 210.573,174.600 210.573 C 169.100 210.574,166.905 210.630,169.723 210.699 M238.076 210.699 C 240.868 210.767,245.548 210.768,248.476 210.699 C 251.404 210.631,249.120 210.575,243.400 210.574 C 237.680 210.574,235.284 210.630,238.076 210.699 M228.114 223.400 C 228.117 224.500,228.195 224.903,228.287 224.295 C 228.379 223.686,228.377 222.786,228.282 222.295 C 228.187 221.803,228.111 222.300,228.114 223.400 M167.100 226.699 C 170.235 226.767,175.365 226.767,178.500 226.699 C 181.635 226.632,179.070 226.576,172.800 226.576 C 166.530 226.576,163.965 226.632,167.100 226.699 M235.925 226.699 C 239.293 226.766,244.693 226.766,247.925 226.699 C 251.156 226.632,248.400 226.577,241.800 226.577 C 235.200 226.577,232.556 226.632,235.925 226.699 M228.109 245.200 C 228.109 246.190,228.187 246.595,228.282 246.100 C 228.378 245.605,228.378 244.795,228.282 244.300 C 228.187 243.805,228.109 244.210,228.109 245.200 " stroke="none" fill="#f4a485" fill-rule="evenodd"></path><path id="path3" d="M172.421 163.179 C 172.046 163.416,172.470 163.465,173.621 163.318 C 174.599 163.192,175.475 163.025,175.567 162.945 C 175.942 162.619,172.955 162.840,172.421 163.179 M241.633 162.944 C 241.725 163.023,242.700 163.191,243.800 163.318 C 245.087 163.467,245.515 163.426,245.000 163.203 C 244.236 162.872,241.286 162.645,241.633 162.944 M237.667 165.100 L 236.165 166.600 237.582 165.401 C 238.362 164.742,239.171 164.067,239.380 163.901 C 239.589 163.735,239.627 163.600,239.465 163.600 C 239.302 163.600,238.493 164.275,237.667 165.100 M166.649 168.615 C 166.512 168.973,166.426 170.106,166.459 171.133 C 166.516 172.960,166.523 172.949,166.790 170.600 C 167.080 168.037,167.048 167.577,166.649 168.615 M250.509 170.800 C 250.509 171.790,250.587 172.195,250.682 171.700 C 250.778 171.205,250.778 170.395,250.682 169.900 C 250.587 169.405,250.509 169.810,250.509 170.800 M235.206 172.633 C 235.209 173.055,235.395 173.670,235.618 174.000 C 235.915 174.438,235.952 174.276,235.756 173.400 C 235.427 171.929,235.198 171.610,235.206 172.633 M168.000 175.600 C 168.470 176.260,168.944 176.800,169.054 176.800 C 169.164 176.800,168.870 176.260,168.400 175.600 C 167.930 174.940,167.456 174.400,167.346 174.400 C 167.236 174.400,167.530 174.940,168.000 175.600 M156.923 175.515 C 156.661 175.682,157.143 175.818,158.000 175.818 C 158.857 175.818,159.339 175.682,159.077 175.515 C 158.814 175.349,158.330 175.212,158.000 175.212 C 157.670 175.212,157.186 175.349,156.923 175.515 M229.289 178.700 C 229.296 179.788,229.378 179.982,229.587 179.406 C 229.840 178.712,229.707 177.200,229.393 177.200 C 229.331 177.200,229.284 177.875,229.289 178.700 M154.300 186.700 C 160.515 186.762,170.685 186.762,176.900 186.700 C 183.115 186.638,178.030 186.587,165.600 186.587 C 153.170 186.587,148.085 186.638,154.300 186.700 M223.100 186.700 C 229.315 186.762,239.485 186.762,245.700 186.700 C 251.915 186.638,246.830 186.587,234.400 186.587 C 221.970 186.587,216.885 186.638,223.100 186.700 M141.328 190.400 C 141.328 191.830,141.401 192.415,141.489 191.700 C 141.578 190.985,141.578 189.815,141.489 189.100 C 141.401 188.385,141.328 188.970,141.328 190.400 M258.528 190.400 C 258.528 191.830,258.601 192.415,258.689 191.700 C 258.778 190.985,258.778 189.815,258.689 189.100 C 258.601 188.385,258.528 188.970,258.528 190.400 M189.994 190.682 C 189.887 192.046,189.945 193.017,190.123 192.839 C 190.300 192.660,190.388 191.544,190.317 190.357 L 190.189 188.200 189.994 190.682 M209.714 190.600 C 209.717 191.700,209.795 192.103,209.887 191.495 C 209.979 190.886,209.977 189.986,209.882 189.495 C 209.787 189.003,209.711 189.500,209.714 190.600 M257.834 193.500 C 257.669 193.665,247.154 193.893,234.467 194.006 L 211.400 194.213 234.224 194.306 C 253.774 194.387,257.158 194.316,257.824 193.813 C 258.251 193.490,258.495 193.220,258.367 193.213 C 258.238 193.206,257.998 193.335,257.834 193.500 M142.743 194.103 C 142.910 194.270,153.296 194.360,165.823 194.303 L 188.600 194.200 165.520 194.000 C 152.826 193.890,142.576 193.937,142.743 194.103 M146.900 197.465 C 146.504 197.625,146.420 205.221,146.497 233.933 L 146.594 270.200 146.797 234.000 L 147.000 197.800 166.000 197.594 L 185.000 197.388 166.200 197.326 C 155.860 197.291,147.175 197.354,146.900 197.465 M234.200 197.594 L 253.000 197.800 253.000 204.100 C 253.000 207.565,253.135 210.400,253.300 210.400 C 253.968 210.400,253.642 197.702,252.967 197.443 C 252.619 197.309,244.024 197.242,233.867 197.294 L 215.400 197.388 234.200 197.594 M232.101 212.600 C 232.105 213.480,232.187 213.793,232.283 213.295 C 232.379 212.798,232.375 212.078,232.275 211.695 C 232.175 211.313,232.096 211.720,232.101 212.600 M163.946 214.507 C 164.115 214.676,168.922 214.765,174.627 214.706 L 185.000 214.599 174.319 214.400 C 168.445 214.290,163.777 214.338,163.946 214.507 M242.800 214.786 L 253.000 215.000 253.119 217.494 L 253.238 219.988 241.319 220.100 L 229.400 220.212 241.518 220.306 L 253.635 220.400 253.518 217.500 L 253.400 214.600 243.000 214.586 L 232.600 214.572 242.800 214.786 M166.725 220.299 C 170.093 220.366,175.493 220.366,178.725 220.299 C 181.956 220.232,179.200 220.177,172.600 220.177 C 166.000 220.177,163.356 220.232,166.725 220.299 M159.614 221.174 C 159.386 221.599,159.225 222.724,159.256 223.674 L 159.313 225.400 159.563 223.400 C 159.701 222.300,159.957 221.175,160.131 220.900 C 160.305 220.625,160.353 220.400,160.238 220.400 C 160.122 220.400,159.842 220.748,159.614 221.174 M253.134 229.399 L 253.268 232.000 243.114 232.000 C 231.969 232.000,231.962 232.002,232.057 234.380 L 232.114 235.800 232.357 234.200 L 232.600 232.600 243.000 232.400 L 253.400 232.200 253.518 229.500 C 253.583 228.015,253.493 226.800,253.318 226.799 C 253.143 226.799,253.060 227.969,253.134 229.399 M169.100 232.299 C 172.015 232.367,176.785 232.367,179.700 232.299 C 182.615 232.231,180.230 232.175,174.400 232.175 C 168.570 232.175,166.185 232.231,169.100 232.299 M253.200 238.994 L 253.200 241.588 241.300 241.700 L 229.400 241.812 241.500 241.906 L 253.600 242.000 253.600 239.200 C 253.600 237.660,253.510 236.400,253.400 236.400 C 253.290 236.400,253.200 237.567,253.200 238.994 M160.537 241.906 C 160.114 242.174,174.079 242.155,181.800 241.878 C 183.560 241.815,179.600 241.729,173.000 241.688 C 166.400 241.646,160.792 241.744,160.537 241.906 M159.361 243.358 C 159.243 243.665,159.208 244.610,159.283 245.458 C 159.410 246.887,159.434 246.846,159.610 244.900 C 159.804 242.756,159.741 242.367,159.361 243.358 M228.000 247.044 C 228.000 248.294,229.022 248.400,241.074 248.400 L 253.187 248.400 253.303 259.200 L 253.420 270.000 253.410 259.100 L 253.400 248.200 241.200 248.097 C 230.300 248.006,228.947 247.923,228.500 247.321 C 228.225 246.950,228.000 246.825,228.000 247.044 M159.949 247.700 C 160.453 248.343,161.491 248.392,172.749 248.306 L 185.000 248.212 172.834 248.100 C 163.935 248.018,160.497 247.855,160.034 247.494 C 159.474 247.057,159.464 247.081,159.949 247.700 M146.806 271.033 C 146.809 271.455,146.995 272.070,147.218 272.400 C 147.515 272.838,147.552 272.676,147.356 271.800 C 147.027 270.329,146.798 270.010,146.806 271.033 M252.846 270.867 C 252.821 271.234,252.696 271.864,252.570 272.267 C 252.352 272.962,252.363 272.963,252.797 272.287 C 253.048 271.896,253.173 271.266,253.073 270.887 C 252.911 270.268,252.888 270.266,252.846 270.867 M249.400 276.678 C 248.300 277.694,247.760 278.332,248.200 278.095 C 248.962 277.686,251.953 274.783,251.578 274.816 C 251.480 274.825,250.500 275.663,249.400 276.678 M149.801 276.334 C 150.460 277.068,151.360 277.855,151.800 278.083 C 152.240 278.311,152.420 278.340,152.200 278.148 C 151.980 277.955,151.080 277.168,150.201 276.399 L 148.602 275.000 149.801 276.334 M161.300 279.899 C 163.885 279.968,168.115 279.968,170.700 279.899 C 173.285 279.829,171.170 279.772,166.000 279.772 C 160.830 279.772,158.715 279.829,161.300 279.899 M229.300 279.899 C 231.885 279.968,236.115 279.968,238.700 279.899 C 241.285 279.829,239.170 279.772,234.000 279.772 C 228.830 279.772,226.715 279.829,229.300 279.899 " stroke="none" fill="#fcb4a4" fill-rule="evenodd"></path><path id="path4" d="M182.101 171.000 C 182.105 171.880,182.187 172.193,182.283 171.695 C 182.379 171.198,182.375 170.478,182.275 170.095 C 182.175 169.713,182.096 170.120,182.101 171.000 M184.509 212.800 C 184.509 213.790,184.587 214.195,184.682 213.700 C 184.778 213.205,184.778 212.395,184.682 211.900 C 184.587 211.405,184.509 211.810,184.509 212.800 M184.606 220.500 C 184.311 221.373,184.188 226.376,184.469 226.082 C 184.724 225.814,185.124 219.997,184.887 219.999 C 184.826 220.000,184.699 220.225,184.606 220.500 M184.514 234.200 C 184.517 235.300,184.595 235.703,184.687 235.095 C 184.779 234.486,184.777 233.586,184.682 233.095 C 184.587 232.603,184.511 233.100,184.514 234.200 M169.500 236.299 C 172.195 236.368,176.605 236.368,179.300 236.299 C 181.995 236.230,179.790 236.173,174.400 236.173 C 169.010 236.173,166.805 236.230,169.500 236.299 M238.300 236.299 C 240.995 236.368,245.405 236.368,248.100 236.299 C 250.795 236.230,248.590 236.173,243.200 236.173 C 237.810 236.173,235.605 236.230,238.300 236.299 M166.924 242.299 C 170.183 242.367,175.403 242.366,178.524 242.299 C 181.646 242.231,178.980 242.176,172.600 242.177 C 166.220 242.177,163.666 242.232,166.924 242.299 M235.724 242.299 C 238.983 242.367,244.203 242.366,247.324 242.299 C 250.446 242.231,247.780 242.176,241.400 242.177 C 235.020 242.177,232.466 242.232,235.724 242.299 M184.534 245.200 C 184.534 246.850,184.605 247.525,184.691 246.700 C 184.778 245.875,184.778 244.525,184.691 243.700 C 184.605 242.875,184.534 243.550,184.534 245.200 " stroke="none" fill="#f47c60" fill-rule="evenodd"></path><path id="path5" d="M258.928 190.400 C 258.928 191.830,259.001 192.415,259.089 191.700 C 259.178 190.985,259.178 189.815,259.089 189.100 C 259.001 188.385,258.928 188.970,258.928 190.400 M140.920 190.400 C 140.920 191.610,140.995 192.105,141.087 191.500 C 141.178 190.895,141.178 189.905,141.087 189.300 C 140.995 188.695,140.920 189.190,140.920 190.400 M184.961 204.000 C 184.961 207.410,185.022 208.805,185.097 207.100 C 185.172 205.395,185.172 202.605,185.097 200.900 C 185.022 199.195,184.961 200.590,184.961 204.000 M214.992 233.800 C 214.992 253.600,215.040 261.641,215.100 251.670 C 215.159 241.698,215.159 225.498,215.100 215.670 C 215.040 205.841,214.992 214.000,214.992 233.800 M253.314 212.600 C 253.317 213.700,253.395 214.103,253.487 213.495 C 253.579 212.886,253.577 211.986,253.482 211.495 C 253.387 211.003,253.311 211.500,253.314 212.600 M184.928 217.600 C 184.928 219.030,185.001 219.615,185.089 218.900 C 185.178 218.185,185.178 217.015,185.089 216.300 C 185.001 215.585,184.928 216.170,184.928 217.600 M253.337 223.400 C 253.339 225.160,253.409 225.830,253.493 224.889 C 253.578 223.949,253.577 222.509,253.491 221.689 C 253.405 220.870,253.336 221.640,253.337 223.400 M184.928 229.600 C 184.928 231.030,185.001 231.615,185.089 230.900 C 185.178 230.185,185.178 229.015,185.089 228.300 C 185.001 227.585,184.928 228.170,184.928 229.600 M253.193 234.281 C 253.087 235.425,253.147 236.215,253.326 236.035 C 253.505 235.856,253.591 234.919,253.518 233.954 L 253.385 232.200 253.193 234.281 M184.931 239.000 C 184.933 240.540,185.005 241.121,185.092 240.291 C 185.179 239.461,185.177 238.201,185.089 237.491 C 185.000 236.781,184.929 237.460,184.931 239.000 M253.196 245.118 L 253.392 248.200 253.516 245.440 C 253.584 243.921,253.495 242.535,253.320 242.358 C 253.144 242.181,253.088 243.423,253.196 245.118 M184.975 259.000 C 184.975 264.940,185.031 267.426,185.099 264.524 C 185.167 261.622,185.167 256.762,185.099 253.724 C 185.031 250.686,184.975 253.060,184.975 259.000 M161.300 280.298 C 163.665 280.369,167.535 280.369,169.900 280.298 C 172.265 280.228,170.330 280.170,165.600 280.170 C 160.870 280.170,158.935 280.228,161.300 280.298 M230.100 280.298 C 232.465 280.369,236.335 280.369,238.700 280.298 C 241.065 280.228,239.130 280.170,234.400 280.170 C 229.670 280.170,227.735 280.228,230.100 280.298 " stroke="none" fill="#f48c74" fill-rule="evenodd"></path><path id="path6" d="M166.093 170.800 C 166.093 171.570,166.175 171.885,166.276 171.500 C 166.376 171.115,166.376 170.485,166.276 170.100 C 166.175 169.715,166.093 170.030,166.093 170.800 M234.493 170.800 C 234.493 171.570,234.575 171.885,234.676 171.500 C 234.776 171.115,234.776 170.485,234.676 170.100 C 234.575 169.715,234.493 170.030,234.493 170.800 M173.505 179.083 C 174.002 179.179,174.722 179.175,175.105 179.075 C 175.487 178.975,175.080 178.896,174.200 178.901 C 173.320 178.905,173.007 178.987,173.505 179.083 M242.305 179.083 C 242.802 179.179,243.522 179.175,243.905 179.075 C 244.287 178.975,243.880 178.896,243.000 178.901 C 242.120 178.905,241.807 178.987,242.305 179.083 M253.764 204.200 C 253.763 207.940,253.823 209.524,253.897 207.720 C 253.971 205.915,253.972 202.855,253.898 200.920 C 253.825 198.984,253.764 200.460,253.764 204.200 M146.192 234.000 C 146.192 253.910,146.240 262.055,146.300 252.100 C 146.359 242.145,146.359 225.855,146.300 215.900 C 146.240 205.945,146.192 214.090,146.192 234.000 M164.261 211.100 C 164.159 211.265,167.073 211.354,170.737 211.297 C 183.332 211.102,184.581 210.966,174.524 210.883 C 168.982 210.837,164.363 210.935,164.261 211.100 M242.977 211.096 L 252.755 211.214 252.912 212.707 L 253.068 214.200 253.034 212.600 L 253.000 211.000 243.100 210.989 L 233.200 210.979 242.977 211.096 M253.737 217.400 C 253.739 219.160,253.809 219.830,253.893 218.889 C 253.978 217.949,253.977 216.509,253.891 215.689 C 253.805 214.870,253.736 215.640,253.737 217.400 M252.877 223.094 L 252.800 225.988 241.100 226.100 L 229.400 226.213 241.113 226.306 C 254.381 226.412,253.320 226.726,253.098 222.758 L 252.954 220.200 252.877 223.094 M159.701 223.400 C 159.705 224.280,159.787 224.593,159.883 224.095 C 159.979 223.598,159.975 222.878,159.875 222.495 C 159.775 222.113,159.696 222.520,159.701 223.400 M166.924 226.299 C 170.183 226.367,175.403 226.366,178.524 226.299 C 181.646 226.231,178.980 226.176,172.600 226.177 C 166.220 226.177,163.666 226.232,166.924 226.299 M253.737 229.400 C 253.739 231.160,253.809 231.830,253.893 230.889 C 253.978 229.949,253.977 228.509,253.891 227.689 C 253.805 226.870,253.736 227.640,253.737 229.400 M252.914 234.200 C 252.917 235.300,252.995 235.703,253.087 235.095 C 253.179 234.486,253.177 233.586,253.082 233.095 C 252.987 232.603,252.911 233.100,252.914 234.200 M253.734 239.200 C 253.734 240.850,253.805 241.525,253.891 240.700 C 253.978 239.875,253.978 238.525,253.891 237.700 C 253.805 236.875,253.734 237.550,253.734 239.200 M252.934 245.200 C 252.934 246.850,253.005 247.525,253.091 246.700 C 253.178 245.875,253.178 244.525,253.091 243.700 C 253.005 242.875,252.934 243.550,252.934 245.200 M159.701 245.000 C 159.705 245.880,159.787 246.193,159.883 245.695 C 159.979 245.198,159.975 244.478,159.875 244.095 C 159.775 243.713,159.696 244.120,159.701 245.000 M253.776 259.200 C 253.776 265.470,253.832 268.035,253.899 264.900 C 253.967 261.765,253.967 256.635,253.899 253.500 C 253.832 250.365,253.776 252.930,253.776 259.200 " stroke="none" fill="#f46c54" fill-rule="evenodd"></path><path id="path7" d="M179.200 164.138 C 179.200 164.200,179.769 164.779,180.465 165.425 C 181.728 166.598,181.729 166.598,180.965 165.517 C 180.328 164.615,179.200 163.734,179.200 164.138 M181.789 167.382 C 182.347 169.133,182.461 171.517,182.057 172.980 C 181.720 174.198,181.733 174.427,182.114 174.046 C 182.771 173.389,182.733 168.425,182.063 167.400 C 181.559 166.630,181.549 166.630,181.789 167.382 M165.867 169.467 C 165.503 169.831,165.528 171.909,165.900 172.138 C 166.065 172.240,166.200 171.621,166.200 170.762 C 166.200 169.903,166.185 169.200,166.167 169.200 C 166.148 169.200,166.013 169.320,165.867 169.467 M160.434 176.247 C 160.965 176.933,161.480 177.423,161.579 177.335 C 161.677 177.247,161.243 176.686,160.613 176.088 L 159.469 175.000 160.434 176.247 M160.434 180.953 L 159.469 182.200 160.613 181.112 C 161.243 180.514,161.677 179.953,161.579 179.865 C 161.480 179.777,160.965 180.267,160.434 180.953 M146.267 197.067 C 146.120 197.213,146.003 197.528,146.006 197.767 C 146.010 198.027,146.138 198.001,146.327 197.704 C 146.569 197.323,151.092 197.183,165.821 197.100 L 185.000 196.992 165.767 196.896 C 155.188 196.843,146.413 196.920,146.267 197.067 M221.800 197.089 C 239.189 197.367,253.907 197.373,253.738 197.100 C 253.636 196.935,244.878 196.840,234.276 196.890 C 223.674 196.939,218.060 197.029,221.800 197.089 M184.914 212.600 C 184.917 213.700,184.995 214.103,185.087 213.495 C 185.179 212.886,185.177 211.986,185.082 211.495 C 184.987 211.003,184.911 211.500,184.914 212.600 M253.714 212.600 C 253.717 213.700,253.795 214.103,253.887 213.495 C 253.979 212.886,253.977 211.986,253.882 211.495 C 253.787 211.003,253.711 211.500,253.714 212.600 M184.060 212.493 L 184.000 213.986 174.100 214.100 L 164.200 214.215 174.113 214.307 C 184.905 214.408,184.639 214.465,184.290 212.134 C 184.146 211.176,184.111 211.232,184.060 212.493 M233.147 214.107 C 233.316 214.276,237.852 214.366,243.227 214.307 L 253.000 214.199 242.919 213.999 C 237.375 213.890,232.977 213.938,233.147 214.107 M172.382 220.697 L 183.964 220.812 184.112 223.408 L 184.259 226.003 184.230 223.302 L 184.200 220.600 172.500 220.591 L 160.800 220.582 172.382 220.697 M184.937 223.400 C 184.939 225.160,185.009 225.830,185.093 224.889 C 185.178 223.949,185.177 222.509,185.091 221.689 C 185.005 220.870,184.936 221.640,184.937 223.400 M229.461 220.700 C 229.359 220.865,232.723 220.954,236.938 220.898 C 251.534 220.702,252.946 220.570,241.324 220.485 C 234.902 220.438,229.564 220.535,229.461 220.700 M253.737 223.400 C 253.739 225.160,253.809 225.830,253.893 224.889 C 253.978 223.949,253.977 222.509,253.891 221.689 C 253.805 220.870,253.736 221.640,253.737 223.400 M160.046 223.276 C 160.021 224.528,160.135 225.636,160.300 225.738 C 160.465 225.840,160.546 225.086,160.480 224.062 C 160.293 221.141,160.097 220.786,160.046 223.276 M184.114 234.200 C 184.117 235.300,184.195 235.703,184.287 235.095 C 184.379 234.486,184.377 233.586,184.282 233.095 C 184.187 232.603,184.111 233.100,184.114 234.200 M184.914 234.200 C 184.917 235.300,184.995 235.703,185.087 235.095 C 185.179 234.486,185.177 233.586,185.082 233.095 C 184.987 232.603,184.911 233.100,184.914 234.200 M253.720 234.400 C 253.720 235.610,253.795 236.105,253.887 235.500 C 253.978 234.895,253.978 233.905,253.887 233.300 C 253.795 232.695,253.720 233.190,253.720 234.400 M253.737 245.000 C 253.739 246.760,253.809 247.430,253.893 246.489 C 253.978 245.549,253.977 244.109,253.891 243.289 C 253.805 242.470,253.736 243.240,253.737 245.000 M184.134 245.200 C 184.134 246.850,184.205 247.525,184.291 246.700 C 184.378 245.875,184.378 244.525,184.291 243.700 C 184.205 242.875,184.134 243.550,184.134 245.200 M184.934 245.200 C 184.934 246.850,185.005 247.525,185.091 246.700 C 185.178 245.875,185.178 244.525,185.091 243.700 C 185.005 242.875,184.934 243.550,184.934 245.200 M160.072 245.051 C 160.018 246.589,160.175 247.239,160.700 247.651 C 161.312 248.131,161.340 248.123,160.926 247.590 C 160.665 247.254,160.382 246.084,160.298 244.990 L 160.144 243.000 160.072 245.051 M146.028 270.676 C 146.013 271.158,146.180 271.664,146.400 271.800 C 146.873 272.092,146.873 271.701,146.400 270.600 C 146.069 269.829,146.055 269.831,146.028 270.676 M150.198 277.537 C 150.634 278.052,151.353 278.659,151.796 278.886 C 152.645 279.321,152.521 279.187,150.603 277.594 C 149.448 276.635,149.434 276.633,150.198 277.537 M248.600 278.212 C 247.035 279.495,247.457 279.486,249.200 278.200 C 249.945 277.650,250.385 277.206,250.178 277.214 C 249.970 277.222,249.260 277.671,248.600 278.212 " stroke="none" fill="#f44c3c" fill-rule="evenodd"></path></g></svg>